SplineFontDB: 3.2
FontName: XBFWINLucidaTypewriter18-Bold
FullName: XBF WIN Lucida Typewriter 18 Bold
FamilyName: XBF WIN Lucida Typewriter 18
Weight: Bold
Copyright: Copyright Bigelow & Holmes 1986, 1985.
UComments: "2022-3-11: Created with FontForge (http://fontforge.org)"
Version: 001.000
ItalicAngle: 0
UnderlinePosition: -100
UnderlineWidth: 50
Ascent: 842
Descent: 158
InvalidEm: 0
LayerCount: 2
Layer: 0 0 "Back" 1
Layer: 1 0 "Fore" 0
XUID: [1021 584 -147056873 13312363]
StyleMap: 0x0020
FSType: 0
OS2Version: 0
OS2_WeightWidthSlopeOnly: 0
OS2_UseTypoMetrics: 1
CreationTime: 1646981336
ModificationTime: 1646981337
PfmFamily: 48
TTFWeight: 700
TTFWidth: 5
LineGap: 0
VLineGap: 90
Panose: 2 0 8 9 0 0 0 0 0 0
OS2TypoAscent: 842
OS2TypoAOffset: 0
OS2TypoDescent: -158
OS2TypoDOffset: 0
OS2TypoLinegap: 0
OS2WinAscent: 842
OS2WinAOffset: 0
OS2WinDescent: 158
OS2WinDOffset: 0
HheadAscent: 842
HheadAOffset: 0
HheadDescent: -158
HheadDOffset: 0
OS2SubXSize: 650
OS2SubYSize: 700
OS2SubXOff: 0
OS2SubYOff: 140
OS2SupXSize: 650
OS2SupYSize: 700
OS2SupXOff: 0
OS2SupYOff: 480
OS2StrikeYSize: 49
OS2StrikeYPos: 258
OS2Vendor: 'PfEd'
MacStyle: 1
DEI: 91125
Encoding: UnicodeBmp
UnicodeInterp: none
NameList: AGL For New Fonts
DisplaySize: 18
AntiAlias: 1
FitToEm: 0
BeginChars: 65536 881

StartChar: char0
Encoding: 0 0 0
Width: 579
Flags: HW
LayerCount: 2
Back
Fore
SplineSet
53 632 m 1
 53 684 l 1
 105 684 l 1
 105 632 l 1
 53 632 l 1
158 632 m 1
 158 684 l 1
 211 684 l 1
 211 632 l 1
 158 632 l 1
263 632 m 1
 263 684 l 1
 316 684 l 1
 316 632 l 1
 263 632 l 1
368 632 m 1
 368 684 l 1
 421 684 l 1
 421 632 l 1
 368 632 l 1
474 632 m 1
 474 684 l 1
 526 684 l 1
 526 632 l 1
 474 632 l 1
53 526 m 1
 53 579 l 1
 105 579 l 1
 105 526 l 1
 53 526 l 1
474 526 m 1
 474 579 l 1
 526 579 l 1
 526 526 l 1
 474 526 l 1
53 421 m 1
 53 474 l 1
 105 474 l 1
 105 421 l 1
 53 421 l 1
474 421 m 1
 474 474 l 1
 526 474 l 1
 526 421 l 1
 474 421 l 1
53 316 m 1
 53 368 l 1
 105 368 l 1
 105 316 l 1
 53 316 l 1
474 316 m 1
 474 368 l 1
 526 368 l 1
 526 316 l 1
 474 316 l 1
53 211 m 1
 53 263 l 1
 105 263 l 1
 105 211 l 1
 53 211 l 1
474 211 m 1
 474 263 l 1
 526 263 l 1
 526 211 l 1
 474 211 l 1
53 105 m 1
 53 158 l 1
 105 158 l 1
 105 105 l 1
 53 105 l 1
474 105 m 1
 474 158 l 1
 526 158 l 1
 526 105 l 1
 474 105 l 1
53 0 m 1
 53 53 l 1
 105 53 l 1
 105 0 l 1
 53 0 l 1
158 0 m 1
 158 53 l 1
 211 53 l 1
 211 0 l 1
 158 0 l 1
263 0 m 1
 263 53 l 1
 316 53 l 1
 316 0 l 1
 263 0 l 1
368 0 m 1
 368 53 l 1
 421 53 l 1
 421 0 l 1
 368 0 l 1
474 0 m 1
 474 53 l 1
 526 53 l 1
 526 0 l 1
 474 0 l 1
EndSplineSet
EndChar

StartChar: exclam
Encoding: 33 33 2
Width: 579
Flags: HW
LayerCount: 2
Back
Fore
SplineSet
211 632 m 1
 211 684 l 1
 368 684 l 1
 368 632 l 1
 211 632 l 1
211 579 m 1
 211 632 l 1
 368 632 l 1
 368 579 l 1
 211 579 l 1
211 526 m 1
 211 579 l 1
 368 579 l 1
 368 526 l 1
 211 526 l 1
211 474 m 1
 211 526 l 1
 368 526 l 1
 368 474 l 1
 211 474 l 1
211 421 m 1
 211 474 l 1
 368 474 l 1
 368 421 l 1
 211 421 l 1
263 368 m 1
 263 421 l 1
 368 421 l 1
 368 368 l 1
 263 368 l 1
263 316 m 1
 263 368 l 1
 316 368 l 1
 316 316 l 1
 263 316 l 1
263 263 m 1
 263 316 l 1
 316 316 l 1
 316 263 l 1
 263 263 l 1
211 105 m 1
 211 158 l 1
 368 158 l 1
 368 105 l 1
 211 105 l 1
211 53 m 1
 211 105 l 1
 368 105 l 1
 368 53 l 1
 211 53 l 1
211 0 m 1
 211 53 l 1
 368 53 l 1
 368 0 l 1
 211 0 l 1
EndSplineSet
EndChar

StartChar: quotedbl
Encoding: 34 34 3
Width: 579
Flags: HW
LayerCount: 2
Back
Fore
SplineSet
105 684 m 1
 105 737 l 1
 263 737 l 1
 263 684 l 1
 105 684 l 1
368 684 m 1
 368 737 l 1
 526 737 l 1
 526 684 l 1
 368 684 l 1
105 632 m 1
 105 684 l 1
 263 684 l 1
 263 632 l 1
 105 632 l 1
368 632 m 1
 368 684 l 1
 526 684 l 1
 526 632 l 1
 368 632 l 1
105 579 m 1
 105 632 l 1
 263 632 l 1
 263 579 l 1
 105 579 l 1
368 579 m 1
 368 632 l 1
 526 632 l 1
 526 579 l 1
 368 579 l 1
105 526 m 1
 105 579 l 1
 211 579 l 1
 211 526 l 1
 105 526 l 1
368 526 m 1
 368 579 l 1
 474 579 l 1
 474 526 l 1
 368 526 l 1
105 474 m 1
 105 526 l 1
 211 526 l 1
 211 474 l 1
 105 474 l 1
368 474 m 1
 368 526 l 1
 474 526 l 1
 474 474 l 1
 368 474 l 1
EndSplineSet
EndChar

StartChar: numbersign
Encoding: 35 35 4
Width: 579
Flags: HW
LayerCount: 2
Back
Fore
SplineSet
211 632 m 1
 211 684 l 1
 316 684 l 1
 316 632 l 1
 211 632 l 1
421 632 m 1
 421 684 l 1
 526 684 l 1
 526 632 l 1
 421 632 l 1
211 579 m 1
 211 632 l 1
 316 632 l 1
 316 579 l 1
 211 579 l 1
421 579 m 1
 421 632 l 1
 526 632 l 1
 526 579 l 1
 421 579 l 1
211 526 m 1
 211 579 l 1
 316 579 l 1
 316 526 l 1
 211 526 l 1
421 526 m 1
 421 579 l 1
 526 579 l 1
 526 526 l 1
 421 526 l 1
105 474 m 1
 105 526 l 1
 579 526 l 1
 579 474 l 1
 105 474 l 1
105 421 m 1
 105 474 l 1
 579 474 l 1
 579 421 l 1
 105 421 l 1
158 368 m 1
 158 421 l 1
 263 421 l 1
 263 368 l 1
 158 368 l 1
368 368 m 1
 368 421 l 1
 474 421 l 1
 474 368 l 1
 368 368 l 1
158 316 m 1
 158 368 l 1
 263 368 l 1
 263 316 l 1
 158 316 l 1
368 316 m 1
 368 368 l 1
 474 368 l 1
 474 316 l 1
 368 316 l 1
53 263 m 1
 53 316 l 1
 526 316 l 1
 526 263 l 1
 53 263 l 1
53 211 m 1
 53 263 l 1
 526 263 l 1
 526 211 l 1
 53 211 l 1
105 158 m 1
 105 211 l 1
 211 211 l 1
 211 158 l 1
 105 158 l 1
316 158 m 1
 316 211 l 1
 421 211 l 1
 421 158 l 1
 316 158 l 1
105 105 m 1
 105 158 l 1
 211 158 l 1
 211 105 l 1
 105 105 l 1
316 105 m 1
 316 158 l 1
 421 158 l 1
 421 105 l 1
 316 105 l 1
105 53 m 1
 105 105 l 1
 211 105 l 1
 211 53 l 1
 105 53 l 1
316 53 m 1
 316 105 l 1
 421 105 l 1
 421 53 l 1
 316 53 l 1
105 0 m 1
 105 53 l 1
 211 53 l 1
 211 0 l 1
 105 0 l 1
316 0 m 1
 316 53 l 1
 421 53 l 1
 421 0 l 1
 316 0 l 1
EndSplineSet
EndChar

StartChar: dollar
Encoding: 36 36 5
Width: 579
Flags: HW
LayerCount: 2
Back
Fore
SplineSet
263 737 m 1
 263 789 l 1
 368 789 l 1
 368 737 l 1
 263 737 l 1
263 684 m 1
 263 737 l 1
 368 737 l 1
 368 684 l 1
 263 684 l 1
158 632 m 1
 158 684 l 1
 474 684 l 1
 474 632 l 1
 158 632 l 1
105 579 m 1
 105 632 l 1
 526 632 l 1
 526 579 l 1
 105 579 l 1
53 526 m 1
 53 579 l 1
 211 579 l 1
 211 526 l 1
 53 526 l 1
421 526 m 1
 421 579 l 1
 526 579 l 1
 526 526 l 1
 421 526 l 1
53 474 m 1
 53 526 l 1
 211 526 l 1
 211 474 l 1
 53 474 l 1
53 421 m 1
 53 474 l 1
 263 474 l 1
 263 421 l 1
 53 421 l 1
105 368 m 1
 105 421 l 1
 368 421 l 1
 368 368 l 1
 105 368 l 1
158 316 m 1
 158 368 l 1
 421 368 l 1
 421 316 l 1
 158 316 l 1
211 263 m 1
 211 316 l 1
 474 316 l 1
 474 263 l 1
 211 263 l 1
316 211 m 1
 316 263 l 1
 526 263 l 1
 526 211 l 1
 316 211 l 1
368 158 m 1
 368 211 l 1
 526 211 l 1
 526 158 l 1
 368 158 l 1
53 105 m 1
 53 158 l 1
 158 158 l 1
 158 105 l 1
 53 105 l 1
368 105 m 1
 368 158 l 1
 526 158 l 1
 526 105 l 1
 368 105 l 1
53 53 m 1
 53 105 l 1
 474 105 l 1
 474 53 l 1
 53 53 l 1
105 0 m 1
 105 53 l 1
 421 53 l 1
 421 0 l 1
 105 0 l 1
211 -53 m 1
 211 0 l 1
 316 0 l 1
 316 -53 l 1
 211 -53 l 1
211 -105 m 1
 211 -53 l 1
 316 -53 l 1
 316 -105 l 1
 211 -105 l 1
EndSplineSet
EndChar

StartChar: percent
Encoding: 37 37 6
Width: 579
Flags: HW
LayerCount: 2
Back
Fore
SplineSet
53 632 m 1
 53 684 l 1
 211 684 l 1
 211 632 l 1
 53 632 l 1
0 579 m 1
 0 632 l 1
 105 632 l 1
 105 579 l 1
 0 579 l 1
158 579 m 1
 158 632 l 1
 263 632 l 1
 263 579 l 1
 158 579 l 1
474 579 m 1
 474 632 l 1
 526 632 l 1
 526 579 l 1
 474 579 l 1
0 526 m 1
 0 579 l 1
 105 579 l 1
 105 526 l 1
 0 526 l 1
158 526 m 1
 158 579 l 1
 263 579 l 1
 263 526 l 1
 158 526 l 1
421 526 m 1
 421 579 l 1
 526 579 l 1
 526 526 l 1
 421 526 l 1
0 474 m 1
 0 526 l 1
 105 526 l 1
 105 474 l 1
 0 474 l 1
158 474 m 1
 158 526 l 1
 263 526 l 1
 263 474 l 1
 158 474 l 1
368 474 m 1
 368 526 l 1
 474 526 l 1
 474 474 l 1
 368 474 l 1
0 421 m 1
 0 474 l 1
 105 474 l 1
 105 421 l 1
 0 421 l 1
158 421 m 1
 158 474 l 1
 263 474 l 1
 263 421 l 1
 158 421 l 1
316 421 m 1
 316 474 l 1
 421 474 l 1
 421 421 l 1
 316 421 l 1
0 368 m 1
 0 421 l 1
 105 421 l 1
 105 368 l 1
 0 368 l 1
158 368 m 1
 158 421 l 1
 263 421 l 1
 263 368 l 1
 158 368 l 1
316 368 m 1
 316 421 l 1
 368 421 l 1
 368 368 l 1
 316 368 l 1
53 316 m 1
 53 368 l 1
 211 368 l 1
 211 316 l 1
 53 316 l 1
263 316 m 1
 263 368 l 1
 316 368 l 1
 316 316 l 1
 263 316 l 1
368 316 m 1
 368 368 l 1
 526 368 l 1
 526 316 l 1
 368 316 l 1
211 263 m 1
 211 316 l 1
 263 316 l 1
 263 263 l 1
 211 263 l 1
316 263 m 1
 316 316 l 1
 421 316 l 1
 421 263 l 1
 316 263 l 1
474 263 m 1
 474 316 l 1
 579 316 l 1
 579 263 l 1
 474 263 l 1
158 211 m 1
 158 263 l 1
 263 263 l 1
 263 211 l 1
 158 211 l 1
316 211 m 1
 316 263 l 1
 421 263 l 1
 421 211 l 1
 316 211 l 1
474 211 m 1
 474 263 l 1
 579 263 l 1
 579 211 l 1
 474 211 l 1
105 158 m 1
 105 211 l 1
 211 211 l 1
 211 158 l 1
 105 158 l 1
316 158 m 1
 316 211 l 1
 421 211 l 1
 421 158 l 1
 316 158 l 1
474 158 m 1
 474 211 l 1
 579 211 l 1
 579 158 l 1
 474 158 l 1
53 105 m 1
 53 158 l 1
 158 158 l 1
 158 105 l 1
 53 105 l 1
316 105 m 1
 316 158 l 1
 421 158 l 1
 421 105 l 1
 316 105 l 1
474 105 m 1
 474 158 l 1
 579 158 l 1
 579 105 l 1
 474 105 l 1
53 53 m 1
 53 105 l 1
 105 105 l 1
 105 53 l 1
 53 53 l 1
316 53 m 1
 316 105 l 1
 421 105 l 1
 421 53 l 1
 316 53 l 1
474 53 m 1
 474 105 l 1
 579 105 l 1
 579 53 l 1
 474 53 l 1
368 0 m 1
 368 53 l 1
 526 53 l 1
 526 0 l 1
 368 0 l 1
EndSplineSet
EndChar

StartChar: ampersand
Encoding: 38 38 7
Width: 579
Flags: HW
LayerCount: 2
Back
Fore
SplineSet
211 632 m 1
 211 684 l 1
 368 684 l 1
 368 632 l 1
 211 632 l 1
158 579 m 1
 158 632 l 1
 421 632 l 1
 421 579 l 1
 158 579 l 1
105 526 m 1
 105 579 l 1
 263 579 l 1
 263 526 l 1
 105 526 l 1
316 526 m 1
 316 579 l 1
 474 579 l 1
 474 526 l 1
 316 526 l 1
105 474 m 1
 105 526 l 1
 263 526 l 1
 263 474 l 1
 105 474 l 1
316 474 m 1
 316 526 l 1
 474 526 l 1
 474 474 l 1
 316 474 l 1
105 421 m 1
 105 474 l 1
 263 474 l 1
 263 421 l 1
 105 421 l 1
316 421 m 1
 316 474 l 1
 421 474 l 1
 421 421 l 1
 316 421 l 1
158 368 m 1
 158 421 l 1
 368 421 l 1
 368 368 l 1
 158 368 l 1
474 368 m 1
 474 421 l 1
 579 421 l 1
 579 368 l 1
 474 368 l 1
53 316 m 1
 53 368 l 1
 316 368 l 1
 316 316 l 1
 53 316 l 1
474 316 m 1
 474 368 l 1
 579 368 l 1
 579 316 l 1
 474 316 l 1
0 263 m 1
 0 316 l 1
 158 316 l 1
 158 263 l 1
 0 263 l 1
211 263 m 1
 211 316 l 1
 368 316 l 1
 368 263 l 1
 211 263 l 1
474 263 m 1
 474 316 l 1
 579 316 l 1
 579 263 l 1
 474 263 l 1
0 211 m 1
 0 263 l 1
 158 263 l 1
 158 211 l 1
 0 211 l 1
211 211 m 1
 211 263 l 1
 421 263 l 1
 421 211 l 1
 211 211 l 1
474 211 m 1
 474 263 l 1
 579 263 l 1
 579 211 l 1
 474 211 l 1
0 158 m 1
 0 211 l 1
 158 211 l 1
 158 158 l 1
 0 158 l 1
263 158 m 1
 263 211 l 1
 526 211 l 1
 526 158 l 1
 263 158 l 1
0 105 m 1
 0 158 l 1
 211 158 l 1
 211 105 l 1
 0 105 l 1
316 105 m 1
 316 158 l 1
 474 158 l 1
 474 105 l 1
 316 105 l 1
53 53 m 1
 53 105 l 1
 579 105 l 1
 579 53 l 1
 53 53 l 1
158 0 m 1
 158 53 l 1
 368 53 l 1
 368 0 l 1
 158 0 l 1
421 0 m 1
 421 53 l 1
 579 53 l 1
 579 0 l 1
 421 0 l 1
EndSplineSet
EndChar

StartChar: quotesingle
Encoding: 39 39 8
Width: 579
Flags: HW
LayerCount: 2
Back
Fore
SplineSet
211 684 m 1
 211 737 l 1
 368 737 l 1
 368 684 l 1
 211 684 l 1
211 632 m 1
 211 684 l 1
 368 684 l 1
 368 632 l 1
 211 632 l 1
211 579 m 1
 211 632 l 1
 368 632 l 1
 368 579 l 1
 211 579 l 1
211 526 m 1
 211 579 l 1
 316 579 l 1
 316 526 l 1
 211 526 l 1
211 474 m 1
 211 526 l 1
 316 526 l 1
 316 474 l 1
 211 474 l 1
EndSplineSet
EndChar

StartChar: parenleft
Encoding: 40 40 9
Width: 579
Flags: HW
LayerCount: 2
Back
Fore
SplineSet
368 684 m 1
 368 737 l 1
 474 737 l 1
 474 684 l 1
 368 684 l 1
263 632 m 1
 263 684 l 1
 474 684 l 1
 474 632 l 1
 263 632 l 1
211 579 m 1
 211 632 l 1
 368 632 l 1
 368 579 l 1
 211 579 l 1
158 526 m 1
 158 579 l 1
 316 579 l 1
 316 526 l 1
 158 526 l 1
158 474 m 1
 158 526 l 1
 316 526 l 1
 316 474 l 1
 158 474 l 1
105 421 m 1
 105 474 l 1
 263 474 l 1
 263 421 l 1
 105 421 l 1
105 368 m 1
 105 421 l 1
 263 421 l 1
 263 368 l 1
 105 368 l 1
105 316 m 1
 105 368 l 1
 263 368 l 1
 263 316 l 1
 105 316 l 1
105 263 m 1
 105 316 l 1
 263 316 l 1
 263 263 l 1
 105 263 l 1
105 211 m 1
 105 263 l 1
 263 263 l 1
 263 211 l 1
 105 211 l 1
105 158 m 1
 105 211 l 1
 263 211 l 1
 263 158 l 1
 105 158 l 1
158 105 m 1
 158 158 l 1
 316 158 l 1
 316 105 l 1
 158 105 l 1
158 53 m 1
 158 105 l 1
 316 105 l 1
 316 53 l 1
 158 53 l 1
211 0 m 1
 211 53 l 1
 368 53 l 1
 368 0 l 1
 211 0 l 1
263 -53 m 1
 263 0 l 1
 474 0 l 1
 474 -53 l 1
 263 -53 l 1
368 -105 m 1
 368 -53 l 1
 474 -53 l 1
 474 -105 l 1
 368 -105 l 1
EndSplineSet
EndChar

StartChar: parenright
Encoding: 41 41 10
Width: 579
Flags: HW
LayerCount: 2
Back
Fore
SplineSet
105 684 m 1
 105 737 l 1
 211 737 l 1
 211 684 l 1
 105 684 l 1
105 632 m 1
 105 684 l 1
 316 684 l 1
 316 632 l 1
 105 632 l 1
211 579 m 1
 211 632 l 1
 368 632 l 1
 368 579 l 1
 211 579 l 1
263 526 m 1
 263 579 l 1
 421 579 l 1
 421 526 l 1
 263 526 l 1
263 474 m 1
 263 526 l 1
 421 526 l 1
 421 474 l 1
 263 474 l 1
316 421 m 1
 316 474 l 1
 474 474 l 1
 474 421 l 1
 316 421 l 1
316 368 m 1
 316 421 l 1
 474 421 l 1
 474 368 l 1
 316 368 l 1
316 316 m 1
 316 368 l 1
 474 368 l 1
 474 316 l 1
 316 316 l 1
316 263 m 1
 316 316 l 1
 474 316 l 1
 474 263 l 1
 316 263 l 1
316 211 m 1
 316 263 l 1
 474 263 l 1
 474 211 l 1
 316 211 l 1
316 158 m 1
 316 211 l 1
 474 211 l 1
 474 158 l 1
 316 158 l 1
263 105 m 1
 263 158 l 1
 421 158 l 1
 421 105 l 1
 263 105 l 1
263 53 m 1
 263 105 l 1
 421 105 l 1
 421 53 l 1
 263 53 l 1
211 0 m 1
 211 53 l 1
 368 53 l 1
 368 0 l 1
 211 0 l 1
105 -53 m 1
 105 0 l 1
 316 0 l 1
 316 -53 l 1
 105 -53 l 1
105 -105 m 1
 105 -53 l 1
 211 -53 l 1
 211 -105 l 1
 105 -105 l 1
EndSplineSet
EndChar

StartChar: asterisk
Encoding: 42 42 11
Width: 579
Flags: HW
LayerCount: 2
Back
Fore
SplineSet
263 632 m 1
 263 684 l 1
 368 684 l 1
 368 632 l 1
 263 632 l 1
263 579 m 1
 263 632 l 1
 368 632 l 1
 368 579 l 1
 263 579 l 1
105 526 m 1
 105 579 l 1
 211 579 l 1
 211 526 l 1
 105 526 l 1
263 526 m 1
 263 579 l 1
 368 579 l 1
 368 526 l 1
 263 526 l 1
421 526 m 1
 421 579 l 1
 526 579 l 1
 526 526 l 1
 421 526 l 1
105 474 m 1
 105 526 l 1
 263 526 l 1
 263 474 l 1
 105 474 l 1
368 474 m 1
 368 526 l 1
 526 526 l 1
 526 474 l 1
 368 474 l 1
263 421 m 1
 263 474 l 1
 368 474 l 1
 368 421 l 1
 263 421 l 1
158 368 m 1
 158 421 l 1
 263 421 l 1
 263 368 l 1
 158 368 l 1
368 368 m 1
 368 421 l 1
 474 421 l 1
 474 368 l 1
 368 368 l 1
158 316 m 1
 158 368 l 1
 263 368 l 1
 263 316 l 1
 158 316 l 1
368 316 m 1
 368 368 l 1
 474 368 l 1
 474 316 l 1
 368 316 l 1
EndSplineSet
EndChar

StartChar: plus
Encoding: 43 43 12
Width: 579
Flags: HW
LayerCount: 2
Back
Fore
SplineSet
263 526 m 1
 263 579 l 1
 368 579 l 1
 368 526 l 1
 263 526 l 1
263 474 m 1
 263 526 l 1
 368 526 l 1
 368 474 l 1
 263 474 l 1
263 421 m 1
 263 474 l 1
 368 474 l 1
 368 421 l 1
 263 421 l 1
263 368 m 1
 263 421 l 1
 368 421 l 1
 368 368 l 1
 263 368 l 1
53 316 m 1
 53 368 l 1
 579 368 l 1
 579 316 l 1
 53 316 l 1
53 263 m 1
 53 316 l 1
 579 316 l 1
 579 263 l 1
 53 263 l 1
263 211 m 1
 263 263 l 1
 368 263 l 1
 368 211 l 1
 263 211 l 1
263 158 m 1
 263 211 l 1
 368 211 l 1
 368 158 l 1
 263 158 l 1
263 105 m 1
 263 158 l 1
 368 158 l 1
 368 105 l 1
 263 105 l 1
263 53 m 1
 263 105 l 1
 368 105 l 1
 368 53 l 1
 263 53 l 1
EndSplineSet
EndChar

StartChar: comma
Encoding: 44 44 13
Width: 579
Flags: HW
LayerCount: 2
Back
Fore
SplineSet
158 105 m 1
 158 158 l 1
 368 158 l 1
 368 105 l 1
 158 105 l 1
158 53 m 1
 158 105 l 1
 368 105 l 1
 368 53 l 1
 158 53 l 1
158 0 m 1
 158 53 l 1
 368 53 l 1
 368 0 l 1
 158 0 l 1
263 -53 m 1
 263 0 l 1
 368 0 l 1
 368 -53 l 1
 263 -53 l 1
158 -105 m 1
 158 -53 l 1
 316 -53 l 1
 316 -105 l 1
 158 -105 l 1
EndSplineSet
EndChar

StartChar: period
Encoding: 46 46 15
Width: 579
Flags: HW
LayerCount: 2
Back
Fore
SplineSet
211 105 m 1
 211 158 l 1
 421 158 l 1
 421 105 l 1
 211 105 l 1
211 53 m 1
 211 105 l 1
 421 105 l 1
 421 53 l 1
 211 53 l 1
211 0 m 1
 211 53 l 1
 421 53 l 1
 421 0 l 1
 211 0 l 1
EndSplineSet
EndChar

StartChar: slash
Encoding: 47 47 16
Width: 579
Flags: HW
LayerCount: 2
Back
Fore
SplineSet
368 684 m 1
 368 737 l 1
 526 737 l 1
 526 684 l 1
 368 684 l 1
368 632 m 1
 368 684 l 1
 526 684 l 1
 526 632 l 1
 368 632 l 1
316 579 m 1
 316 632 l 1
 474 632 l 1
 474 579 l 1
 316 579 l 1
316 526 m 1
 316 579 l 1
 474 579 l 1
 474 526 l 1
 316 526 l 1
263 474 m 1
 263 526 l 1
 421 526 l 1
 421 474 l 1
 263 474 l 1
263 421 m 1
 263 474 l 1
 421 474 l 1
 421 421 l 1
 263 421 l 1
263 368 m 1
 263 421 l 1
 421 421 l 1
 421 368 l 1
 263 368 l 1
211 316 m 1
 211 368 l 1
 368 368 l 1
 368 316 l 1
 211 316 l 1
211 263 m 1
 211 316 l 1
 368 316 l 1
 368 263 l 1
 211 263 l 1
158 211 m 1
 158 263 l 1
 316 263 l 1
 316 211 l 1
 158 211 l 1
158 158 m 1
 158 211 l 1
 316 211 l 1
 316 158 l 1
 158 158 l 1
158 105 m 1
 158 158 l 1
 316 158 l 1
 316 105 l 1
 158 105 l 1
105 53 m 1
 105 105 l 1
 263 105 l 1
 263 53 l 1
 105 53 l 1
105 0 m 1
 105 53 l 1
 263 53 l 1
 263 0 l 1
 105 0 l 1
53 -53 m 1
 53 0 l 1
 211 0 l 1
 211 -53 l 1
 53 -53 l 1
53 -105 m 1
 53 -53 l 1
 211 -53 l 1
 211 -105 l 1
 53 -105 l 1
EndSplineSet
EndChar

StartChar: zero
Encoding: 48 48 17
Width: 579
Flags: HW
LayerCount: 2
Back
Fore
SplineSet
211 632 m 1
 211 684 l 1
 421 684 l 1
 421 632 l 1
 211 632 l 1
105 579 m 1
 105 632 l 1
 526 632 l 1
 526 579 l 1
 105 579 l 1
105 526 m 1
 105 579 l 1
 263 579 l 1
 263 526 l 1
 105 526 l 1
368 526 m 1
 368 579 l 1
 526 579 l 1
 526 526 l 1
 368 526 l 1
53 474 m 1
 53 526 l 1
 211 526 l 1
 211 474 l 1
 53 474 l 1
421 474 m 1
 421 526 l 1
 579 526 l 1
 579 474 l 1
 421 474 l 1
53 421 m 1
 53 474 l 1
 211 474 l 1
 211 421 l 1
 53 421 l 1
421 421 m 1
 421 474 l 1
 579 474 l 1
 579 421 l 1
 421 421 l 1
53 368 m 1
 53 421 l 1
 211 421 l 1
 211 368 l 1
 53 368 l 1
421 368 m 1
 421 421 l 1
 579 421 l 1
 579 368 l 1
 421 368 l 1
53 316 m 1
 53 368 l 1
 211 368 l 1
 211 316 l 1
 53 316 l 1
421 316 m 1
 421 368 l 1
 579 368 l 1
 579 316 l 1
 421 316 l 1
53 263 m 1
 53 316 l 1
 211 316 l 1
 211 263 l 1
 53 263 l 1
421 263 m 1
 421 316 l 1
 579 316 l 1
 579 263 l 1
 421 263 l 1
53 211 m 1
 53 263 l 1
 211 263 l 1
 211 211 l 1
 53 211 l 1
421 211 m 1
 421 263 l 1
 579 263 l 1
 579 211 l 1
 421 211 l 1
53 158 m 1
 53 211 l 1
 211 211 l 1
 211 158 l 1
 53 158 l 1
421 158 m 1
 421 211 l 1
 579 211 l 1
 579 158 l 1
 421 158 l 1
105 105 m 1
 105 158 l 1
 263 158 l 1
 263 105 l 1
 105 105 l 1
368 105 m 1
 368 158 l 1
 526 158 l 1
 526 105 l 1
 368 105 l 1
105 53 m 1
 105 105 l 1
 526 105 l 1
 526 53 l 1
 105 53 l 1
211 0 m 1
 211 53 l 1
 421 53 l 1
 421 0 l 1
 211 0 l 1
EndSplineSet
EndChar

StartChar: one
Encoding: 49 49 18
Width: 579
Flags: HW
LayerCount: 2
Back
Fore
SplineSet
263 632 m 1
 263 684 l 1
 368 684 l 1
 368 632 l 1
 263 632 l 1
53 579 m 1
 53 632 l 1
 368 632 l 1
 368 579 l 1
 53 579 l 1
53 526 m 1
 53 579 l 1
 368 579 l 1
 368 526 l 1
 53 526 l 1
211 474 m 1
 211 526 l 1
 368 526 l 1
 368 474 l 1
 211 474 l 1
211 421 m 1
 211 474 l 1
 368 474 l 1
 368 421 l 1
 211 421 l 1
211 368 m 1
 211 421 l 1
 368 421 l 1
 368 368 l 1
 211 368 l 1
211 316 m 1
 211 368 l 1
 368 368 l 1
 368 316 l 1
 211 316 l 1
211 263 m 1
 211 316 l 1
 368 316 l 1
 368 263 l 1
 211 263 l 1
211 211 m 1
 211 263 l 1
 368 263 l 1
 368 211 l 1
 211 211 l 1
211 158 m 1
 211 211 l 1
 368 211 l 1
 368 158 l 1
 211 158 l 1
211 105 m 1
 211 158 l 1
 368 158 l 1
 368 105 l 1
 211 105 l 1
211 53 m 1
 211 105 l 1
 368 105 l 1
 368 53 l 1
 211 53 l 1
211 0 m 1
 211 53 l 1
 368 53 l 1
 368 0 l 1
 211 0 l 1
EndSplineSet
EndChar

StartChar: two
Encoding: 50 50 19
Width: 579
Flags: HW
LayerCount: 2
Back
Fore
SplineSet
105 632 m 1
 105 684 l 1
 368 684 l 1
 368 632 l 1
 105 632 l 1
53 579 m 1
 53 632 l 1
 421 632 l 1
 421 579 l 1
 53 579 l 1
53 526 m 1
 53 579 l 1
 158 579 l 1
 158 526 l 1
 53 526 l 1
316 526 m 1
 316 579 l 1
 474 579 l 1
 474 526 l 1
 316 526 l 1
316 474 m 1
 316 526 l 1
 474 526 l 1
 474 474 l 1
 316 474 l 1
316 421 m 1
 316 474 l 1
 474 474 l 1
 474 421 l 1
 316 421 l 1
263 368 m 1
 263 421 l 1
 421 421 l 1
 421 368 l 1
 263 368 l 1
211 316 m 1
 211 368 l 1
 368 368 l 1
 368 316 l 1
 211 316 l 1
158 263 m 1
 158 316 l 1
 316 316 l 1
 316 263 l 1
 158 263 l 1
105 211 m 1
 105 263 l 1
 263 263 l 1
 263 211 l 1
 105 211 l 1
53 158 m 1
 53 211 l 1
 211 211 l 1
 211 158 l 1
 53 158 l 1
53 105 m 1
 53 158 l 1
 474 158 l 1
 474 105 l 1
 53 105 l 1
53 53 m 1
 53 105 l 1
 474 105 l 1
 474 53 l 1
 53 53 l 1
53 0 m 1
 53 53 l 1
 474 53 l 1
 474 0 l 1
 53 0 l 1
EndSplineSet
EndChar

StartChar: three
Encoding: 51 51 20
Width: 579
Flags: HW
LayerCount: 2
Back
Fore
SplineSet
158 632 m 1
 158 684 l 1
 421 684 l 1
 421 632 l 1
 158 632 l 1
105 579 m 1
 105 632 l 1
 474 632 l 1
 474 579 l 1
 105 579 l 1
105 526 m 1
 105 579 l 1
 211 579 l 1
 211 526 l 1
 105 526 l 1
368 526 m 1
 368 579 l 1
 526 579 l 1
 526 526 l 1
 368 526 l 1
368 474 m 1
 368 526 l 1
 526 526 l 1
 526 474 l 1
 368 474 l 1
316 421 m 1
 316 474 l 1
 474 474 l 1
 474 421 l 1
 316 421 l 1
158 368 m 1
 158 421 l 1
 368 421 l 1
 368 368 l 1
 158 368 l 1
158 316 m 1
 158 368 l 1
 421 368 l 1
 421 316 l 1
 158 316 l 1
316 263 m 1
 316 316 l 1
 474 316 l 1
 474 263 l 1
 316 263 l 1
368 211 m 1
 368 263 l 1
 526 263 l 1
 526 211 l 1
 368 211 l 1
368 158 m 1
 368 211 l 1
 526 211 l 1
 526 158 l 1
 368 158 l 1
105 105 m 1
 105 158 l 1
 211 158 l 1
 211 105 l 1
 105 105 l 1
316 105 m 1
 316 158 l 1
 526 158 l 1
 526 105 l 1
 316 105 l 1
105 53 m 1
 105 105 l 1
 474 105 l 1
 474 53 l 1
 105 53 l 1
158 0 m 1
 158 53 l 1
 368 53 l 1
 368 0 l 1
 158 0 l 1
EndSplineSet
EndChar

StartChar: four
Encoding: 52 52 21
Width: 579
Flags: HW
LayerCount: 2
Back
Fore
SplineSet
263 632 m 1
 263 684 l 1
 421 684 l 1
 421 632 l 1
 263 632 l 1
211 579 m 1
 211 632 l 1
 421 632 l 1
 421 579 l 1
 211 579 l 1
158 526 m 1
 158 579 l 1
 421 579 l 1
 421 526 l 1
 158 526 l 1
105 474 m 1
 105 526 l 1
 211 526 l 1
 211 474 l 1
 105 474 l 1
263 474 m 1
 263 526 l 1
 421 526 l 1
 421 474 l 1
 263 474 l 1
105 421 m 1
 105 474 l 1
 211 474 l 1
 211 421 l 1
 105 421 l 1
263 421 m 1
 263 474 l 1
 421 474 l 1
 421 421 l 1
 263 421 l 1
53 368 m 1
 53 421 l 1
 158 421 l 1
 158 368 l 1
 53 368 l 1
263 368 m 1
 263 421 l 1
 421 421 l 1
 421 368 l 1
 263 368 l 1
0 316 m 1
 0 368 l 1
 105 368 l 1
 105 316 l 1
 0 316 l 1
263 316 m 1
 263 368 l 1
 421 368 l 1
 421 316 l 1
 263 316 l 1
0 263 m 1
 0 316 l 1
 526 316 l 1
 526 263 l 1
 0 263 l 1
0 211 m 1
 0 263 l 1
 526 263 l 1
 526 211 l 1
 0 211 l 1
263 158 m 1
 263 211 l 1
 421 211 l 1
 421 158 l 1
 263 158 l 1
263 105 m 1
 263 158 l 1
 421 158 l 1
 421 105 l 1
 263 105 l 1
263 53 m 1
 263 105 l 1
 421 105 l 1
 421 53 l 1
 263 53 l 1
263 0 m 1
 263 53 l 1
 421 53 l 1
 421 0 l 1
 263 0 l 1
EndSplineSet
EndChar

StartChar: five
Encoding: 53 53 22
Width: 579
Flags: HW
LayerCount: 2
Back
Fore
SplineSet
105 632 m 1
 105 684 l 1
 526 684 l 1
 526 632 l 1
 105 632 l 1
105 579 m 1
 105 632 l 1
 526 632 l 1
 526 579 l 1
 105 579 l 1
105 526 m 1
 105 579 l 1
 526 579 l 1
 526 526 l 1
 105 526 l 1
105 474 m 1
 105 526 l 1
 211 526 l 1
 211 474 l 1
 105 474 l 1
105 421 m 1
 105 474 l 1
 211 474 l 1
 211 421 l 1
 105 421 l 1
105 368 m 1
 105 421 l 1
 368 421 l 1
 368 368 l 1
 105 368 l 1
105 316 m 1
 105 368 l 1
 474 368 l 1
 474 316 l 1
 105 316 l 1
316 263 m 1
 316 316 l 1
 526 316 l 1
 526 263 l 1
 316 263 l 1
368 211 m 1
 368 263 l 1
 526 263 l 1
 526 211 l 1
 368 211 l 1
368 158 m 1
 368 211 l 1
 526 211 l 1
 526 158 l 1
 368 158 l 1
105 105 m 1
 105 158 l 1
 211 158 l 1
 211 105 l 1
 105 105 l 1
368 105 m 1
 368 158 l 1
 526 158 l 1
 526 105 l 1
 368 105 l 1
105 53 m 1
 105 105 l 1
 474 105 l 1
 474 53 l 1
 105 53 l 1
158 0 m 1
 158 53 l 1
 368 53 l 1
 368 0 l 1
 158 0 l 1
EndSplineSet
EndChar

StartChar: six
Encoding: 54 54 23
Width: 579
Flags: HW
LayerCount: 2
Back
Fore
SplineSet
211 632 m 1
 211 684 l 1
 474 684 l 1
 474 632 l 1
 211 632 l 1
105 579 m 1
 105 632 l 1
 526 632 l 1
 526 579 l 1
 105 579 l 1
105 526 m 1
 105 579 l 1
 211 579 l 1
 211 526 l 1
 105 526 l 1
421 526 m 1
 421 579 l 1
 526 579 l 1
 526 526 l 1
 421 526 l 1
53 474 m 1
 53 526 l 1
 211 526 l 1
 211 474 l 1
 53 474 l 1
53 421 m 1
 53 474 l 1
 211 474 l 1
 211 421 l 1
 53 421 l 1
263 421 m 1
 263 474 l 1
 421 474 l 1
 421 421 l 1
 263 421 l 1
53 368 m 1
 53 421 l 1
 474 421 l 1
 474 368 l 1
 53 368 l 1
53 316 m 1
 53 368 l 1
 263 368 l 1
 263 316 l 1
 53 316 l 1
316 316 m 1
 316 368 l 1
 526 368 l 1
 526 316 l 1
 316 316 l 1
53 263 m 1
 53 316 l 1
 211 316 l 1
 211 263 l 1
 53 263 l 1
368 263 m 1
 368 316 l 1
 526 316 l 1
 526 263 l 1
 368 263 l 1
53 211 m 1
 53 263 l 1
 211 263 l 1
 211 211 l 1
 53 211 l 1
368 211 m 1
 368 263 l 1
 526 263 l 1
 526 211 l 1
 368 211 l 1
53 158 m 1
 53 211 l 1
 211 211 l 1
 211 158 l 1
 53 158 l 1
368 158 m 1
 368 211 l 1
 526 211 l 1
 526 158 l 1
 368 158 l 1
105 105 m 1
 105 158 l 1
 263 158 l 1
 263 105 l 1
 105 105 l 1
368 105 m 1
 368 158 l 1
 526 158 l 1
 526 105 l 1
 368 105 l 1
105 53 m 1
 105 105 l 1
 474 105 l 1
 474 53 l 1
 105 53 l 1
211 0 m 1
 211 53 l 1
 421 53 l 1
 421 0 l 1
 211 0 l 1
EndSplineSet
EndChar

StartChar: seven
Encoding: 55 55 24
Width: 579
Flags: HW
LayerCount: 2
Back
Fore
SplineSet
53 632 m 1
 53 684 l 1
 526 684 l 1
 526 632 l 1
 53 632 l 1
53 579 m 1
 53 632 l 1
 526 632 l 1
 526 579 l 1
 53 579 l 1
53 526 m 1
 53 579 l 1
 526 579 l 1
 526 526 l 1
 53 526 l 1
368 474 m 1
 368 526 l 1
 526 526 l 1
 526 474 l 1
 368 474 l 1
368 421 m 1
 368 474 l 1
 526 474 l 1
 526 421 l 1
 368 421 l 1
316 368 m 1
 316 421 l 1
 474 421 l 1
 474 368 l 1
 316 368 l 1
263 316 m 1
 263 368 l 1
 421 368 l 1
 421 316 l 1
 263 316 l 1
211 263 m 1
 211 316 l 1
 368 316 l 1
 368 263 l 1
 211 263 l 1
158 211 m 1
 158 263 l 1
 316 263 l 1
 316 211 l 1
 158 211 l 1
158 158 m 1
 158 211 l 1
 316 211 l 1
 316 158 l 1
 158 158 l 1
105 105 m 1
 105 158 l 1
 263 158 l 1
 263 105 l 1
 105 105 l 1
105 53 m 1
 105 105 l 1
 263 105 l 1
 263 53 l 1
 105 53 l 1
105 0 m 1
 105 53 l 1
 263 53 l 1
 263 0 l 1
 105 0 l 1
EndSplineSet
EndChar

StartChar: eight
Encoding: 56 56 25
Width: 579
Flags: HW
LayerCount: 2
Back
Fore
SplineSet
158 632 m 1
 158 684 l 1
 421 684 l 1
 421 632 l 1
 158 632 l 1
105 579 m 1
 105 632 l 1
 474 632 l 1
 474 579 l 1
 105 579 l 1
53 526 m 1
 53 579 l 1
 211 579 l 1
 211 526 l 1
 53 526 l 1
368 526 m 1
 368 579 l 1
 526 579 l 1
 526 526 l 1
 368 526 l 1
53 474 m 1
 53 526 l 1
 211 526 l 1
 211 474 l 1
 53 474 l 1
368 474 m 1
 368 526 l 1
 526 526 l 1
 526 474 l 1
 368 474 l 1
53 421 m 1
 53 474 l 1
 263 474 l 1
 263 421 l 1
 53 421 l 1
368 421 m 1
 368 474 l 1
 474 474 l 1
 474 421 l 1
 368 421 l 1
105 368 m 1
 105 421 l 1
 421 421 l 1
 421 368 l 1
 105 368 l 1
158 316 m 1
 158 368 l 1
 421 368 l 1
 421 316 l 1
 158 316 l 1
105 263 m 1
 105 316 l 1
 211 316 l 1
 211 263 l 1
 105 263 l 1
263 263 m 1
 263 316 l 1
 474 316 l 1
 474 263 l 1
 263 263 l 1
53 211 m 1
 53 263 l 1
 211 263 l 1
 211 211 l 1
 53 211 l 1
316 211 m 1
 316 263 l 1
 526 263 l 1
 526 211 l 1
 316 211 l 1
53 158 m 1
 53 211 l 1
 211 211 l 1
 211 158 l 1
 53 158 l 1
368 158 m 1
 368 211 l 1
 526 211 l 1
 526 158 l 1
 368 158 l 1
53 105 m 1
 53 158 l 1
 211 158 l 1
 211 105 l 1
 53 105 l 1
368 105 m 1
 368 158 l 1
 526 158 l 1
 526 105 l 1
 368 105 l 1
105 53 m 1
 105 105 l 1
 474 105 l 1
 474 53 l 1
 105 53 l 1
158 0 m 1
 158 53 l 1
 421 53 l 1
 421 0 l 1
 158 0 l 1
EndSplineSet
EndChar

StartChar: nine
Encoding: 57 57 26
Width: 579
Flags: HW
LayerCount: 2
Back
Fore
SplineSet
158 632 m 1
 158 684 l 1
 368 684 l 1
 368 632 l 1
 158 632 l 1
105 579 m 1
 105 632 l 1
 474 632 l 1
 474 579 l 1
 105 579 l 1
53 526 m 1
 53 579 l 1
 211 579 l 1
 211 526 l 1
 53 526 l 1
316 526 m 1
 316 579 l 1
 474 579 l 1
 474 526 l 1
 316 526 l 1
53 474 m 1
 53 526 l 1
 211 526 l 1
 211 474 l 1
 53 474 l 1
368 474 m 1
 368 526 l 1
 526 526 l 1
 526 474 l 1
 368 474 l 1
53 421 m 1
 53 474 l 1
 211 474 l 1
 211 421 l 1
 53 421 l 1
368 421 m 1
 368 474 l 1
 526 474 l 1
 526 421 l 1
 368 421 l 1
53 368 m 1
 53 421 l 1
 211 421 l 1
 211 368 l 1
 53 368 l 1
368 368 m 1
 368 421 l 1
 526 421 l 1
 526 368 l 1
 368 368 l 1
53 316 m 1
 53 368 l 1
 263 368 l 1
 263 316 l 1
 53 316 l 1
316 316 m 1
 316 368 l 1
 526 368 l 1
 526 316 l 1
 316 316 l 1
105 263 m 1
 105 316 l 1
 526 316 l 1
 526 263 l 1
 105 263 l 1
158 211 m 1
 158 263 l 1
 316 263 l 1
 316 211 l 1
 158 211 l 1
368 211 m 1
 368 263 l 1
 526 263 l 1
 526 211 l 1
 368 211 l 1
368 158 m 1
 368 211 l 1
 526 211 l 1
 526 158 l 1
 368 158 l 1
105 105 m 1
 105 158 l 1
 211 158 l 1
 211 105 l 1
 105 105 l 1
368 105 m 1
 368 158 l 1
 474 158 l 1
 474 105 l 1
 368 105 l 1
105 53 m 1
 105 105 l 1
 474 105 l 1
 474 53 l 1
 105 53 l 1
158 0 m 1
 158 53 l 1
 368 53 l 1
 368 0 l 1
 158 0 l 1
EndSplineSet
EndChar

StartChar: colon
Encoding: 58 58 27
Width: 579
Flags: HW
LayerCount: 2
Back
Fore
SplineSet
211 474 m 1
 211 526 l 1
 368 526 l 1
 368 474 l 1
 211 474 l 1
211 421 m 1
 211 474 l 1
 368 474 l 1
 368 421 l 1
 211 421 l 1
211 368 m 1
 211 421 l 1
 368 421 l 1
 368 368 l 1
 211 368 l 1
211 105 m 1
 211 158 l 1
 368 158 l 1
 368 105 l 1
 211 105 l 1
211 53 m 1
 211 105 l 1
 368 105 l 1
 368 53 l 1
 211 53 l 1
211 0 m 1
 211 53 l 1
 368 53 l 1
 368 0 l 1
 211 0 l 1
EndSplineSet
EndChar

StartChar: semicolon
Encoding: 59 59 28
Width: 579
Flags: HW
LayerCount: 2
Back
Fore
SplineSet
211 474 m 1
 211 526 l 1
 368 526 l 1
 368 474 l 1
 211 474 l 1
211 421 m 1
 211 474 l 1
 368 474 l 1
 368 421 l 1
 211 421 l 1
211 368 m 1
 211 421 l 1
 368 421 l 1
 368 368 l 1
 211 368 l 1
211 105 m 1
 211 158 l 1
 368 158 l 1
 368 105 l 1
 211 105 l 1
211 53 m 1
 211 105 l 1
 368 105 l 1
 368 53 l 1
 211 53 l 1
211 0 m 1
 211 53 l 1
 368 53 l 1
 368 0 l 1
 211 0 l 1
263 -53 m 1
 263 0 l 1
 368 0 l 1
 368 -53 l 1
 263 -53 l 1
211 -105 m 1
 211 -53 l 1
 316 -53 l 1
 316 -105 l 1
 211 -105 l 1
EndSplineSet
EndChar

StartChar: less
Encoding: 60 60 29
Width: 579
Flags: HW
LayerCount: 2
Back
Fore
SplineSet
421 526 m 1
 421 579 l 1
 526 579 l 1
 526 526 l 1
 421 526 l 1
316 474 m 1
 316 526 l 1
 526 526 l 1
 526 474 l 1
 316 474 l 1
211 421 m 1
 211 474 l 1
 421 474 l 1
 421 421 l 1
 211 421 l 1
105 368 m 1
 105 421 l 1
 316 421 l 1
 316 368 l 1
 105 368 l 1
0 316 m 1
 0 368 l 1
 158 368 l 1
 158 316 l 1
 0 316 l 1
0 263 m 1
 0 316 l 1
 158 316 l 1
 158 263 l 1
 0 263 l 1
105 211 m 1
 105 263 l 1
 316 263 l 1
 316 211 l 1
 105 211 l 1
211 158 m 1
 211 211 l 1
 421 211 l 1
 421 158 l 1
 211 158 l 1
316 105 m 1
 316 158 l 1
 526 158 l 1
 526 105 l 1
 316 105 l 1
421 53 m 1
 421 105 l 1
 526 105 l 1
 526 53 l 1
 421 53 l 1
EndSplineSet
EndChar

StartChar: equal
Encoding: 61 61 30
Width: 579
Flags: HW
LayerCount: 2
Back
Fore
SplineSet
53 421 m 1
 53 474 l 1
 579 474 l 1
 579 421 l 1
 53 421 l 1
53 368 m 1
 53 421 l 1
 579 421 l 1
 579 368 l 1
 53 368 l 1
53 211 m 1
 53 263 l 1
 579 263 l 1
 579 211 l 1
 53 211 l 1
53 158 m 1
 53 211 l 1
 579 211 l 1
 579 158 l 1
 53 158 l 1
EndSplineSet
EndChar

StartChar: greater
Encoding: 62 62 31
Width: 579
Flags: HW
LayerCount: 2
Back
Fore
SplineSet
53 526 m 1
 53 579 l 1
 158 579 l 1
 158 526 l 1
 53 526 l 1
53 474 m 1
 53 526 l 1
 263 526 l 1
 263 474 l 1
 53 474 l 1
158 421 m 1
 158 474 l 1
 368 474 l 1
 368 421 l 1
 158 421 l 1
263 368 m 1
 263 421 l 1
 474 421 l 1
 474 368 l 1
 263 368 l 1
421 316 m 1
 421 368 l 1
 579 368 l 1
 579 316 l 1
 421 316 l 1
421 263 m 1
 421 316 l 1
 579 316 l 1
 579 263 l 1
 421 263 l 1
263 211 m 1
 263 263 l 1
 474 263 l 1
 474 211 l 1
 263 211 l 1
158 158 m 1
 158 211 l 1
 368 211 l 1
 368 158 l 1
 158 158 l 1
53 105 m 1
 53 158 l 1
 263 158 l 1
 263 105 l 1
 53 105 l 1
53 53 m 1
 53 105 l 1
 158 105 l 1
 158 53 l 1
 53 53 l 1
EndSplineSet
EndChar

StartChar: question
Encoding: 63 63 32
Width: 579
Flags: HW
LayerCount: 2
Back
Fore
SplineSet
105 632 m 1
 105 684 l 1
 421 684 l 1
 421 632 l 1
 105 632 l 1
53 579 m 1
 53 632 l 1
 474 632 l 1
 474 579 l 1
 53 579 l 1
53 526 m 1
 53 579 l 1
 158 579 l 1
 158 526 l 1
 53 526 l 1
368 526 m 1
 368 579 l 1
 526 579 l 1
 526 526 l 1
 368 526 l 1
368 474 m 1
 368 526 l 1
 526 526 l 1
 526 474 l 1
 368 474 l 1
316 421 m 1
 316 474 l 1
 474 474 l 1
 474 421 l 1
 316 421 l 1
211 368 m 1
 211 421 l 1
 421 421 l 1
 421 368 l 1
 211 368 l 1
158 316 m 1
 158 368 l 1
 316 368 l 1
 316 316 l 1
 158 316 l 1
158 263 m 1
 158 316 l 1
 263 316 l 1
 263 263 l 1
 158 263 l 1
158 105 m 1
 158 158 l 1
 316 158 l 1
 316 105 l 1
 158 105 l 1
158 53 m 1
 158 105 l 1
 316 105 l 1
 316 53 l 1
 158 53 l 1
158 0 m 1
 158 53 l 1
 316 53 l 1
 316 0 l 1
 158 0 l 1
EndSplineSet
EndChar

StartChar: at
Encoding: 64 64 33
Width: 579
Flags: HW
LayerCount: 2
Back
Fore
SplineSet
211 632 m 1
 211 684 l 1
 421 684 l 1
 421 632 l 1
 211 632 l 1
105 579 m 1
 105 632 l 1
 263 632 l 1
 263 579 l 1
 105 579 l 1
368 579 m 1
 368 632 l 1
 474 632 l 1
 474 579 l 1
 368 579 l 1
53 526 m 1
 53 579 l 1
 158 579 l 1
 158 526 l 1
 53 526 l 1
421 526 m 1
 421 579 l 1
 526 579 l 1
 526 526 l 1
 421 526 l 1
53 474 m 1
 53 526 l 1
 158 526 l 1
 158 474 l 1
 53 474 l 1
263 474 m 1
 263 526 l 1
 526 526 l 1
 526 474 l 1
 263 474 l 1
0 421 m 1
 0 474 l 1
 105 474 l 1
 105 421 l 1
 0 421 l 1
211 421 m 1
 211 474 l 1
 316 474 l 1
 316 421 l 1
 211 421 l 1
421 421 m 1
 421 474 l 1
 526 474 l 1
 526 421 l 1
 421 421 l 1
0 368 m 1
 0 421 l 1
 105 421 l 1
 105 368 l 1
 0 368 l 1
211 368 m 1
 211 421 l 1
 316 421 l 1
 316 368 l 1
 211 368 l 1
421 368 m 1
 421 421 l 1
 526 421 l 1
 526 368 l 1
 421 368 l 1
0 316 m 1
 0 368 l 1
 105 368 l 1
 105 316 l 1
 0 316 l 1
211 316 m 1
 211 368 l 1
 316 368 l 1
 316 316 l 1
 211 316 l 1
421 316 m 1
 421 368 l 1
 526 368 l 1
 526 316 l 1
 421 316 l 1
0 263 m 1
 0 316 l 1
 105 316 l 1
 105 263 l 1
 0 263 l 1
211 263 m 1
 211 316 l 1
 316 316 l 1
 316 263 l 1
 211 263 l 1
421 263 m 1
 421 316 l 1
 526 316 l 1
 526 263 l 1
 421 263 l 1
0 211 m 1
 0 263 l 1
 105 263 l 1
 105 211 l 1
 0 211 l 1
211 211 m 1
 211 263 l 1
 526 263 l 1
 526 211 l 1
 211 211 l 1
53 158 m 1
 53 211 l 1
 158 211 l 1
 158 158 l 1
 53 158 l 1
263 158 m 1
 263 211 l 1
 368 211 l 1
 368 158 l 1
 263 158 l 1
474 158 m 1
 474 211 l 1
 579 211 l 1
 579 158 l 1
 474 158 l 1
53 105 m 1
 53 158 l 1
 158 158 l 1
 158 105 l 1
 53 105 l 1
105 53 m 1
 105 105 l 1
 263 105 l 1
 263 53 l 1
 105 53 l 1
211 0 m 1
 211 53 l 1
 474 53 l 1
 474 0 l 1
 211 0 l 1
EndSplineSet
EndChar

StartChar: A
Encoding: 65 65 34
Width: 579
Flags: HW
LayerCount: 2
Back
Fore
SplineSet
211 632 m 1
 211 684 l 1
 368 684 l 1
 368 632 l 1
 211 632 l 1
211 579 m 1
 211 632 l 1
 368 632 l 1
 368 579 l 1
 211 579 l 1
158 526 m 1
 158 579 l 1
 421 579 l 1
 421 526 l 1
 158 526 l 1
158 474 m 1
 158 526 l 1
 211 526 l 1
 211 474 l 1
 158 474 l 1
316 474 m 1
 316 526 l 1
 421 526 l 1
 421 474 l 1
 316 474 l 1
105 421 m 1
 105 474 l 1
 211 474 l 1
 211 421 l 1
 105 421 l 1
316 421 m 1
 316 474 l 1
 474 474 l 1
 474 421 l 1
 316 421 l 1
105 368 m 1
 105 421 l 1
 211 421 l 1
 211 368 l 1
 105 368 l 1
316 368 m 1
 316 421 l 1
 474 421 l 1
 474 368 l 1
 316 368 l 1
53 316 m 1
 53 368 l 1
 158 368 l 1
 158 316 l 1
 53 316 l 1
368 316 m 1
 368 368 l 1
 526 368 l 1
 526 316 l 1
 368 316 l 1
53 263 m 1
 53 316 l 1
 526 316 l 1
 526 263 l 1
 53 263 l 1
53 211 m 1
 53 263 l 1
 526 263 l 1
 526 211 l 1
 53 211 l 1
0 158 m 1
 0 211 l 1
 158 211 l 1
 158 158 l 1
 0 158 l 1
421 158 m 1
 421 211 l 1
 579 211 l 1
 579 158 l 1
 421 158 l 1
0 105 m 1
 0 158 l 1
 158 158 l 1
 158 105 l 1
 0 105 l 1
421 105 m 1
 421 158 l 1
 579 158 l 1
 579 105 l 1
 421 105 l 1
0 53 m 1
 0 105 l 1
 158 105 l 1
 158 53 l 1
 0 53 l 1
421 53 m 1
 421 105 l 1
 579 105 l 1
 579 53 l 1
 421 53 l 1
0 0 m 1
 0 53 l 1
 158 53 l 1
 158 0 l 1
 0 0 l 1
421 0 m 1
 421 53 l 1
 579 53 l 1
 579 0 l 1
 421 0 l 1
EndSplineSet
EndChar

StartChar: B
Encoding: 66 66 35
Width: 579
Flags: HW
LayerCount: 2
Back
Fore
SplineSet
53 632 m 1
 53 684 l 1
 421 684 l 1
 421 632 l 1
 53 632 l 1
53 579 m 1
 53 632 l 1
 474 632 l 1
 474 579 l 1
 53 579 l 1
53 526 m 1
 53 579 l 1
 211 579 l 1
 211 526 l 1
 53 526 l 1
316 526 m 1
 316 579 l 1
 474 579 l 1
 474 526 l 1
 316 526 l 1
53 474 m 1
 53 526 l 1
 211 526 l 1
 211 474 l 1
 53 474 l 1
316 474 m 1
 316 526 l 1
 474 526 l 1
 474 474 l 1
 316 474 l 1
53 421 m 1
 53 474 l 1
 211 474 l 1
 211 421 l 1
 53 421 l 1
316 421 m 1
 316 474 l 1
 421 474 l 1
 421 421 l 1
 316 421 l 1
53 368 m 1
 53 421 l 1
 368 421 l 1
 368 368 l 1
 53 368 l 1
53 316 m 1
 53 368 l 1
 421 368 l 1
 421 316 l 1
 53 316 l 1
53 263 m 1
 53 316 l 1
 211 316 l 1
 211 263 l 1
 53 263 l 1
316 263 m 1
 316 316 l 1
 474 316 l 1
 474 263 l 1
 316 263 l 1
53 211 m 1
 53 263 l 1
 211 263 l 1
 211 211 l 1
 53 211 l 1
368 211 m 1
 368 263 l 1
 526 263 l 1
 526 211 l 1
 368 211 l 1
53 158 m 1
 53 211 l 1
 211 211 l 1
 211 158 l 1
 53 158 l 1
368 158 m 1
 368 211 l 1
 526 211 l 1
 526 158 l 1
 368 158 l 1
53 105 m 1
 53 158 l 1
 211 158 l 1
 211 105 l 1
 53 105 l 1
316 105 m 1
 316 158 l 1
 526 158 l 1
 526 105 l 1
 316 105 l 1
53 53 m 1
 53 105 l 1
 474 105 l 1
 474 53 l 1
 53 53 l 1
53 0 m 1
 53 53 l 1
 368 53 l 1
 368 0 l 1
 53 0 l 1
EndSplineSet
EndChar

StartChar: C
Encoding: 67 67 36
Width: 579
Flags: HW
LayerCount: 2
Back
Fore
SplineSet
211 632 m 1
 211 684 l 1
 474 684 l 1
 474 632 l 1
 211 632 l 1
105 579 m 1
 105 632 l 1
 526 632 l 1
 526 579 l 1
 105 579 l 1
53 526 m 1
 53 579 l 1
 263 579 l 1
 263 526 l 1
 53 526 l 1
421 526 m 1
 421 579 l 1
 526 579 l 1
 526 526 l 1
 421 526 l 1
53 474 m 1
 53 526 l 1
 211 526 l 1
 211 474 l 1
 53 474 l 1
0 421 m 1
 0 474 l 1
 158 474 l 1
 158 421 l 1
 0 421 l 1
0 368 m 1
 0 421 l 1
 158 421 l 1
 158 368 l 1
 0 368 l 1
0 316 m 1
 0 368 l 1
 158 368 l 1
 158 316 l 1
 0 316 l 1
0 263 m 1
 0 316 l 1
 158 316 l 1
 158 263 l 1
 0 263 l 1
0 211 m 1
 0 263 l 1
 211 263 l 1
 211 211 l 1
 0 211 l 1
53 158 m 1
 53 211 l 1
 211 211 l 1
 211 158 l 1
 53 158 l 1
53 105 m 1
 53 158 l 1
 316 158 l 1
 316 105 l 1
 53 105 l 1
421 105 m 1
 421 158 l 1
 526 158 l 1
 526 105 l 1
 421 105 l 1
105 53 m 1
 105 105 l 1
 526 105 l 1
 526 53 l 1
 105 53 l 1
211 0 m 1
 211 53 l 1
 421 53 l 1
 421 0 l 1
 211 0 l 1
EndSplineSet
EndChar

StartChar: D
Encoding: 68 68 37
Width: 579
Flags: HW
LayerCount: 2
Back
Fore
SplineSet
53 632 m 1
 53 684 l 1
 368 684 l 1
 368 632 l 1
 53 632 l 1
53 579 m 1
 53 632 l 1
 474 632 l 1
 474 579 l 1
 53 579 l 1
53 526 m 1
 53 579 l 1
 211 579 l 1
 211 526 l 1
 53 526 l 1
316 526 m 1
 316 579 l 1
 526 579 l 1
 526 526 l 1
 316 526 l 1
53 474 m 1
 53 526 l 1
 211 526 l 1
 211 474 l 1
 53 474 l 1
368 474 m 1
 368 526 l 1
 526 526 l 1
 526 474 l 1
 368 474 l 1
53 421 m 1
 53 474 l 1
 211 474 l 1
 211 421 l 1
 53 421 l 1
421 421 m 1
 421 474 l 1
 579 474 l 1
 579 421 l 1
 421 421 l 1
53 368 m 1
 53 421 l 1
 211 421 l 1
 211 368 l 1
 53 368 l 1
421 368 m 1
 421 421 l 1
 579 421 l 1
 579 368 l 1
 421 368 l 1
53 316 m 1
 53 368 l 1
 211 368 l 1
 211 316 l 1
 53 316 l 1
421 316 m 1
 421 368 l 1
 579 368 l 1
 579 316 l 1
 421 316 l 1
53 263 m 1
 53 316 l 1
 211 316 l 1
 211 263 l 1
 53 263 l 1
421 263 m 1
 421 316 l 1
 579 316 l 1
 579 263 l 1
 421 263 l 1
53 211 m 1
 53 263 l 1
 211 263 l 1
 211 211 l 1
 53 211 l 1
421 211 m 1
 421 263 l 1
 579 263 l 1
 579 211 l 1
 421 211 l 1
53 158 m 1
 53 211 l 1
 211 211 l 1
 211 158 l 1
 53 158 l 1
368 158 m 1
 368 211 l 1
 526 211 l 1
 526 158 l 1
 368 158 l 1
53 105 m 1
 53 158 l 1
 211 158 l 1
 211 105 l 1
 53 105 l 1
316 105 m 1
 316 158 l 1
 526 158 l 1
 526 105 l 1
 316 105 l 1
53 53 m 1
 53 105 l 1
 474 105 l 1
 474 53 l 1
 53 53 l 1
53 0 m 1
 53 53 l 1
 368 53 l 1
 368 0 l 1
 53 0 l 1
EndSplineSet
EndChar

StartChar: E
Encoding: 69 69 38
Width: 579
Flags: HW
LayerCount: 2
Back
Fore
SplineSet
53 632 m 1
 53 684 l 1
 526 684 l 1
 526 632 l 1
 53 632 l 1
53 579 m 1
 53 632 l 1
 526 632 l 1
 526 579 l 1
 53 579 l 1
53 526 m 1
 53 579 l 1
 211 579 l 1
 211 526 l 1
 53 526 l 1
53 474 m 1
 53 526 l 1
 211 526 l 1
 211 474 l 1
 53 474 l 1
53 421 m 1
 53 474 l 1
 211 474 l 1
 211 421 l 1
 53 421 l 1
53 368 m 1
 53 421 l 1
 474 421 l 1
 474 368 l 1
 53 368 l 1
53 316 m 1
 53 368 l 1
 474 368 l 1
 474 316 l 1
 53 316 l 1
53 263 m 1
 53 316 l 1
 211 316 l 1
 211 263 l 1
 53 263 l 1
53 211 m 1
 53 263 l 1
 211 263 l 1
 211 211 l 1
 53 211 l 1
53 158 m 1
 53 211 l 1
 211 211 l 1
 211 158 l 1
 53 158 l 1
53 105 m 1
 53 158 l 1
 211 158 l 1
 211 105 l 1
 53 105 l 1
53 53 m 1
 53 105 l 1
 526 105 l 1
 526 53 l 1
 53 53 l 1
53 0 m 1
 53 53 l 1
 526 53 l 1
 526 0 l 1
 53 0 l 1
EndSplineSet
EndChar

StartChar: F
Encoding: 70 70 39
Width: 579
Flags: HW
LayerCount: 2
Back
Fore
SplineSet
53 632 m 1
 53 684 l 1
 526 684 l 1
 526 632 l 1
 53 632 l 1
53 579 m 1
 53 632 l 1
 526 632 l 1
 526 579 l 1
 53 579 l 1
53 526 m 1
 53 579 l 1
 211 579 l 1
 211 526 l 1
 53 526 l 1
53 474 m 1
 53 526 l 1
 211 526 l 1
 211 474 l 1
 53 474 l 1
53 421 m 1
 53 474 l 1
 211 474 l 1
 211 421 l 1
 53 421 l 1
53 368 m 1
 53 421 l 1
 474 421 l 1
 474 368 l 1
 53 368 l 1
53 316 m 1
 53 368 l 1
 474 368 l 1
 474 316 l 1
 53 316 l 1
53 263 m 1
 53 316 l 1
 211 316 l 1
 211 263 l 1
 53 263 l 1
53 211 m 1
 53 263 l 1
 211 263 l 1
 211 211 l 1
 53 211 l 1
53 158 m 1
 53 211 l 1
 211 211 l 1
 211 158 l 1
 53 158 l 1
53 105 m 1
 53 158 l 1
 211 158 l 1
 211 105 l 1
 53 105 l 1
53 53 m 1
 53 105 l 1
 211 105 l 1
 211 53 l 1
 53 53 l 1
53 0 m 1
 53 53 l 1
 211 53 l 1
 211 0 l 1
 53 0 l 1
EndSplineSet
EndChar

StartChar: G
Encoding: 71 71 40
Width: 579
Flags: HW
LayerCount: 2
Back
Fore
SplineSet
211 632 m 1
 211 684 l 1
 474 684 l 1
 474 632 l 1
 211 632 l 1
105 579 m 1
 105 632 l 1
 526 632 l 1
 526 579 l 1
 105 579 l 1
53 526 m 1
 53 579 l 1
 263 579 l 1
 263 526 l 1
 53 526 l 1
421 526 m 1
 421 579 l 1
 526 579 l 1
 526 526 l 1
 421 526 l 1
53 474 m 1
 53 526 l 1
 211 526 l 1
 211 474 l 1
 53 474 l 1
0 421 m 1
 0 474 l 1
 158 474 l 1
 158 421 l 1
 0 421 l 1
0 368 m 1
 0 421 l 1
 158 421 l 1
 158 368 l 1
 0 368 l 1
0 316 m 1
 0 368 l 1
 158 368 l 1
 158 316 l 1
 0 316 l 1
0 263 m 1
 0 316 l 1
 158 316 l 1
 158 263 l 1
 0 263 l 1
368 263 m 1
 368 316 l 1
 526 316 l 1
 526 263 l 1
 368 263 l 1
0 211 m 1
 0 263 l 1
 211 263 l 1
 211 211 l 1
 0 211 l 1
368 211 m 1
 368 263 l 1
 526 263 l 1
 526 211 l 1
 368 211 l 1
53 158 m 1
 53 211 l 1
 211 211 l 1
 211 158 l 1
 53 158 l 1
368 158 m 1
 368 211 l 1
 526 211 l 1
 526 158 l 1
 368 158 l 1
53 105 m 1
 53 158 l 1
 263 158 l 1
 263 105 l 1
 53 105 l 1
368 105 m 1
 368 158 l 1
 526 158 l 1
 526 105 l 1
 368 105 l 1
105 53 m 1
 105 105 l 1
 526 105 l 1
 526 53 l 1
 105 53 l 1
211 0 m 1
 211 53 l 1
 526 53 l 1
 526 0 l 1
 211 0 l 1
EndSplineSet
EndChar

StartChar: H
Encoding: 72 72 41
Width: 579
Flags: HW
LayerCount: 2
Back
Fore
SplineSet
53 632 m 1
 53 684 l 1
 211 684 l 1
 211 632 l 1
 53 632 l 1
368 632 m 1
 368 684 l 1
 526 684 l 1
 526 632 l 1
 368 632 l 1
53 579 m 1
 53 632 l 1
 211 632 l 1
 211 579 l 1
 53 579 l 1
368 579 m 1
 368 632 l 1
 526 632 l 1
 526 579 l 1
 368 579 l 1
53 526 m 1
 53 579 l 1
 211 579 l 1
 211 526 l 1
 53 526 l 1
368 526 m 1
 368 579 l 1
 526 579 l 1
 526 526 l 1
 368 526 l 1
53 474 m 1
 53 526 l 1
 211 526 l 1
 211 474 l 1
 53 474 l 1
368 474 m 1
 368 526 l 1
 526 526 l 1
 526 474 l 1
 368 474 l 1
53 421 m 1
 53 474 l 1
 211 474 l 1
 211 421 l 1
 53 421 l 1
368 421 m 1
 368 474 l 1
 526 474 l 1
 526 421 l 1
 368 421 l 1
53 368 m 1
 53 421 l 1
 526 421 l 1
 526 368 l 1
 53 368 l 1
53 316 m 1
 53 368 l 1
 526 368 l 1
 526 316 l 1
 53 316 l 1
53 263 m 1
 53 316 l 1
 211 316 l 1
 211 263 l 1
 53 263 l 1
368 263 m 1
 368 316 l 1
 526 316 l 1
 526 263 l 1
 368 263 l 1
53 211 m 1
 53 263 l 1
 211 263 l 1
 211 211 l 1
 53 211 l 1
368 211 m 1
 368 263 l 1
 526 263 l 1
 526 211 l 1
 368 211 l 1
53 158 m 1
 53 211 l 1
 211 211 l 1
 211 158 l 1
 53 158 l 1
368 158 m 1
 368 211 l 1
 526 211 l 1
 526 158 l 1
 368 158 l 1
53 105 m 1
 53 158 l 1
 211 158 l 1
 211 105 l 1
 53 105 l 1
368 105 m 1
 368 158 l 1
 526 158 l 1
 526 105 l 1
 368 105 l 1
53 53 m 1
 53 105 l 1
 211 105 l 1
 211 53 l 1
 53 53 l 1
368 53 m 1
 368 105 l 1
 526 105 l 1
 526 53 l 1
 368 53 l 1
53 0 m 1
 53 53 l 1
 211 53 l 1
 211 0 l 1
 53 0 l 1
368 0 m 1
 368 53 l 1
 526 53 l 1
 526 0 l 1
 368 0 l 1
EndSplineSet
EndChar

StartChar: I
Encoding: 73 73 42
Width: 579
Flags: HW
LayerCount: 2
Back
Fore
SplineSet
105 632 m 1
 105 684 l 1
 474 684 l 1
 474 632 l 1
 105 632 l 1
105 579 m 1
 105 632 l 1
 474 632 l 1
 474 579 l 1
 105 579 l 1
211 526 m 1
 211 579 l 1
 368 579 l 1
 368 526 l 1
 211 526 l 1
211 474 m 1
 211 526 l 1
 368 526 l 1
 368 474 l 1
 211 474 l 1
211 421 m 1
 211 474 l 1
 368 474 l 1
 368 421 l 1
 211 421 l 1
211 368 m 1
 211 421 l 1
 368 421 l 1
 368 368 l 1
 211 368 l 1
211 316 m 1
 211 368 l 1
 368 368 l 1
 368 316 l 1
 211 316 l 1
211 263 m 1
 211 316 l 1
 368 316 l 1
 368 263 l 1
 211 263 l 1
211 211 m 1
 211 263 l 1
 368 263 l 1
 368 211 l 1
 211 211 l 1
211 158 m 1
 211 211 l 1
 368 211 l 1
 368 158 l 1
 211 158 l 1
211 105 m 1
 211 158 l 1
 368 158 l 1
 368 105 l 1
 211 105 l 1
105 53 m 1
 105 105 l 1
 474 105 l 1
 474 53 l 1
 105 53 l 1
105 0 m 1
 105 53 l 1
 474 53 l 1
 474 0 l 1
 105 0 l 1
EndSplineSet
EndChar

StartChar: J
Encoding: 74 74 43
Width: 579
Flags: HW
LayerCount: 2
Back
Fore
SplineSet
158 632 m 1
 158 684 l 1
 526 684 l 1
 526 632 l 1
 158 632 l 1
158 579 m 1
 158 632 l 1
 526 632 l 1
 526 579 l 1
 158 579 l 1
368 526 m 1
 368 579 l 1
 526 579 l 1
 526 526 l 1
 368 526 l 1
368 474 m 1
 368 526 l 1
 526 526 l 1
 526 474 l 1
 368 474 l 1
368 421 m 1
 368 474 l 1
 526 474 l 1
 526 421 l 1
 368 421 l 1
368 368 m 1
 368 421 l 1
 526 421 l 1
 526 368 l 1
 368 368 l 1
368 316 m 1
 368 368 l 1
 526 368 l 1
 526 316 l 1
 368 316 l 1
368 263 m 1
 368 316 l 1
 526 316 l 1
 526 263 l 1
 368 263 l 1
368 211 m 1
 368 263 l 1
 526 263 l 1
 526 211 l 1
 368 211 l 1
53 158 m 1
 53 211 l 1
 158 211 l 1
 158 158 l 1
 53 158 l 1
368 158 m 1
 368 211 l 1
 526 211 l 1
 526 158 l 1
 368 158 l 1
53 105 m 1
 53 158 l 1
 158 158 l 1
 158 105 l 1
 53 105 l 1
316 105 m 1
 316 158 l 1
 474 158 l 1
 474 105 l 1
 316 105 l 1
53 53 m 1
 53 105 l 1
 474 105 l 1
 474 53 l 1
 53 53 l 1
53 0 m 1
 53 53 l 1
 368 53 l 1
 368 0 l 1
 53 0 l 1
EndSplineSet
EndChar

StartChar: K
Encoding: 75 75 44
Width: 579
Flags: HW
LayerCount: 2
Back
Fore
SplineSet
53 632 m 1
 53 684 l 1
 211 684 l 1
 211 632 l 1
 53 632 l 1
421 632 m 1
 421 684 l 1
 526 684 l 1
 526 632 l 1
 421 632 l 1
53 579 m 1
 53 632 l 1
 211 632 l 1
 211 579 l 1
 53 579 l 1
368 579 m 1
 368 632 l 1
 526 632 l 1
 526 579 l 1
 368 579 l 1
53 526 m 1
 53 579 l 1
 211 579 l 1
 211 526 l 1
 53 526 l 1
316 526 m 1
 316 579 l 1
 474 579 l 1
 474 526 l 1
 316 526 l 1
53 474 m 1
 53 526 l 1
 211 526 l 1
 211 474 l 1
 53 474 l 1
316 474 m 1
 316 526 l 1
 421 526 l 1
 421 474 l 1
 316 474 l 1
53 421 m 1
 53 474 l 1
 211 474 l 1
 211 421 l 1
 53 421 l 1
263 421 m 1
 263 474 l 1
 368 474 l 1
 368 421 l 1
 263 421 l 1
53 368 m 1
 53 421 l 1
 316 421 l 1
 316 368 l 1
 53 368 l 1
53 316 m 1
 53 368 l 1
 316 368 l 1
 316 316 l 1
 53 316 l 1
53 263 m 1
 53 316 l 1
 368 316 l 1
 368 263 l 1
 53 263 l 1
53 211 m 1
 53 263 l 1
 211 263 l 1
 211 211 l 1
 53 211 l 1
263 211 m 1
 263 263 l 1
 421 263 l 1
 421 211 l 1
 263 211 l 1
53 158 m 1
 53 211 l 1
 211 211 l 1
 211 158 l 1
 53 158 l 1
316 158 m 1
 316 211 l 1
 474 211 l 1
 474 158 l 1
 316 158 l 1
53 105 m 1
 53 158 l 1
 211 158 l 1
 211 105 l 1
 53 105 l 1
316 105 m 1
 316 158 l 1
 526 158 l 1
 526 105 l 1
 316 105 l 1
53 53 m 1
 53 105 l 1
 211 105 l 1
 211 53 l 1
 53 53 l 1
368 53 m 1
 368 105 l 1
 579 105 l 1
 579 53 l 1
 368 53 l 1
53 0 m 1
 53 53 l 1
 211 53 l 1
 211 0 l 1
 53 0 l 1
421 0 m 1
 421 53 l 1
 579 53 l 1
 579 0 l 1
 421 0 l 1
EndSplineSet
EndChar

StartChar: L
Encoding: 76 76 45
Width: 579
Flags: HW
LayerCount: 2
Back
Fore
SplineSet
105 632 m 1
 105 684 l 1
 263 684 l 1
 263 632 l 1
 105 632 l 1
105 579 m 1
 105 632 l 1
 263 632 l 1
 263 579 l 1
 105 579 l 1
105 526 m 1
 105 579 l 1
 263 579 l 1
 263 526 l 1
 105 526 l 1
105 474 m 1
 105 526 l 1
 263 526 l 1
 263 474 l 1
 105 474 l 1
105 421 m 1
 105 474 l 1
 263 474 l 1
 263 421 l 1
 105 421 l 1
105 368 m 1
 105 421 l 1
 263 421 l 1
 263 368 l 1
 105 368 l 1
105 316 m 1
 105 368 l 1
 263 368 l 1
 263 316 l 1
 105 316 l 1
105 263 m 1
 105 316 l 1
 263 316 l 1
 263 263 l 1
 105 263 l 1
105 211 m 1
 105 263 l 1
 263 263 l 1
 263 211 l 1
 105 211 l 1
105 158 m 1
 105 211 l 1
 263 211 l 1
 263 158 l 1
 105 158 l 1
105 105 m 1
 105 158 l 1
 263 158 l 1
 263 105 l 1
 105 105 l 1
105 53 m 1
 105 105 l 1
 579 105 l 1
 579 53 l 1
 105 53 l 1
105 0 m 1
 105 53 l 1
 579 53 l 1
 579 0 l 1
 105 0 l 1
EndSplineSet
EndChar

StartChar: M
Encoding: 77 77 46
Width: 579
Flags: HW
LayerCount: 2
Back
Fore
SplineSet
53 632 m 1
 53 684 l 1
 211 684 l 1
 211 632 l 1
 53 632 l 1
421 632 m 1
 421 684 l 1
 579 684 l 1
 579 632 l 1
 421 632 l 1
53 579 m 1
 53 632 l 1
 211 632 l 1
 211 579 l 1
 53 579 l 1
421 579 m 1
 421 632 l 1
 579 632 l 1
 579 579 l 1
 421 579 l 1
53 526 m 1
 53 579 l 1
 263 579 l 1
 263 526 l 1
 53 526 l 1
421 526 m 1
 421 579 l 1
 579 579 l 1
 579 526 l 1
 421 526 l 1
53 474 m 1
 53 526 l 1
 263 526 l 1
 263 474 l 1
 53 474 l 1
421 474 m 1
 421 526 l 1
 579 526 l 1
 579 474 l 1
 421 474 l 1
53 421 m 1
 53 474 l 1
 316 474 l 1
 316 421 l 1
 53 421 l 1
368 421 m 1
 368 474 l 1
 579 474 l 1
 579 421 l 1
 368 421 l 1
53 368 m 1
 53 421 l 1
 158 421 l 1
 158 368 l 1
 53 368 l 1
211 368 m 1
 211 421 l 1
 316 421 l 1
 316 368 l 1
 211 368 l 1
368 368 m 1
 368 421 l 1
 421 421 l 1
 421 368 l 1
 368 368 l 1
474 368 m 1
 474 421 l 1
 579 421 l 1
 579 368 l 1
 474 368 l 1
53 316 m 1
 53 368 l 1
 158 368 l 1
 158 316 l 1
 53 316 l 1
211 316 m 1
 211 368 l 1
 316 368 l 1
 316 316 l 1
 211 316 l 1
368 316 m 1
 368 368 l 1
 421 368 l 1
 421 316 l 1
 368 316 l 1
474 316 m 1
 474 368 l 1
 579 368 l 1
 579 316 l 1
 474 316 l 1
53 263 m 1
 53 316 l 1
 158 316 l 1
 158 263 l 1
 53 263 l 1
211 263 m 1
 211 316 l 1
 421 316 l 1
 421 263 l 1
 211 263 l 1
474 263 m 1
 474 316 l 1
 579 316 l 1
 579 263 l 1
 474 263 l 1
53 211 m 1
 53 263 l 1
 158 263 l 1
 158 211 l 1
 53 211 l 1
211 211 m 1
 211 263 l 1
 421 263 l 1
 421 211 l 1
 211 211 l 1
474 211 m 1
 474 263 l 1
 579 263 l 1
 579 211 l 1
 474 211 l 1
53 158 m 1
 53 211 l 1
 158 211 l 1
 158 158 l 1
 53 158 l 1
263 158 m 1
 263 211 l 1
 368 211 l 1
 368 158 l 1
 263 158 l 1
474 158 m 1
 474 211 l 1
 579 211 l 1
 579 158 l 1
 474 158 l 1
53 105 m 1
 53 158 l 1
 158 158 l 1
 158 105 l 1
 53 105 l 1
263 105 m 1
 263 158 l 1
 368 158 l 1
 368 105 l 1
 263 105 l 1
474 105 m 1
 474 158 l 1
 579 158 l 1
 579 105 l 1
 474 105 l 1
53 53 m 1
 53 105 l 1
 158 105 l 1
 158 53 l 1
 53 53 l 1
474 53 m 1
 474 105 l 1
 579 105 l 1
 579 53 l 1
 474 53 l 1
53 0 m 1
 53 53 l 1
 158 53 l 1
 158 0 l 1
 53 0 l 1
474 0 m 1
 474 53 l 1
 579 53 l 1
 579 0 l 1
 474 0 l 1
EndSplineSet
EndChar

StartChar: N
Encoding: 78 78 47
Width: 579
Flags: HW
LayerCount: 2
Back
Fore
SplineSet
53 632 m 1
 53 684 l 1
 211 684 l 1
 211 632 l 1
 53 632 l 1
421 632 m 1
 421 684 l 1
 526 684 l 1
 526 632 l 1
 421 632 l 1
53 579 m 1
 53 632 l 1
 211 632 l 1
 211 579 l 1
 53 579 l 1
421 579 m 1
 421 632 l 1
 526 632 l 1
 526 579 l 1
 421 579 l 1
53 526 m 1
 53 579 l 1
 263 579 l 1
 263 526 l 1
 53 526 l 1
421 526 m 1
 421 579 l 1
 526 579 l 1
 526 526 l 1
 421 526 l 1
53 474 m 1
 53 526 l 1
 263 526 l 1
 263 474 l 1
 53 474 l 1
421 474 m 1
 421 526 l 1
 526 526 l 1
 526 474 l 1
 421 474 l 1
53 421 m 1
 53 474 l 1
 316 474 l 1
 316 421 l 1
 53 421 l 1
421 421 m 1
 421 474 l 1
 526 474 l 1
 526 421 l 1
 421 421 l 1
53 368 m 1
 53 421 l 1
 158 421 l 1
 158 368 l 1
 53 368 l 1
211 368 m 1
 211 421 l 1
 368 421 l 1
 368 368 l 1
 211 368 l 1
421 368 m 1
 421 421 l 1
 526 421 l 1
 526 368 l 1
 421 368 l 1
53 316 m 1
 53 368 l 1
 158 368 l 1
 158 316 l 1
 53 316 l 1
211 316 m 1
 211 368 l 1
 368 368 l 1
 368 316 l 1
 211 316 l 1
421 316 m 1
 421 368 l 1
 526 368 l 1
 526 316 l 1
 421 316 l 1
53 263 m 1
 53 316 l 1
 158 316 l 1
 158 263 l 1
 53 263 l 1
263 263 m 1
 263 316 l 1
 526 316 l 1
 526 263 l 1
 263 263 l 1
53 211 m 1
 53 263 l 1
 158 263 l 1
 158 211 l 1
 53 211 l 1
263 211 m 1
 263 263 l 1
 526 263 l 1
 526 211 l 1
 263 211 l 1
53 158 m 1
 53 211 l 1
 158 211 l 1
 158 158 l 1
 53 158 l 1
316 158 m 1
 316 211 l 1
 526 211 l 1
 526 158 l 1
 316 158 l 1
53 105 m 1
 53 158 l 1
 158 158 l 1
 158 105 l 1
 53 105 l 1
368 105 m 1
 368 158 l 1
 526 158 l 1
 526 105 l 1
 368 105 l 1
53 53 m 1
 53 105 l 1
 158 105 l 1
 158 53 l 1
 53 53 l 1
368 53 m 1
 368 105 l 1
 526 105 l 1
 526 53 l 1
 368 53 l 1
53 0 m 1
 53 53 l 1
 158 53 l 1
 158 0 l 1
 53 0 l 1
421 0 m 1
 421 53 l 1
 526 53 l 1
 526 0 l 1
 421 0 l 1
EndSplineSet
EndChar

StartChar: O
Encoding: 79 79 48
Width: 579
Flags: HW
LayerCount: 2
Back
Fore
SplineSet
211 632 m 1
 211 684 l 1
 421 684 l 1
 421 632 l 1
 211 632 l 1
158 579 m 1
 158 632 l 1
 474 632 l 1
 474 579 l 1
 158 579 l 1
105 526 m 1
 105 579 l 1
 263 579 l 1
 263 526 l 1
 105 526 l 1
368 526 m 1
 368 579 l 1
 526 579 l 1
 526 526 l 1
 368 526 l 1
105 474 m 1
 105 526 l 1
 263 526 l 1
 263 474 l 1
 105 474 l 1
368 474 m 1
 368 526 l 1
 526 526 l 1
 526 474 l 1
 368 474 l 1
53 421 m 1
 53 474 l 1
 211 474 l 1
 211 421 l 1
 53 421 l 1
421 421 m 1
 421 474 l 1
 579 474 l 1
 579 421 l 1
 421 421 l 1
53 368 m 1
 53 421 l 1
 211 421 l 1
 211 368 l 1
 53 368 l 1
421 368 m 1
 421 421 l 1
 579 421 l 1
 579 368 l 1
 421 368 l 1
53 316 m 1
 53 368 l 1
 211 368 l 1
 211 316 l 1
 53 316 l 1
421 316 m 1
 421 368 l 1
 579 368 l 1
 579 316 l 1
 421 316 l 1
53 263 m 1
 53 316 l 1
 211 316 l 1
 211 263 l 1
 53 263 l 1
421 263 m 1
 421 316 l 1
 579 316 l 1
 579 263 l 1
 421 263 l 1
53 211 m 1
 53 263 l 1
 211 263 l 1
 211 211 l 1
 53 211 l 1
421 211 m 1
 421 263 l 1
 579 263 l 1
 579 211 l 1
 421 211 l 1
105 158 m 1
 105 211 l 1
 263 211 l 1
 263 158 l 1
 105 158 l 1
368 158 m 1
 368 211 l 1
 526 211 l 1
 526 158 l 1
 368 158 l 1
105 105 m 1
 105 158 l 1
 263 158 l 1
 263 105 l 1
 105 105 l 1
368 105 m 1
 368 158 l 1
 526 158 l 1
 526 105 l 1
 368 105 l 1
158 53 m 1
 158 105 l 1
 474 105 l 1
 474 53 l 1
 158 53 l 1
211 0 m 1
 211 53 l 1
 421 53 l 1
 421 0 l 1
 211 0 l 1
EndSplineSet
EndChar

StartChar: P
Encoding: 80 80 49
Width: 579
Flags: HW
LayerCount: 2
Back
Fore
SplineSet
53 632 m 1
 53 684 l 1
 421 684 l 1
 421 632 l 1
 53 632 l 1
53 579 m 1
 53 632 l 1
 474 632 l 1
 474 579 l 1
 53 579 l 1
53 526 m 1
 53 579 l 1
 211 579 l 1
 211 526 l 1
 53 526 l 1
316 526 m 1
 316 579 l 1
 526 579 l 1
 526 526 l 1
 316 526 l 1
53 474 m 1
 53 526 l 1
 211 526 l 1
 211 474 l 1
 53 474 l 1
368 474 m 1
 368 526 l 1
 526 526 l 1
 526 474 l 1
 368 474 l 1
53 421 m 1
 53 474 l 1
 211 474 l 1
 211 421 l 1
 53 421 l 1
368 421 m 1
 368 474 l 1
 526 474 l 1
 526 421 l 1
 368 421 l 1
53 368 m 1
 53 421 l 1
 211 421 l 1
 211 368 l 1
 53 368 l 1
316 368 m 1
 316 421 l 1
 474 421 l 1
 474 368 l 1
 316 368 l 1
53 316 m 1
 53 368 l 1
 474 368 l 1
 474 316 l 1
 53 316 l 1
53 263 m 1
 53 316 l 1
 368 316 l 1
 368 263 l 1
 53 263 l 1
53 211 m 1
 53 263 l 1
 211 263 l 1
 211 211 l 1
 53 211 l 1
53 158 m 1
 53 211 l 1
 211 211 l 1
 211 158 l 1
 53 158 l 1
53 105 m 1
 53 158 l 1
 211 158 l 1
 211 105 l 1
 53 105 l 1
53 53 m 1
 53 105 l 1
 211 105 l 1
 211 53 l 1
 53 53 l 1
53 0 m 1
 53 53 l 1
 211 53 l 1
 211 0 l 1
 53 0 l 1
EndSplineSet
EndChar

StartChar: Q
Encoding: 81 81 50
Width: 579
Flags: HW
LayerCount: 2
Back
Fore
SplineSet
211 632 m 1
 211 684 l 1
 421 684 l 1
 421 632 l 1
 211 632 l 1
158 579 m 1
 158 632 l 1
 474 632 l 1
 474 579 l 1
 158 579 l 1
105 526 m 1
 105 579 l 1
 263 579 l 1
 263 526 l 1
 105 526 l 1
368 526 m 1
 368 579 l 1
 526 579 l 1
 526 526 l 1
 368 526 l 1
105 474 m 1
 105 526 l 1
 263 526 l 1
 263 474 l 1
 105 474 l 1
368 474 m 1
 368 526 l 1
 526 526 l 1
 526 474 l 1
 368 474 l 1
53 421 m 1
 53 474 l 1
 211 474 l 1
 211 421 l 1
 53 421 l 1
421 421 m 1
 421 474 l 1
 579 474 l 1
 579 421 l 1
 421 421 l 1
53 368 m 1
 53 421 l 1
 211 421 l 1
 211 368 l 1
 53 368 l 1
421 368 m 1
 421 421 l 1
 579 421 l 1
 579 368 l 1
 421 368 l 1
53 316 m 1
 53 368 l 1
 211 368 l 1
 211 316 l 1
 53 316 l 1
421 316 m 1
 421 368 l 1
 579 368 l 1
 579 316 l 1
 421 316 l 1
53 263 m 1
 53 316 l 1
 211 316 l 1
 211 263 l 1
 53 263 l 1
421 263 m 1
 421 316 l 1
 579 316 l 1
 579 263 l 1
 421 263 l 1
53 211 m 1
 53 263 l 1
 211 263 l 1
 211 211 l 1
 53 211 l 1
421 211 m 1
 421 263 l 1
 579 263 l 1
 579 211 l 1
 421 211 l 1
105 158 m 1
 105 211 l 1
 263 211 l 1
 263 158 l 1
 105 158 l 1
368 158 m 1
 368 211 l 1
 526 211 l 1
 526 158 l 1
 368 158 l 1
105 105 m 1
 105 158 l 1
 263 158 l 1
 263 105 l 1
 105 105 l 1
368 105 m 1
 368 158 l 1
 526 158 l 1
 526 105 l 1
 368 105 l 1
158 53 m 1
 158 105 l 1
 474 105 l 1
 474 53 l 1
 158 53 l 1
211 0 m 1
 211 53 l 1
 421 53 l 1
 421 0 l 1
 211 0 l 1
316 -53 m 1
 316 0 l 1
 526 0 l 1
 526 -53 l 1
 316 -53 l 1
368 -105 m 1
 368 -53 l 1
 526 -53 l 1
 526 -105 l 1
 368 -105 l 1
EndSplineSet
EndChar

StartChar: R
Encoding: 82 82 51
Width: 579
Flags: HW
LayerCount: 2
Back
Fore
SplineSet
53 632 m 1
 53 684 l 1
 421 684 l 1
 421 632 l 1
 53 632 l 1
53 579 m 1
 53 632 l 1
 474 632 l 1
 474 579 l 1
 53 579 l 1
53 526 m 1
 53 579 l 1
 211 579 l 1
 211 526 l 1
 53 526 l 1
316 526 m 1
 316 579 l 1
 526 579 l 1
 526 526 l 1
 316 526 l 1
53 474 m 1
 53 526 l 1
 211 526 l 1
 211 474 l 1
 53 474 l 1
368 474 m 1
 368 526 l 1
 526 526 l 1
 526 474 l 1
 368 474 l 1
53 421 m 1
 53 474 l 1
 211 474 l 1
 211 421 l 1
 53 421 l 1
368 421 m 1
 368 474 l 1
 526 474 l 1
 526 421 l 1
 368 421 l 1
53 368 m 1
 53 421 l 1
 211 421 l 1
 211 368 l 1
 53 368 l 1
316 368 m 1
 316 421 l 1
 474 421 l 1
 474 368 l 1
 316 368 l 1
53 316 m 1
 53 368 l 1
 368 368 l 1
 368 316 l 1
 53 316 l 1
53 263 m 1
 53 316 l 1
 421 316 l 1
 421 263 l 1
 53 263 l 1
53 211 m 1
 53 263 l 1
 211 263 l 1
 211 211 l 1
 53 211 l 1
263 211 m 1
 263 263 l 1
 421 263 l 1
 421 211 l 1
 263 211 l 1
53 158 m 1
 53 211 l 1
 211 211 l 1
 211 158 l 1
 53 158 l 1
316 158 m 1
 316 211 l 1
 474 211 l 1
 474 158 l 1
 316 158 l 1
53 105 m 1
 53 158 l 1
 211 158 l 1
 211 105 l 1
 53 105 l 1
316 105 m 1
 316 158 l 1
 526 158 l 1
 526 105 l 1
 316 105 l 1
53 53 m 1
 53 105 l 1
 211 105 l 1
 211 53 l 1
 53 53 l 1
368 53 m 1
 368 105 l 1
 526 105 l 1
 526 53 l 1
 368 53 l 1
53 0 m 1
 53 53 l 1
 211 53 l 1
 211 0 l 1
 53 0 l 1
368 0 m 1
 368 53 l 1
 526 53 l 1
 526 0 l 1
 368 0 l 1
EndSplineSet
EndChar

StartChar: S
Encoding: 83 83 52
Width: 579
Flags: HW
LayerCount: 2
Back
Fore
SplineSet
158 632 m 1
 158 684 l 1
 474 684 l 1
 474 632 l 1
 158 632 l 1
105 579 m 1
 105 632 l 1
 526 632 l 1
 526 579 l 1
 105 579 l 1
53 526 m 1
 53 579 l 1
 211 579 l 1
 211 526 l 1
 53 526 l 1
421 526 m 1
 421 579 l 1
 526 579 l 1
 526 526 l 1
 421 526 l 1
53 474 m 1
 53 526 l 1
 211 526 l 1
 211 474 l 1
 53 474 l 1
53 421 m 1
 53 474 l 1
 316 474 l 1
 316 421 l 1
 53 421 l 1
53 368 m 1
 53 421 l 1
 421 421 l 1
 421 368 l 1
 53 368 l 1
105 316 m 1
 105 368 l 1
 474 368 l 1
 474 316 l 1
 105 316 l 1
211 263 m 1
 211 316 l 1
 526 316 l 1
 526 263 l 1
 211 263 l 1
316 211 m 1
 316 263 l 1
 526 263 l 1
 526 211 l 1
 316 211 l 1
368 158 m 1
 368 211 l 1
 526 211 l 1
 526 158 l 1
 368 158 l 1
53 105 m 1
 53 158 l 1
 158 158 l 1
 158 105 l 1
 53 105 l 1
368 105 m 1
 368 158 l 1
 526 158 l 1
 526 105 l 1
 368 105 l 1
53 53 m 1
 53 105 l 1
 474 105 l 1
 474 53 l 1
 53 53 l 1
105 0 m 1
 105 53 l 1
 421 53 l 1
 421 0 l 1
 105 0 l 1
EndSplineSet
EndChar

StartChar: T
Encoding: 84 84 53
Width: 579
Flags: HW
LayerCount: 2
Back
Fore
SplineSet
0 632 m 1
 0 684 l 1
 579 684 l 1
 579 632 l 1
 0 632 l 1
0 579 m 1
 0 632 l 1
 579 632 l 1
 579 579 l 1
 0 579 l 1
211 526 m 1
 211 579 l 1
 368 579 l 1
 368 526 l 1
 211 526 l 1
211 474 m 1
 211 526 l 1
 368 526 l 1
 368 474 l 1
 211 474 l 1
211 421 m 1
 211 474 l 1
 368 474 l 1
 368 421 l 1
 211 421 l 1
211 368 m 1
 211 421 l 1
 368 421 l 1
 368 368 l 1
 211 368 l 1
211 316 m 1
 211 368 l 1
 368 368 l 1
 368 316 l 1
 211 316 l 1
211 263 m 1
 211 316 l 1
 368 316 l 1
 368 263 l 1
 211 263 l 1
211 211 m 1
 211 263 l 1
 368 263 l 1
 368 211 l 1
 211 211 l 1
211 158 m 1
 211 211 l 1
 368 211 l 1
 368 158 l 1
 211 158 l 1
211 105 m 1
 211 158 l 1
 368 158 l 1
 368 105 l 1
 211 105 l 1
211 53 m 1
 211 105 l 1
 368 105 l 1
 368 53 l 1
 211 53 l 1
211 0 m 1
 211 53 l 1
 368 53 l 1
 368 0 l 1
 211 0 l 1
EndSplineSet
EndChar

StartChar: U
Encoding: 85 85 54
Width: 579
Flags: HW
LayerCount: 2
Back
Fore
SplineSet
53 632 m 1
 53 684 l 1
 211 684 l 1
 211 632 l 1
 53 632 l 1
421 632 m 1
 421 684 l 1
 579 684 l 1
 579 632 l 1
 421 632 l 1
53 579 m 1
 53 632 l 1
 211 632 l 1
 211 579 l 1
 53 579 l 1
421 579 m 1
 421 632 l 1
 579 632 l 1
 579 579 l 1
 421 579 l 1
53 526 m 1
 53 579 l 1
 211 579 l 1
 211 526 l 1
 53 526 l 1
421 526 m 1
 421 579 l 1
 579 579 l 1
 579 526 l 1
 421 526 l 1
53 474 m 1
 53 526 l 1
 211 526 l 1
 211 474 l 1
 53 474 l 1
421 474 m 1
 421 526 l 1
 579 526 l 1
 579 474 l 1
 421 474 l 1
53 421 m 1
 53 474 l 1
 211 474 l 1
 211 421 l 1
 53 421 l 1
421 421 m 1
 421 474 l 1
 579 474 l 1
 579 421 l 1
 421 421 l 1
53 368 m 1
 53 421 l 1
 211 421 l 1
 211 368 l 1
 53 368 l 1
421 368 m 1
 421 421 l 1
 579 421 l 1
 579 368 l 1
 421 368 l 1
53 316 m 1
 53 368 l 1
 211 368 l 1
 211 316 l 1
 53 316 l 1
421 316 m 1
 421 368 l 1
 579 368 l 1
 579 316 l 1
 421 316 l 1
53 263 m 1
 53 316 l 1
 211 316 l 1
 211 263 l 1
 53 263 l 1
421 263 m 1
 421 316 l 1
 579 316 l 1
 579 263 l 1
 421 263 l 1
53 211 m 1
 53 263 l 1
 211 263 l 1
 211 211 l 1
 53 211 l 1
421 211 m 1
 421 263 l 1
 579 263 l 1
 579 211 l 1
 421 211 l 1
53 158 m 1
 53 211 l 1
 211 211 l 1
 211 158 l 1
 53 158 l 1
421 158 m 1
 421 211 l 1
 579 211 l 1
 579 158 l 1
 421 158 l 1
105 105 m 1
 105 158 l 1
 263 158 l 1
 263 105 l 1
 105 105 l 1
368 105 m 1
 368 158 l 1
 526 158 l 1
 526 105 l 1
 368 105 l 1
105 53 m 1
 105 105 l 1
 526 105 l 1
 526 53 l 1
 105 53 l 1
211 0 m 1
 211 53 l 1
 421 53 l 1
 421 0 l 1
 211 0 l 1
EndSplineSet
EndChar

StartChar: V
Encoding: 86 86 55
Width: 579
Flags: HW
LayerCount: 2
Back
Fore
SplineSet
0 632 m 1
 0 684 l 1
 158 684 l 1
 158 632 l 1
 0 632 l 1
421 632 m 1
 421 684 l 1
 579 684 l 1
 579 632 l 1
 421 632 l 1
0 579 m 1
 0 632 l 1
 158 632 l 1
 158 579 l 1
 0 579 l 1
421 579 m 1
 421 632 l 1
 579 632 l 1
 579 579 l 1
 421 579 l 1
0 526 m 1
 0 579 l 1
 158 579 l 1
 158 526 l 1
 0 526 l 1
421 526 m 1
 421 579 l 1
 579 579 l 1
 579 526 l 1
 421 526 l 1
0 474 m 1
 0 526 l 1
 158 526 l 1
 158 474 l 1
 0 474 l 1
421 474 m 1
 421 526 l 1
 579 526 l 1
 579 474 l 1
 421 474 l 1
53 421 m 1
 53 474 l 1
 211 474 l 1
 211 421 l 1
 53 421 l 1
421 421 m 1
 421 474 l 1
 526 474 l 1
 526 421 l 1
 421 421 l 1
53 368 m 1
 53 421 l 1
 211 421 l 1
 211 368 l 1
 53 368 l 1
421 368 m 1
 421 421 l 1
 526 421 l 1
 526 368 l 1
 421 368 l 1
53 316 m 1
 53 368 l 1
 211 368 l 1
 211 316 l 1
 53 316 l 1
368 316 m 1
 368 368 l 1
 526 368 l 1
 526 316 l 1
 368 316 l 1
105 263 m 1
 105 316 l 1
 263 316 l 1
 263 263 l 1
 105 263 l 1
368 263 m 1
 368 316 l 1
 474 316 l 1
 474 263 l 1
 368 263 l 1
105 211 m 1
 105 263 l 1
 263 263 l 1
 263 211 l 1
 105 211 l 1
368 211 m 1
 368 263 l 1
 474 263 l 1
 474 211 l 1
 368 211 l 1
158 158 m 1
 158 211 l 1
 421 211 l 1
 421 158 l 1
 158 158 l 1
158 105 m 1
 158 158 l 1
 421 158 l 1
 421 105 l 1
 158 105 l 1
211 53 m 1
 211 105 l 1
 368 105 l 1
 368 53 l 1
 211 53 l 1
211 0 m 1
 211 53 l 1
 368 53 l 1
 368 0 l 1
 211 0 l 1
EndSplineSet
EndChar

StartChar: W
Encoding: 87 87 56
Width: 579
Flags: HW
LayerCount: 2
Back
Fore
SplineSet
0 632 m 1
 0 684 l 1
 105 684 l 1
 105 632 l 1
 0 632 l 1
421 632 m 1
 421 684 l 1
 526 684 l 1
 526 632 l 1
 421 632 l 1
0 579 m 1
 0 632 l 1
 105 632 l 1
 105 579 l 1
 0 579 l 1
421 579 m 1
 421 632 l 1
 526 632 l 1
 526 579 l 1
 421 579 l 1
0 526 m 1
 0 579 l 1
 105 579 l 1
 105 526 l 1
 0 526 l 1
211 526 m 1
 211 579 l 1
 316 579 l 1
 316 526 l 1
 211 526 l 1
421 526 m 1
 421 579 l 1
 526 579 l 1
 526 526 l 1
 421 526 l 1
0 474 m 1
 0 526 l 1
 105 526 l 1
 105 474 l 1
 0 474 l 1
211 474 m 1
 211 526 l 1
 316 526 l 1
 316 474 l 1
 211 474 l 1
421 474 m 1
 421 526 l 1
 526 526 l 1
 526 474 l 1
 421 474 l 1
0 421 m 1
 0 474 l 1
 105 474 l 1
 105 421 l 1
 0 421 l 1
211 421 m 1
 211 474 l 1
 316 474 l 1
 316 421 l 1
 211 421 l 1
421 421 m 1
 421 474 l 1
 526 474 l 1
 526 421 l 1
 421 421 l 1
0 368 m 1
 0 421 l 1
 158 421 l 1
 158 368 l 1
 0 368 l 1
211 368 m 1
 211 421 l 1
 368 421 l 1
 368 368 l 1
 211 368 l 1
421 368 m 1
 421 421 l 1
 526 421 l 1
 526 368 l 1
 421 368 l 1
53 316 m 1
 53 368 l 1
 158 368 l 1
 158 316 l 1
 53 316 l 1
211 316 m 1
 211 368 l 1
 368 368 l 1
 368 316 l 1
 211 316 l 1
421 316 m 1
 421 368 l 1
 474 368 l 1
 474 316 l 1
 421 316 l 1
53 263 m 1
 53 316 l 1
 211 316 l 1
 211 263 l 1
 53 263 l 1
263 263 m 1
 263 316 l 1
 474 316 l 1
 474 263 l 1
 263 263 l 1
53 211 m 1
 53 263 l 1
 211 263 l 1
 211 211 l 1
 53 211 l 1
263 211 m 1
 263 263 l 1
 474 263 l 1
 474 211 l 1
 263 211 l 1
53 158 m 1
 53 211 l 1
 211 211 l 1
 211 158 l 1
 53 158 l 1
263 158 m 1
 263 211 l 1
 474 211 l 1
 474 158 l 1
 263 158 l 1
105 105 m 1
 105 158 l 1
 211 158 l 1
 211 105 l 1
 105 105 l 1
316 105 m 1
 316 158 l 1
 421 158 l 1
 421 105 l 1
 316 105 l 1
105 53 m 1
 105 105 l 1
 211 105 l 1
 211 53 l 1
 105 53 l 1
316 53 m 1
 316 105 l 1
 421 105 l 1
 421 53 l 1
 316 53 l 1
105 0 m 1
 105 53 l 1
 211 53 l 1
 211 0 l 1
 105 0 l 1
316 0 m 1
 316 53 l 1
 421 53 l 1
 421 0 l 1
 316 0 l 1
EndSplineSet
EndChar

StartChar: X
Encoding: 88 88 57
Width: 579
Flags: HW
LayerCount: 2
Back
Fore
SplineSet
53 632 m 1
 53 684 l 1
 211 684 l 1
 211 632 l 1
 53 632 l 1
474 632 m 1
 474 684 l 1
 579 684 l 1
 579 632 l 1
 474 632 l 1
53 579 m 1
 53 632 l 1
 263 632 l 1
 263 579 l 1
 53 579 l 1
421 579 m 1
 421 632 l 1
 579 632 l 1
 579 579 l 1
 421 579 l 1
105 526 m 1
 105 579 l 1
 263 579 l 1
 263 526 l 1
 105 526 l 1
421 526 m 1
 421 579 l 1
 526 579 l 1
 526 526 l 1
 421 526 l 1
105 474 m 1
 105 526 l 1
 316 526 l 1
 316 474 l 1
 105 474 l 1
368 474 m 1
 368 526 l 1
 526 526 l 1
 526 474 l 1
 368 474 l 1
158 421 m 1
 158 474 l 1
 316 474 l 1
 316 421 l 1
 158 421 l 1
368 421 m 1
 368 474 l 1
 474 474 l 1
 474 421 l 1
 368 421 l 1
211 368 m 1
 211 421 l 1
 421 421 l 1
 421 368 l 1
 211 368 l 1
211 316 m 1
 211 368 l 1
 421 368 l 1
 421 316 l 1
 211 316 l 1
211 263 m 1
 211 316 l 1
 421 316 l 1
 421 263 l 1
 211 263 l 1
158 211 m 1
 158 263 l 1
 263 263 l 1
 263 211 l 1
 158 211 l 1
316 211 m 1
 316 263 l 1
 474 263 l 1
 474 211 l 1
 316 211 l 1
105 158 m 1
 105 211 l 1
 263 211 l 1
 263 158 l 1
 105 158 l 1
316 158 m 1
 316 211 l 1
 526 211 l 1
 526 158 l 1
 316 158 l 1
105 105 m 1
 105 158 l 1
 211 158 l 1
 211 105 l 1
 105 105 l 1
368 105 m 1
 368 158 l 1
 526 158 l 1
 526 105 l 1
 368 105 l 1
53 53 m 1
 53 105 l 1
 211 105 l 1
 211 53 l 1
 53 53 l 1
368 53 m 1
 368 105 l 1
 579 105 l 1
 579 53 l 1
 368 53 l 1
53 0 m 1
 53 53 l 1
 158 53 l 1
 158 0 l 1
 53 0 l 1
421 0 m 1
 421 53 l 1
 579 53 l 1
 579 0 l 1
 421 0 l 1
EndSplineSet
EndChar

StartChar: Y
Encoding: 89 89 58
Width: 579
Flags: HW
LayerCount: 2
Back
Fore
SplineSet
0 632 m 1
 0 684 l 1
 158 684 l 1
 158 632 l 1
 0 632 l 1
421 632 m 1
 421 684 l 1
 579 684 l 1
 579 632 l 1
 421 632 l 1
0 579 m 1
 0 632 l 1
 158 632 l 1
 158 579 l 1
 0 579 l 1
421 579 m 1
 421 632 l 1
 579 632 l 1
 579 579 l 1
 421 579 l 1
53 526 m 1
 53 579 l 1
 211 579 l 1
 211 526 l 1
 53 526 l 1
421 526 m 1
 421 579 l 1
 526 579 l 1
 526 526 l 1
 421 526 l 1
53 474 m 1
 53 526 l 1
 211 526 l 1
 211 474 l 1
 53 474 l 1
368 474 m 1
 368 526 l 1
 526 526 l 1
 526 474 l 1
 368 474 l 1
105 421 m 1
 105 474 l 1
 263 474 l 1
 263 421 l 1
 105 421 l 1
368 421 m 1
 368 474 l 1
 474 474 l 1
 474 421 l 1
 368 421 l 1
105 368 m 1
 105 421 l 1
 263 421 l 1
 263 368 l 1
 105 368 l 1
368 368 m 1
 368 421 l 1
 474 421 l 1
 474 368 l 1
 368 368 l 1
158 316 m 1
 158 368 l 1
 421 368 l 1
 421 316 l 1
 158 316 l 1
211 263 m 1
 211 316 l 1
 368 316 l 1
 368 263 l 1
 211 263 l 1
211 211 m 1
 211 263 l 1
 368 263 l 1
 368 211 l 1
 211 211 l 1
211 158 m 1
 211 211 l 1
 368 211 l 1
 368 158 l 1
 211 158 l 1
211 105 m 1
 211 158 l 1
 368 158 l 1
 368 105 l 1
 211 105 l 1
211 53 m 1
 211 105 l 1
 368 105 l 1
 368 53 l 1
 211 53 l 1
211 0 m 1
 211 53 l 1
 368 53 l 1
 368 0 l 1
 211 0 l 1
EndSplineSet
EndChar

StartChar: Z
Encoding: 90 90 59
Width: 579
Flags: HW
LayerCount: 2
Back
Fore
SplineSet
53 632 m 1
 53 684 l 1
 579 684 l 1
 579 632 l 1
 53 632 l 1
53 579 m 1
 53 632 l 1
 579 632 l 1
 579 579 l 1
 53 579 l 1
368 526 m 1
 368 579 l 1
 579 579 l 1
 579 526 l 1
 368 526 l 1
316 474 m 1
 316 526 l 1
 526 526 l 1
 526 474 l 1
 316 474 l 1
263 421 m 1
 263 474 l 1
 474 474 l 1
 474 421 l 1
 263 421 l 1
263 368 m 1
 263 421 l 1
 474 421 l 1
 474 368 l 1
 263 368 l 1
211 316 m 1
 211 368 l 1
 421 368 l 1
 421 316 l 1
 211 316 l 1
158 263 m 1
 158 316 l 1
 368 316 l 1
 368 263 l 1
 158 263 l 1
158 211 m 1
 158 263 l 1
 368 263 l 1
 368 211 l 1
 158 211 l 1
105 158 m 1
 105 211 l 1
 316 211 l 1
 316 158 l 1
 105 158 l 1
53 105 m 1
 53 158 l 1
 263 158 l 1
 263 105 l 1
 53 105 l 1
53 53 m 1
 53 105 l 1
 579 105 l 1
 579 53 l 1
 53 53 l 1
53 0 m 1
 53 53 l 1
 579 53 l 1
 579 0 l 1
 53 0 l 1
EndSplineSet
EndChar

StartChar: bracketleft
Encoding: 91 91 60
Width: 579
Flags: HW
LayerCount: 2
Back
Fore
SplineSet
158 684 m 1
 158 737 l 1
 474 737 l 1
 474 684 l 1
 158 684 l 1
158 632 m 1
 158 684 l 1
 474 684 l 1
 474 632 l 1
 158 632 l 1
158 579 m 1
 158 632 l 1
 316 632 l 1
 316 579 l 1
 158 579 l 1
158 526 m 1
 158 579 l 1
 316 579 l 1
 316 526 l 1
 158 526 l 1
158 474 m 1
 158 526 l 1
 316 526 l 1
 316 474 l 1
 158 474 l 1
158 421 m 1
 158 474 l 1
 316 474 l 1
 316 421 l 1
 158 421 l 1
158 368 m 1
 158 421 l 1
 316 421 l 1
 316 368 l 1
 158 368 l 1
158 316 m 1
 158 368 l 1
 316 368 l 1
 316 316 l 1
 158 316 l 1
158 263 m 1
 158 316 l 1
 316 316 l 1
 316 263 l 1
 158 263 l 1
158 211 m 1
 158 263 l 1
 316 263 l 1
 316 211 l 1
 158 211 l 1
158 158 m 1
 158 211 l 1
 316 211 l 1
 316 158 l 1
 158 158 l 1
158 105 m 1
 158 158 l 1
 316 158 l 1
 316 105 l 1
 158 105 l 1
158 53 m 1
 158 105 l 1
 316 105 l 1
 316 53 l 1
 158 53 l 1
158 0 m 1
 158 53 l 1
 316 53 l 1
 316 0 l 1
 158 0 l 1
158 -53 m 1
 158 0 l 1
 474 0 l 1
 474 -53 l 1
 158 -53 l 1
158 -105 m 1
 158 -53 l 1
 474 -53 l 1
 474 -105 l 1
 158 -105 l 1
EndSplineSet
EndChar

StartChar: backslash
Encoding: 92 92 61
Width: 579
Flags: HW
LayerCount: 2
Back
Fore
SplineSet
53 684 m 1
 53 737 l 1
 211 737 l 1
 211 684 l 1
 53 684 l 1
53 632 m 1
 53 684 l 1
 211 684 l 1
 211 632 l 1
 53 632 l 1
105 579 m 1
 105 632 l 1
 263 632 l 1
 263 579 l 1
 105 579 l 1
105 526 m 1
 105 579 l 1
 263 579 l 1
 263 526 l 1
 105 526 l 1
158 474 m 1
 158 526 l 1
 316 526 l 1
 316 474 l 1
 158 474 l 1
158 421 m 1
 158 474 l 1
 316 474 l 1
 316 421 l 1
 158 421 l 1
158 368 m 1
 158 421 l 1
 316 421 l 1
 316 368 l 1
 158 368 l 1
211 316 m 1
 211 368 l 1
 368 368 l 1
 368 316 l 1
 211 316 l 1
211 263 m 1
 211 316 l 1
 368 316 l 1
 368 263 l 1
 211 263 l 1
263 211 m 1
 263 263 l 1
 421 263 l 1
 421 211 l 1
 263 211 l 1
263 158 m 1
 263 211 l 1
 421 211 l 1
 421 158 l 1
 263 158 l 1
263 105 m 1
 263 158 l 1
 421 158 l 1
 421 105 l 1
 263 105 l 1
316 53 m 1
 316 105 l 1
 474 105 l 1
 474 53 l 1
 316 53 l 1
316 0 m 1
 316 53 l 1
 474 53 l 1
 474 0 l 1
 316 0 l 1
368 -53 m 1
 368 0 l 1
 526 0 l 1
 526 -53 l 1
 368 -53 l 1
368 -105 m 1
 368 -53 l 1
 526 -53 l 1
 526 -105 l 1
 368 -105 l 1
EndSplineSet
EndChar

StartChar: bracketright
Encoding: 93 93 62
Width: 579
Flags: HW
LayerCount: 2
Back
Fore
SplineSet
105 684 m 1
 105 737 l 1
 421 737 l 1
 421 684 l 1
 105 684 l 1
105 632 m 1
 105 684 l 1
 421 684 l 1
 421 632 l 1
 105 632 l 1
263 579 m 1
 263 632 l 1
 421 632 l 1
 421 579 l 1
 263 579 l 1
263 526 m 1
 263 579 l 1
 421 579 l 1
 421 526 l 1
 263 526 l 1
263 474 m 1
 263 526 l 1
 421 526 l 1
 421 474 l 1
 263 474 l 1
263 421 m 1
 263 474 l 1
 421 474 l 1
 421 421 l 1
 263 421 l 1
263 368 m 1
 263 421 l 1
 421 421 l 1
 421 368 l 1
 263 368 l 1
263 316 m 1
 263 368 l 1
 421 368 l 1
 421 316 l 1
 263 316 l 1
263 263 m 1
 263 316 l 1
 421 316 l 1
 421 263 l 1
 263 263 l 1
263 211 m 1
 263 263 l 1
 421 263 l 1
 421 211 l 1
 263 211 l 1
263 158 m 1
 263 211 l 1
 421 211 l 1
 421 158 l 1
 263 158 l 1
263 105 m 1
 263 158 l 1
 421 158 l 1
 421 105 l 1
 263 105 l 1
263 53 m 1
 263 105 l 1
 421 105 l 1
 421 53 l 1
 263 53 l 1
263 0 m 1
 263 53 l 1
 421 53 l 1
 421 0 l 1
 263 0 l 1
105 -53 m 1
 105 0 l 1
 421 0 l 1
 421 -53 l 1
 105 -53 l 1
105 -105 m 1
 105 -53 l 1
 421 -53 l 1
 421 -105 l 1
 105 -105 l 1
EndSplineSet
EndChar

StartChar: asciicircum
Encoding: 94 94 63
Width: 579
Flags: HW
LayerCount: 2
Back
Fore
SplineSet
263 579 m 1
 263 632 l 1
 316 632 l 1
 316 579 l 1
 263 579 l 1
211 526 m 1
 211 579 l 1
 368 579 l 1
 368 526 l 1
 211 526 l 1
211 474 m 1
 211 526 l 1
 368 526 l 1
 368 474 l 1
 211 474 l 1
158 421 m 1
 158 474 l 1
 263 474 l 1
 263 421 l 1
 158 421 l 1
316 421 m 1
 316 474 l 1
 421 474 l 1
 421 421 l 1
 316 421 l 1
158 368 m 1
 158 421 l 1
 263 421 l 1
 263 368 l 1
 158 368 l 1
316 368 m 1
 316 421 l 1
 421 421 l 1
 421 368 l 1
 316 368 l 1
105 316 m 1
 105 368 l 1
 211 368 l 1
 211 316 l 1
 105 316 l 1
368 316 m 1
 368 368 l 1
 474 368 l 1
 474 316 l 1
 368 316 l 1
105 263 m 1
 105 316 l 1
 211 316 l 1
 211 263 l 1
 105 263 l 1
368 263 m 1
 368 316 l 1
 474 316 l 1
 474 263 l 1
 368 263 l 1
53 211 m 1
 53 263 l 1
 158 263 l 1
 158 211 l 1
 53 211 l 1
421 211 m 1
 421 263 l 1
 526 263 l 1
 526 211 l 1
 421 211 l 1
53 158 m 1
 53 211 l 1
 158 211 l 1
 158 158 l 1
 53 158 l 1
421 158 m 1
 421 211 l 1
 526 211 l 1
 526 158 l 1
 421 158 l 1
53 105 m 1
 53 158 l 1
 158 158 l 1
 158 105 l 1
 53 105 l 1
421 105 m 1
 421 158 l 1
 526 158 l 1
 526 105 l 1
 421 105 l 1
EndSplineSet
EndChar

StartChar: underscore
Encoding: 95 95 64
Width: 579
Flags: HW
LayerCount: 2
Back
Fore
SplineSet
0 -53 m 1
 0 0 l 1
 579 0 l 1
 579 -53 l 1
 0 -53 l 1
0 -105 m 1
 0 -53 l 1
 579 -53 l 1
 579 -105 l 1
 0 -105 l 1
EndSplineSet
EndChar

StartChar: grave
Encoding: 96 96 65
Width: 579
Flags: HW
LayerCount: 2
Back
Fore
SplineSet
158 632 m 1
 158 684 l 1
 368 684 l 1
 368 632 l 1
 158 632 l 1
263 579 m 1
 263 632 l 1
 421 632 l 1
 421 579 l 1
 263 579 l 1
EndSplineSet
EndChar

StartChar: a
Encoding: 97 97 66
Width: 579
Flags: HW
LayerCount: 2
Back
Fore
SplineSet
158 474 m 1
 158 526 l 1
 421 526 l 1
 421 474 l 1
 158 474 l 1
105 421 m 1
 105 474 l 1
 474 474 l 1
 474 421 l 1
 105 421 l 1
105 368 m 1
 105 421 l 1
 211 421 l 1
 211 368 l 1
 105 368 l 1
368 368 m 1
 368 421 l 1
 526 421 l 1
 526 368 l 1
 368 368 l 1
368 316 m 1
 368 368 l 1
 526 368 l 1
 526 316 l 1
 368 316 l 1
211 263 m 1
 211 316 l 1
 526 316 l 1
 526 263 l 1
 211 263 l 1
105 211 m 1
 105 263 l 1
 526 263 l 1
 526 211 l 1
 105 211 l 1
53 158 m 1
 53 211 l 1
 211 211 l 1
 211 158 l 1
 53 158 l 1
368 158 m 1
 368 211 l 1
 526 211 l 1
 526 158 l 1
 368 158 l 1
53 105 m 1
 53 158 l 1
 211 158 l 1
 211 105 l 1
 53 105 l 1
368 105 m 1
 368 158 l 1
 526 158 l 1
 526 105 l 1
 368 105 l 1
53 53 m 1
 53 105 l 1
 579 105 l 1
 579 53 l 1
 53 53 l 1
105 0 m 1
 105 53 l 1
 316 53 l 1
 316 0 l 1
 105 0 l 1
421 0 m 1
 421 53 l 1
 579 53 l 1
 579 0 l 1
 421 0 l 1
EndSplineSet
EndChar

StartChar: b
Encoding: 98 98 67
Width: 579
Flags: HW
LayerCount: 2
Back
Fore
SplineSet
53 684 m 1
 53 737 l 1
 211 737 l 1
 211 684 l 1
 53 684 l 1
53 632 m 1
 53 684 l 1
 211 684 l 1
 211 632 l 1
 53 632 l 1
53 579 m 1
 53 632 l 1
 211 632 l 1
 211 579 l 1
 53 579 l 1
53 526 m 1
 53 579 l 1
 211 579 l 1
 211 526 l 1
 53 526 l 1
53 474 m 1
 53 526 l 1
 211 526 l 1
 211 474 l 1
 53 474 l 1
263 474 m 1
 263 526 l 1
 421 526 l 1
 421 474 l 1
 263 474 l 1
53 421 m 1
 53 474 l 1
 474 474 l 1
 474 421 l 1
 53 421 l 1
53 368 m 1
 53 421 l 1
 263 421 l 1
 263 368 l 1
 53 368 l 1
316 368 m 1
 316 421 l 1
 526 421 l 1
 526 368 l 1
 316 368 l 1
53 316 m 1
 53 368 l 1
 211 368 l 1
 211 316 l 1
 53 316 l 1
368 316 m 1
 368 368 l 1
 526 368 l 1
 526 316 l 1
 368 316 l 1
53 263 m 1
 53 316 l 1
 211 316 l 1
 211 263 l 1
 53 263 l 1
368 263 m 1
 368 316 l 1
 526 316 l 1
 526 263 l 1
 368 263 l 1
53 211 m 1
 53 263 l 1
 211 263 l 1
 211 211 l 1
 53 211 l 1
368 211 m 1
 368 263 l 1
 526 263 l 1
 526 211 l 1
 368 211 l 1
53 158 m 1
 53 211 l 1
 211 211 l 1
 211 158 l 1
 53 158 l 1
368 158 m 1
 368 211 l 1
 526 211 l 1
 526 158 l 1
 368 158 l 1
53 105 m 1
 53 158 l 1
 211 158 l 1
 211 105 l 1
 53 105 l 1
316 105 m 1
 316 158 l 1
 474 158 l 1
 474 105 l 1
 316 105 l 1
53 53 m 1
 53 105 l 1
 474 105 l 1
 474 53 l 1
 53 53 l 1
53 0 m 1
 53 53 l 1
 158 53 l 1
 158 0 l 1
 53 0 l 1
211 0 m 1
 211 53 l 1
 368 53 l 1
 368 0 l 1
 211 0 l 1
EndSplineSet
EndChar

StartChar: c
Encoding: 99 99 68
Width: 579
Flags: HW
LayerCount: 2
Back
Fore
SplineSet
211 474 m 1
 211 526 l 1
 474 526 l 1
 474 474 l 1
 211 474 l 1
105 421 m 1
 105 474 l 1
 526 474 l 1
 526 421 l 1
 105 421 l 1
105 368 m 1
 105 421 l 1
 263 421 l 1
 263 368 l 1
 105 368 l 1
421 368 m 1
 421 421 l 1
 526 421 l 1
 526 368 l 1
 421 368 l 1
53 316 m 1
 53 368 l 1
 211 368 l 1
 211 316 l 1
 53 316 l 1
53 263 m 1
 53 316 l 1
 211 316 l 1
 211 263 l 1
 53 263 l 1
53 211 m 1
 53 263 l 1
 211 263 l 1
 211 211 l 1
 53 211 l 1
53 158 m 1
 53 211 l 1
 211 211 l 1
 211 158 l 1
 53 158 l 1
53 105 m 1
 53 158 l 1
 263 158 l 1
 263 105 l 1
 53 105 l 1
421 105 m 1
 421 158 l 1
 526 158 l 1
 526 105 l 1
 421 105 l 1
105 53 m 1
 105 105 l 1
 526 105 l 1
 526 53 l 1
 105 53 l 1
211 0 m 1
 211 53 l 1
 421 53 l 1
 421 0 l 1
 211 0 l 1
EndSplineSet
EndChar

StartChar: d
Encoding: 100 100 69
Width: 579
Flags: HW
LayerCount: 2
Back
Fore
SplineSet
368 684 m 1
 368 737 l 1
 526 737 l 1
 526 684 l 1
 368 684 l 1
368 632 m 1
 368 684 l 1
 526 684 l 1
 526 632 l 1
 368 632 l 1
368 579 m 1
 368 632 l 1
 526 632 l 1
 526 579 l 1
 368 579 l 1
368 526 m 1
 368 579 l 1
 526 579 l 1
 526 526 l 1
 368 526 l 1
211 474 m 1
 211 526 l 1
 316 526 l 1
 316 474 l 1
 211 474 l 1
368 474 m 1
 368 526 l 1
 526 526 l 1
 526 474 l 1
 368 474 l 1
105 421 m 1
 105 474 l 1
 526 474 l 1
 526 421 l 1
 105 421 l 1
105 368 m 1
 105 421 l 1
 263 421 l 1
 263 368 l 1
 105 368 l 1
316 368 m 1
 316 421 l 1
 526 421 l 1
 526 368 l 1
 316 368 l 1
53 316 m 1
 53 368 l 1
 211 368 l 1
 211 316 l 1
 53 316 l 1
368 316 m 1
 368 368 l 1
 526 368 l 1
 526 316 l 1
 368 316 l 1
53 263 m 1
 53 316 l 1
 211 316 l 1
 211 263 l 1
 53 263 l 1
368 263 m 1
 368 316 l 1
 526 316 l 1
 526 263 l 1
 368 263 l 1
53 211 m 1
 53 263 l 1
 211 263 l 1
 211 211 l 1
 53 211 l 1
368 211 m 1
 368 263 l 1
 526 263 l 1
 526 211 l 1
 368 211 l 1
53 158 m 1
 53 211 l 1
 211 211 l 1
 211 158 l 1
 53 158 l 1
368 158 m 1
 368 211 l 1
 526 211 l 1
 526 158 l 1
 368 158 l 1
53 105 m 1
 53 158 l 1
 263 158 l 1
 263 105 l 1
 53 105 l 1
316 105 m 1
 316 158 l 1
 526 158 l 1
 526 105 l 1
 316 105 l 1
105 53 m 1
 105 105 l 1
 526 105 l 1
 526 53 l 1
 105 53 l 1
158 0 m 1
 158 53 l 1
 316 53 l 1
 316 0 l 1
 158 0 l 1
421 0 m 1
 421 53 l 1
 526 53 l 1
 526 0 l 1
 421 0 l 1
EndSplineSet
EndChar

StartChar: e
Encoding: 101 101 70
Width: 579
Flags: HW
LayerCount: 2
Back
Fore
SplineSet
211 474 m 1
 211 526 l 1
 421 526 l 1
 421 474 l 1
 211 474 l 1
105 421 m 1
 105 474 l 1
 474 474 l 1
 474 421 l 1
 105 421 l 1
105 368 m 1
 105 421 l 1
 263 421 l 1
 263 368 l 1
 105 368 l 1
368 368 m 1
 368 421 l 1
 526 421 l 1
 526 368 l 1
 368 368 l 1
53 316 m 1
 53 368 l 1
 211 368 l 1
 211 316 l 1
 53 316 l 1
368 316 m 1
 368 368 l 1
 526 368 l 1
 526 316 l 1
 368 316 l 1
53 263 m 1
 53 316 l 1
 526 316 l 1
 526 263 l 1
 53 263 l 1
53 211 m 1
 53 263 l 1
 526 263 l 1
 526 211 l 1
 53 211 l 1
53 158 m 1
 53 211 l 1
 211 211 l 1
 211 158 l 1
 53 158 l 1
53 105 m 1
 53 158 l 1
 263 158 l 1
 263 105 l 1
 53 105 l 1
421 105 m 1
 421 158 l 1
 526 158 l 1
 526 105 l 1
 421 105 l 1
105 53 m 1
 105 105 l 1
 526 105 l 1
 526 53 l 1
 105 53 l 1
211 0 m 1
 211 53 l 1
 474 53 l 1
 474 0 l 1
 211 0 l 1
EndSplineSet
EndChar

StartChar: f
Encoding: 102 102 71
Width: 579
Flags: HW
LayerCount: 2
Back
Fore
SplineSet
263 684 m 1
 263 737 l 1
 526 737 l 1
 526 684 l 1
 263 684 l 1
211 632 m 1
 211 684 l 1
 526 684 l 1
 526 632 l 1
 211 632 l 1
158 579 m 1
 158 632 l 1
 316 632 l 1
 316 579 l 1
 158 579 l 1
158 526 m 1
 158 579 l 1
 316 579 l 1
 316 526 l 1
 158 526 l 1
158 474 m 1
 158 526 l 1
 316 526 l 1
 316 474 l 1
 158 474 l 1
53 421 m 1
 53 474 l 1
 526 474 l 1
 526 421 l 1
 53 421 l 1
53 368 m 1
 53 421 l 1
 526 421 l 1
 526 368 l 1
 53 368 l 1
158 316 m 1
 158 368 l 1
 316 368 l 1
 316 316 l 1
 158 316 l 1
158 263 m 1
 158 316 l 1
 316 316 l 1
 316 263 l 1
 158 263 l 1
158 211 m 1
 158 263 l 1
 316 263 l 1
 316 211 l 1
 158 211 l 1
158 158 m 1
 158 211 l 1
 316 211 l 1
 316 158 l 1
 158 158 l 1
158 105 m 1
 158 158 l 1
 316 158 l 1
 316 105 l 1
 158 105 l 1
158 53 m 1
 158 105 l 1
 316 105 l 1
 316 53 l 1
 158 53 l 1
158 0 m 1
 158 53 l 1
 316 53 l 1
 316 0 l 1
 158 0 l 1
EndSplineSet
EndChar

StartChar: g
Encoding: 103 103 72
Width: 579
Flags: HW
LayerCount: 2
Back
Fore
SplineSet
211 474 m 1
 211 526 l 1
 316 526 l 1
 316 474 l 1
 211 474 l 1
368 474 m 1
 368 526 l 1
 526 526 l 1
 526 474 l 1
 368 474 l 1
105 421 m 1
 105 474 l 1
 526 474 l 1
 526 421 l 1
 105 421 l 1
105 368 m 1
 105 421 l 1
 263 421 l 1
 263 368 l 1
 105 368 l 1
316 368 m 1
 316 421 l 1
 526 421 l 1
 526 368 l 1
 316 368 l 1
53 316 m 1
 53 368 l 1
 211 368 l 1
 211 316 l 1
 53 316 l 1
368 316 m 1
 368 368 l 1
 526 368 l 1
 526 316 l 1
 368 316 l 1
53 263 m 1
 53 316 l 1
 211 316 l 1
 211 263 l 1
 53 263 l 1
368 263 m 1
 368 316 l 1
 526 316 l 1
 526 263 l 1
 368 263 l 1
53 211 m 1
 53 263 l 1
 211 263 l 1
 211 211 l 1
 53 211 l 1
368 211 m 1
 368 263 l 1
 526 263 l 1
 526 211 l 1
 368 211 l 1
53 158 m 1
 53 211 l 1
 263 211 l 1
 263 158 l 1
 53 158 l 1
316 158 m 1
 316 211 l 1
 526 211 l 1
 526 158 l 1
 316 158 l 1
105 105 m 1
 105 158 l 1
 526 158 l 1
 526 105 l 1
 105 105 l 1
158 53 m 1
 158 105 l 1
 316 105 l 1
 316 53 l 1
 158 53 l 1
368 53 m 1
 368 105 l 1
 526 105 l 1
 526 53 l 1
 368 53 l 1
368 0 m 1
 368 53 l 1
 526 53 l 1
 526 0 l 1
 368 0 l 1
105 -53 m 1
 105 0 l 1
 211 0 l 1
 211 -53 l 1
 105 -53 l 1
368 -53 m 1
 368 0 l 1
 526 0 l 1
 526 -53 l 1
 368 -53 l 1
105 -105 m 1
 105 -53 l 1
 474 -53 l 1
 474 -105 l 1
 105 -105 l 1
158 -158 m 1
 158 -105 l 1
 421 -105 l 1
 421 -158 l 1
 158 -158 l 1
EndSplineSet
EndChar

StartChar: h
Encoding: 104 104 73
Width: 579
Flags: HW
LayerCount: 2
Back
Fore
SplineSet
53 684 m 1
 53 737 l 1
 211 737 l 1
 211 684 l 1
 53 684 l 1
53 632 m 1
 53 684 l 1
 211 684 l 1
 211 632 l 1
 53 632 l 1
53 579 m 1
 53 632 l 1
 211 632 l 1
 211 579 l 1
 53 579 l 1
53 526 m 1
 53 579 l 1
 211 579 l 1
 211 526 l 1
 53 526 l 1
53 474 m 1
 53 526 l 1
 211 526 l 1
 211 474 l 1
 53 474 l 1
263 474 m 1
 263 526 l 1
 474 526 l 1
 474 474 l 1
 263 474 l 1
53 421 m 1
 53 474 l 1
 526 474 l 1
 526 421 l 1
 53 421 l 1
53 368 m 1
 53 421 l 1
 263 421 l 1
 263 368 l 1
 53 368 l 1
368 368 m 1
 368 421 l 1
 526 421 l 1
 526 368 l 1
 368 368 l 1
53 316 m 1
 53 368 l 1
 211 368 l 1
 211 316 l 1
 53 316 l 1
368 316 m 1
 368 368 l 1
 526 368 l 1
 526 316 l 1
 368 316 l 1
53 263 m 1
 53 316 l 1
 211 316 l 1
 211 263 l 1
 53 263 l 1
368 263 m 1
 368 316 l 1
 526 316 l 1
 526 263 l 1
 368 263 l 1
53 211 m 1
 53 263 l 1
 211 263 l 1
 211 211 l 1
 53 211 l 1
368 211 m 1
 368 263 l 1
 526 263 l 1
 526 211 l 1
 368 211 l 1
53 158 m 1
 53 211 l 1
 211 211 l 1
 211 158 l 1
 53 158 l 1
368 158 m 1
 368 211 l 1
 526 211 l 1
 526 158 l 1
 368 158 l 1
53 105 m 1
 53 158 l 1
 211 158 l 1
 211 105 l 1
 53 105 l 1
368 105 m 1
 368 158 l 1
 526 158 l 1
 526 105 l 1
 368 105 l 1
53 53 m 1
 53 105 l 1
 211 105 l 1
 211 53 l 1
 53 53 l 1
368 53 m 1
 368 105 l 1
 526 105 l 1
 526 53 l 1
 368 53 l 1
53 0 m 1
 53 53 l 1
 211 53 l 1
 211 0 l 1
 53 0 l 1
368 0 m 1
 368 53 l 1
 526 53 l 1
 526 0 l 1
 368 0 l 1
EndSplineSet
EndChar

StartChar: i
Encoding: 105 105 74
Width: 579
Flags: HW
LayerCount: 2
Back
Fore
SplineSet
263 684 m 1
 263 737 l 1
 421 737 l 1
 421 684 l 1
 263 684 l 1
263 632 m 1
 263 684 l 1
 421 684 l 1
 421 632 l 1
 263 632 l 1
105 474 m 1
 105 526 l 1
 421 526 l 1
 421 474 l 1
 105 474 l 1
105 421 m 1
 105 474 l 1
 421 474 l 1
 421 421 l 1
 105 421 l 1
263 368 m 1
 263 421 l 1
 421 421 l 1
 421 368 l 1
 263 368 l 1
263 316 m 1
 263 368 l 1
 421 368 l 1
 421 316 l 1
 263 316 l 1
263 263 m 1
 263 316 l 1
 421 316 l 1
 421 263 l 1
 263 263 l 1
263 211 m 1
 263 263 l 1
 421 263 l 1
 421 211 l 1
 263 211 l 1
263 158 m 1
 263 211 l 1
 421 211 l 1
 421 158 l 1
 263 158 l 1
263 105 m 1
 263 158 l 1
 421 158 l 1
 421 105 l 1
 263 105 l 1
263 53 m 1
 263 105 l 1
 421 105 l 1
 421 53 l 1
 263 53 l 1
263 0 m 1
 263 53 l 1
 421 53 l 1
 421 0 l 1
 263 0 l 1
EndSplineSet
EndChar

StartChar: j
Encoding: 106 106 75
Width: 579
Flags: HW
LayerCount: 2
Back
Fore
SplineSet
263 684 m 1
 263 737 l 1
 421 737 l 1
 421 684 l 1
 263 684 l 1
263 632 m 1
 263 684 l 1
 421 684 l 1
 421 632 l 1
 263 632 l 1
105 474 m 1
 105 526 l 1
 421 526 l 1
 421 474 l 1
 105 474 l 1
105 421 m 1
 105 474 l 1
 421 474 l 1
 421 421 l 1
 105 421 l 1
263 368 m 1
 263 421 l 1
 421 421 l 1
 421 368 l 1
 263 368 l 1
263 316 m 1
 263 368 l 1
 421 368 l 1
 421 316 l 1
 263 316 l 1
263 263 m 1
 263 316 l 1
 421 316 l 1
 421 263 l 1
 263 263 l 1
263 211 m 1
 263 263 l 1
 421 263 l 1
 421 211 l 1
 263 211 l 1
263 158 m 1
 263 211 l 1
 421 211 l 1
 421 158 l 1
 263 158 l 1
263 105 m 1
 263 158 l 1
 421 158 l 1
 421 105 l 1
 263 105 l 1
263 53 m 1
 263 105 l 1
 421 105 l 1
 421 53 l 1
 263 53 l 1
263 0 m 1
 263 53 l 1
 421 53 l 1
 421 0 l 1
 263 0 l 1
263 -53 m 1
 263 0 l 1
 368 0 l 1
 368 -53 l 1
 263 -53 l 1
53 -105 m 1
 53 -53 l 1
 368 -53 l 1
 368 -105 l 1
 53 -105 l 1
53 -158 m 1
 53 -105 l 1
 263 -105 l 1
 263 -158 l 1
 53 -158 l 1
EndSplineSet
EndChar

StartChar: k
Encoding: 107 107 76
Width: 579
Flags: HW
LayerCount: 2
Back
Fore
SplineSet
53 684 m 1
 53 737 l 1
 211 737 l 1
 211 684 l 1
 53 684 l 1
53 632 m 1
 53 684 l 1
 211 684 l 1
 211 632 l 1
 53 632 l 1
53 579 m 1
 53 632 l 1
 211 632 l 1
 211 579 l 1
 53 579 l 1
53 526 m 1
 53 579 l 1
 211 579 l 1
 211 526 l 1
 53 526 l 1
53 474 m 1
 53 526 l 1
 211 526 l 1
 211 474 l 1
 53 474 l 1
421 474 m 1
 421 526 l 1
 526 526 l 1
 526 474 l 1
 421 474 l 1
53 421 m 1
 53 474 l 1
 211 474 l 1
 211 421 l 1
 53 421 l 1
368 421 m 1
 368 474 l 1
 526 474 l 1
 526 421 l 1
 368 421 l 1
53 368 m 1
 53 421 l 1
 211 421 l 1
 211 368 l 1
 53 368 l 1
316 368 m 1
 316 421 l 1
 474 421 l 1
 474 368 l 1
 316 368 l 1
53 316 m 1
 53 368 l 1
 211 368 l 1
 211 316 l 1
 53 316 l 1
263 316 m 1
 263 368 l 1
 421 368 l 1
 421 316 l 1
 263 316 l 1
53 263 m 1
 53 316 l 1
 368 316 l 1
 368 263 l 1
 53 263 l 1
53 211 m 1
 53 263 l 1
 368 263 l 1
 368 211 l 1
 53 211 l 1
53 158 m 1
 53 211 l 1
 211 211 l 1
 211 158 l 1
 53 158 l 1
263 158 m 1
 263 211 l 1
 421 211 l 1
 421 158 l 1
 263 158 l 1
53 105 m 1
 53 158 l 1
 211 158 l 1
 211 105 l 1
 53 105 l 1
316 105 m 1
 316 158 l 1
 474 158 l 1
 474 105 l 1
 316 105 l 1
53 53 m 1
 53 105 l 1
 211 105 l 1
 211 53 l 1
 53 53 l 1
316 53 m 1
 316 105 l 1
 526 105 l 1
 526 53 l 1
 316 53 l 1
53 0 m 1
 53 53 l 1
 211 53 l 1
 211 0 l 1
 53 0 l 1
368 0 m 1
 368 53 l 1
 526 53 l 1
 526 0 l 1
 368 0 l 1
EndSplineSet
EndChar

StartChar: l
Encoding: 108 108 77
Width: 579
Flags: HW
LayerCount: 2
Back
Fore
SplineSet
105 684 m 1
 105 737 l 1
 421 737 l 1
 421 684 l 1
 105 684 l 1
105 632 m 1
 105 684 l 1
 421 684 l 1
 421 632 l 1
 105 632 l 1
263 579 m 1
 263 632 l 1
 421 632 l 1
 421 579 l 1
 263 579 l 1
263 526 m 1
 263 579 l 1
 421 579 l 1
 421 526 l 1
 263 526 l 1
263 474 m 1
 263 526 l 1
 421 526 l 1
 421 474 l 1
 263 474 l 1
263 421 m 1
 263 474 l 1
 421 474 l 1
 421 421 l 1
 263 421 l 1
263 368 m 1
 263 421 l 1
 421 421 l 1
 421 368 l 1
 263 368 l 1
263 316 m 1
 263 368 l 1
 421 368 l 1
 421 316 l 1
 263 316 l 1
263 263 m 1
 263 316 l 1
 421 316 l 1
 421 263 l 1
 263 263 l 1
263 211 m 1
 263 263 l 1
 421 263 l 1
 421 211 l 1
 263 211 l 1
263 158 m 1
 263 211 l 1
 421 211 l 1
 421 158 l 1
 263 158 l 1
263 105 m 1
 263 158 l 1
 421 158 l 1
 421 105 l 1
 263 105 l 1
263 53 m 1
 263 105 l 1
 421 105 l 1
 421 53 l 1
 263 53 l 1
263 0 m 1
 263 53 l 1
 421 53 l 1
 421 0 l 1
 263 0 l 1
EndSplineSet
EndChar

StartChar: m
Encoding: 109 109 78
Width: 579
Flags: HW
LayerCount: 2
Back
Fore
SplineSet
53 474 m 1
 53 526 l 1
 158 526 l 1
 158 474 l 1
 53 474 l 1
211 474 m 1
 211 526 l 1
 316 526 l 1
 316 474 l 1
 211 474 l 1
421 474 m 1
 421 526 l 1
 526 526 l 1
 526 474 l 1
 421 474 l 1
53 421 m 1
 53 474 l 1
 579 474 l 1
 579 421 l 1
 53 421 l 1
53 368 m 1
 53 421 l 1
 211 421 l 1
 211 368 l 1
 53 368 l 1
263 368 m 1
 263 421 l 1
 421 421 l 1
 421 368 l 1
 263 368 l 1
474 368 m 1
 474 421 l 1
 579 421 l 1
 579 368 l 1
 474 368 l 1
53 316 m 1
 53 368 l 1
 158 368 l 1
 158 316 l 1
 53 316 l 1
263 316 m 1
 263 368 l 1
 368 368 l 1
 368 316 l 1
 263 316 l 1
474 316 m 1
 474 368 l 1
 579 368 l 1
 579 316 l 1
 474 316 l 1
53 263 m 1
 53 316 l 1
 158 316 l 1
 158 263 l 1
 53 263 l 1
263 263 m 1
 263 316 l 1
 368 316 l 1
 368 263 l 1
 263 263 l 1
474 263 m 1
 474 316 l 1
 579 316 l 1
 579 263 l 1
 474 263 l 1
53 211 m 1
 53 263 l 1
 158 263 l 1
 158 211 l 1
 53 211 l 1
263 211 m 1
 263 263 l 1
 368 263 l 1
 368 211 l 1
 263 211 l 1
474 211 m 1
 474 263 l 1
 579 263 l 1
 579 211 l 1
 474 211 l 1
53 158 m 1
 53 211 l 1
 158 211 l 1
 158 158 l 1
 53 158 l 1
263 158 m 1
 263 211 l 1
 368 211 l 1
 368 158 l 1
 263 158 l 1
474 158 m 1
 474 211 l 1
 579 211 l 1
 579 158 l 1
 474 158 l 1
53 105 m 1
 53 158 l 1
 158 158 l 1
 158 105 l 1
 53 105 l 1
263 105 m 1
 263 158 l 1
 368 158 l 1
 368 105 l 1
 263 105 l 1
474 105 m 1
 474 158 l 1
 579 158 l 1
 579 105 l 1
 474 105 l 1
53 53 m 1
 53 105 l 1
 158 105 l 1
 158 53 l 1
 53 53 l 1
263 53 m 1
 263 105 l 1
 368 105 l 1
 368 53 l 1
 263 53 l 1
474 53 m 1
 474 105 l 1
 579 105 l 1
 579 53 l 1
 474 53 l 1
53 0 m 1
 53 53 l 1
 158 53 l 1
 158 0 l 1
 53 0 l 1
263 0 m 1
 263 53 l 1
 368 53 l 1
 368 0 l 1
 263 0 l 1
474 0 m 1
 474 53 l 1
 579 53 l 1
 579 0 l 1
 474 0 l 1
EndSplineSet
EndChar

StartChar: n
Encoding: 110 110 79
Width: 579
Flags: HW
LayerCount: 2
Back
Fore
SplineSet
53 474 m 1
 53 526 l 1
 158 526 l 1
 158 474 l 1
 53 474 l 1
263 474 m 1
 263 526 l 1
 474 526 l 1
 474 474 l 1
 263 474 l 1
53 421 m 1
 53 474 l 1
 526 474 l 1
 526 421 l 1
 53 421 l 1
53 368 m 1
 53 421 l 1
 263 421 l 1
 263 368 l 1
 53 368 l 1
368 368 m 1
 368 421 l 1
 526 421 l 1
 526 368 l 1
 368 368 l 1
53 316 m 1
 53 368 l 1
 211 368 l 1
 211 316 l 1
 53 316 l 1
368 316 m 1
 368 368 l 1
 526 368 l 1
 526 316 l 1
 368 316 l 1
53 263 m 1
 53 316 l 1
 211 316 l 1
 211 263 l 1
 53 263 l 1
368 263 m 1
 368 316 l 1
 526 316 l 1
 526 263 l 1
 368 263 l 1
53 211 m 1
 53 263 l 1
 211 263 l 1
 211 211 l 1
 53 211 l 1
368 211 m 1
 368 263 l 1
 526 263 l 1
 526 211 l 1
 368 211 l 1
53 158 m 1
 53 211 l 1
 211 211 l 1
 211 158 l 1
 53 158 l 1
368 158 m 1
 368 211 l 1
 526 211 l 1
 526 158 l 1
 368 158 l 1
53 105 m 1
 53 158 l 1
 211 158 l 1
 211 105 l 1
 53 105 l 1
368 105 m 1
 368 158 l 1
 526 158 l 1
 526 105 l 1
 368 105 l 1
53 53 m 1
 53 105 l 1
 211 105 l 1
 211 53 l 1
 53 53 l 1
368 53 m 1
 368 105 l 1
 526 105 l 1
 526 53 l 1
 368 53 l 1
53 0 m 1
 53 53 l 1
 211 53 l 1
 211 0 l 1
 53 0 l 1
368 0 m 1
 368 53 l 1
 526 53 l 1
 526 0 l 1
 368 0 l 1
EndSplineSet
EndChar

StartChar: o
Encoding: 111 111 80
Width: 579
Flags: HW
LayerCount: 2
Back
Fore
SplineSet
211 474 m 1
 211 526 l 1
 421 526 l 1
 421 474 l 1
 211 474 l 1
105 421 m 1
 105 474 l 1
 526 474 l 1
 526 421 l 1
 105 421 l 1
105 368 m 1
 105 421 l 1
 263 421 l 1
 263 368 l 1
 105 368 l 1
368 368 m 1
 368 421 l 1
 526 421 l 1
 526 368 l 1
 368 368 l 1
53 316 m 1
 53 368 l 1
 211 368 l 1
 211 316 l 1
 53 316 l 1
421 316 m 1
 421 368 l 1
 579 368 l 1
 579 316 l 1
 421 316 l 1
53 263 m 1
 53 316 l 1
 211 316 l 1
 211 263 l 1
 53 263 l 1
421 263 m 1
 421 316 l 1
 579 316 l 1
 579 263 l 1
 421 263 l 1
53 211 m 1
 53 263 l 1
 211 263 l 1
 211 211 l 1
 53 211 l 1
421 211 m 1
 421 263 l 1
 579 263 l 1
 579 211 l 1
 421 211 l 1
53 158 m 1
 53 211 l 1
 211 211 l 1
 211 158 l 1
 53 158 l 1
421 158 m 1
 421 211 l 1
 579 211 l 1
 579 158 l 1
 421 158 l 1
105 105 m 1
 105 158 l 1
 263 158 l 1
 263 105 l 1
 105 105 l 1
368 105 m 1
 368 158 l 1
 526 158 l 1
 526 105 l 1
 368 105 l 1
105 53 m 1
 105 105 l 1
 526 105 l 1
 526 53 l 1
 105 53 l 1
211 0 m 1
 211 53 l 1
 421 53 l 1
 421 0 l 1
 211 0 l 1
EndSplineSet
EndChar

StartChar: p
Encoding: 112 112 81
Width: 579
Flags: HW
LayerCount: 2
Back
Fore
SplineSet
53 474 m 1
 53 526 l 1
 158 526 l 1
 158 474 l 1
 53 474 l 1
263 474 m 1
 263 526 l 1
 421 526 l 1
 421 474 l 1
 263 474 l 1
53 421 m 1
 53 474 l 1
 474 474 l 1
 474 421 l 1
 53 421 l 1
53 368 m 1
 53 421 l 1
 263 421 l 1
 263 368 l 1
 53 368 l 1
316 368 m 1
 316 421 l 1
 526 421 l 1
 526 368 l 1
 316 368 l 1
53 316 m 1
 53 368 l 1
 211 368 l 1
 211 316 l 1
 53 316 l 1
368 316 m 1
 368 368 l 1
 526 368 l 1
 526 316 l 1
 368 316 l 1
53 263 m 1
 53 316 l 1
 211 316 l 1
 211 263 l 1
 53 263 l 1
368 263 m 1
 368 316 l 1
 526 316 l 1
 526 263 l 1
 368 263 l 1
53 211 m 1
 53 263 l 1
 211 263 l 1
 211 211 l 1
 53 211 l 1
368 211 m 1
 368 263 l 1
 526 263 l 1
 526 211 l 1
 368 211 l 1
53 158 m 1
 53 211 l 1
 211 211 l 1
 211 158 l 1
 53 158 l 1
368 158 m 1
 368 211 l 1
 526 211 l 1
 526 158 l 1
 368 158 l 1
53 105 m 1
 53 158 l 1
 211 158 l 1
 211 105 l 1
 53 105 l 1
316 105 m 1
 316 158 l 1
 474 158 l 1
 474 105 l 1
 316 105 l 1
53 53 m 1
 53 105 l 1
 474 105 l 1
 474 53 l 1
 53 53 l 1
53 0 m 1
 53 53 l 1
 211 53 l 1
 211 0 l 1
 53 0 l 1
263 0 m 1
 263 53 l 1
 368 53 l 1
 368 0 l 1
 263 0 l 1
53 -53 m 1
 53 0 l 1
 211 0 l 1
 211 -53 l 1
 53 -53 l 1
53 -105 m 1
 53 -53 l 1
 211 -53 l 1
 211 -105 l 1
 53 -105 l 1
53 -158 m 1
 53 -105 l 1
 211 -105 l 1
 211 -158 l 1
 53 -158 l 1
EndSplineSet
EndChar

StartChar: q
Encoding: 113 113 82
Width: 579
Flags: HW
LayerCount: 2
Back
Fore
SplineSet
211 474 m 1
 211 526 l 1
 316 526 l 1
 316 474 l 1
 211 474 l 1
368 474 m 1
 368 526 l 1
 526 526 l 1
 526 474 l 1
 368 474 l 1
105 421 m 1
 105 474 l 1
 526 474 l 1
 526 421 l 1
 105 421 l 1
105 368 m 1
 105 421 l 1
 263 421 l 1
 263 368 l 1
 105 368 l 1
316 368 m 1
 316 421 l 1
 526 421 l 1
 526 368 l 1
 316 368 l 1
53 316 m 1
 53 368 l 1
 211 368 l 1
 211 316 l 1
 53 316 l 1
368 316 m 1
 368 368 l 1
 526 368 l 1
 526 316 l 1
 368 316 l 1
53 263 m 1
 53 316 l 1
 211 316 l 1
 211 263 l 1
 53 263 l 1
368 263 m 1
 368 316 l 1
 526 316 l 1
 526 263 l 1
 368 263 l 1
53 211 m 1
 53 263 l 1
 211 263 l 1
 211 211 l 1
 53 211 l 1
368 211 m 1
 368 263 l 1
 526 263 l 1
 526 211 l 1
 368 211 l 1
53 158 m 1
 53 211 l 1
 211 211 l 1
 211 158 l 1
 53 158 l 1
368 158 m 1
 368 211 l 1
 526 211 l 1
 526 158 l 1
 368 158 l 1
53 105 m 1
 53 158 l 1
 263 158 l 1
 263 105 l 1
 53 105 l 1
316 105 m 1
 316 158 l 1
 526 158 l 1
 526 105 l 1
 316 105 l 1
105 53 m 1
 105 105 l 1
 526 105 l 1
 526 53 l 1
 105 53 l 1
158 0 m 1
 158 53 l 1
 316 53 l 1
 316 0 l 1
 158 0 l 1
368 0 m 1
 368 53 l 1
 526 53 l 1
 526 0 l 1
 368 0 l 1
368 -53 m 1
 368 0 l 1
 526 0 l 1
 526 -53 l 1
 368 -53 l 1
368 -105 m 1
 368 -53 l 1
 526 -53 l 1
 526 -105 l 1
 368 -105 l 1
368 -158 m 1
 368 -105 l 1
 526 -105 l 1
 526 -158 l 1
 368 -158 l 1
EndSplineSet
EndChar

StartChar: r
Encoding: 114 114 83
Width: 579
Flags: HW
LayerCount: 2
Back
Fore
SplineSet
105 474 m 1
 105 526 l 1
 263 526 l 1
 263 474 l 1
 105 474 l 1
368 474 m 1
 368 526 l 1
 526 526 l 1
 526 474 l 1
 368 474 l 1
105 421 m 1
 105 474 l 1
 263 474 l 1
 263 421 l 1
 105 421 l 1
316 421 m 1
 316 474 l 1
 526 474 l 1
 526 421 l 1
 316 421 l 1
105 368 m 1
 105 421 l 1
 526 421 l 1
 526 368 l 1
 105 368 l 1
105 316 m 1
 105 368 l 1
 316 368 l 1
 316 316 l 1
 105 316 l 1
421 316 m 1
 421 368 l 1
 526 368 l 1
 526 316 l 1
 421 316 l 1
105 263 m 1
 105 316 l 1
 263 316 l 1
 263 263 l 1
 105 263 l 1
421 263 m 1
 421 316 l 1
 526 316 l 1
 526 263 l 1
 421 263 l 1
105 211 m 1
 105 263 l 1
 263 263 l 1
 263 211 l 1
 105 211 l 1
105 158 m 1
 105 211 l 1
 263 211 l 1
 263 158 l 1
 105 158 l 1
105 105 m 1
 105 158 l 1
 263 158 l 1
 263 105 l 1
 105 105 l 1
105 53 m 1
 105 105 l 1
 263 105 l 1
 263 53 l 1
 105 53 l 1
105 0 m 1
 105 53 l 1
 263 53 l 1
 263 0 l 1
 105 0 l 1
EndSplineSet
EndChar

StartChar: s
Encoding: 115 115 84
Width: 579
Flags: HW
LayerCount: 2
Back
Fore
SplineSet
158 474 m 1
 158 526 l 1
 474 526 l 1
 474 474 l 1
 158 474 l 1
105 421 m 1
 105 474 l 1
 526 474 l 1
 526 421 l 1
 105 421 l 1
53 368 m 1
 53 421 l 1
 211 421 l 1
 211 368 l 1
 53 368 l 1
421 368 m 1
 421 421 l 1
 526 421 l 1
 526 368 l 1
 421 368 l 1
53 316 m 1
 53 368 l 1
 263 368 l 1
 263 316 l 1
 53 316 l 1
105 263 m 1
 105 316 l 1
 368 316 l 1
 368 263 l 1
 105 263 l 1
211 211 m 1
 211 263 l 1
 474 263 l 1
 474 211 l 1
 211 211 l 1
316 158 m 1
 316 211 l 1
 526 211 l 1
 526 158 l 1
 316 158 l 1
53 105 m 1
 53 158 l 1
 158 158 l 1
 158 105 l 1
 53 105 l 1
368 105 m 1
 368 158 l 1
 526 158 l 1
 526 105 l 1
 368 105 l 1
53 53 m 1
 53 105 l 1
 474 105 l 1
 474 53 l 1
 53 53 l 1
105 0 m 1
 105 53 l 1
 421 53 l 1
 421 0 l 1
 105 0 l 1
EndSplineSet
EndChar

StartChar: t
Encoding: 116 116 85
Width: 579
Flags: HW
LayerCount: 2
Back
Fore
SplineSet
211 579 m 1
 211 632 l 1
 316 632 l 1
 316 579 l 1
 211 579 l 1
158 526 m 1
 158 579 l 1
 316 579 l 1
 316 526 l 1
 158 526 l 1
158 474 m 1
 158 526 l 1
 316 526 l 1
 316 474 l 1
 158 474 l 1
53 421 m 1
 53 474 l 1
 526 474 l 1
 526 421 l 1
 53 421 l 1
53 368 m 1
 53 421 l 1
 526 421 l 1
 526 368 l 1
 53 368 l 1
158 316 m 1
 158 368 l 1
 316 368 l 1
 316 316 l 1
 158 316 l 1
158 263 m 1
 158 316 l 1
 316 316 l 1
 316 263 l 1
 158 263 l 1
158 211 m 1
 158 263 l 1
 316 263 l 1
 316 211 l 1
 158 211 l 1
158 158 m 1
 158 211 l 1
 316 211 l 1
 316 158 l 1
 158 158 l 1
158 105 m 1
 158 158 l 1
 316 158 l 1
 316 105 l 1
 158 105 l 1
211 53 m 1
 211 105 l 1
 526 105 l 1
 526 53 l 1
 211 53 l 1
263 0 m 1
 263 53 l 1
 526 53 l 1
 526 0 l 1
 263 0 l 1
EndSplineSet
EndChar

StartChar: u
Encoding: 117 117 86
Width: 579
Flags: HW
LayerCount: 2
Back
Fore
SplineSet
53 474 m 1
 53 526 l 1
 211 526 l 1
 211 474 l 1
 53 474 l 1
368 474 m 1
 368 526 l 1
 526 526 l 1
 526 474 l 1
 368 474 l 1
53 421 m 1
 53 474 l 1
 211 474 l 1
 211 421 l 1
 53 421 l 1
368 421 m 1
 368 474 l 1
 526 474 l 1
 526 421 l 1
 368 421 l 1
53 368 m 1
 53 421 l 1
 211 421 l 1
 211 368 l 1
 53 368 l 1
368 368 m 1
 368 421 l 1
 526 421 l 1
 526 368 l 1
 368 368 l 1
53 316 m 1
 53 368 l 1
 211 368 l 1
 211 316 l 1
 53 316 l 1
368 316 m 1
 368 368 l 1
 526 368 l 1
 526 316 l 1
 368 316 l 1
53 263 m 1
 53 316 l 1
 211 316 l 1
 211 263 l 1
 53 263 l 1
368 263 m 1
 368 316 l 1
 526 316 l 1
 526 263 l 1
 368 263 l 1
53 211 m 1
 53 263 l 1
 211 263 l 1
 211 211 l 1
 53 211 l 1
368 211 m 1
 368 263 l 1
 526 263 l 1
 526 211 l 1
 368 211 l 1
53 158 m 1
 53 211 l 1
 211 211 l 1
 211 158 l 1
 53 158 l 1
368 158 m 1
 368 211 l 1
 526 211 l 1
 526 158 l 1
 368 158 l 1
53 105 m 1
 53 158 l 1
 211 158 l 1
 211 105 l 1
 53 105 l 1
316 105 m 1
 316 158 l 1
 526 158 l 1
 526 105 l 1
 316 105 l 1
53 53 m 1
 53 105 l 1
 526 105 l 1
 526 53 l 1
 53 53 l 1
105 0 m 1
 105 53 l 1
 316 53 l 1
 316 0 l 1
 105 0 l 1
421 0 m 1
 421 53 l 1
 526 53 l 1
 526 0 l 1
 421 0 l 1
EndSplineSet
EndChar

StartChar: v
Encoding: 118 118 87
Width: 579
Flags: HW
LayerCount: 2
Back
Fore
SplineSet
53 474 m 1
 53 526 l 1
 211 526 l 1
 211 474 l 1
 53 474 l 1
474 474 m 1
 474 526 l 1
 579 526 l 1
 579 474 l 1
 474 474 l 1
53 421 m 1
 53 474 l 1
 211 474 l 1
 211 421 l 1
 53 421 l 1
474 421 m 1
 474 474 l 1
 579 474 l 1
 579 421 l 1
 474 421 l 1
53 368 m 1
 53 421 l 1
 211 421 l 1
 211 368 l 1
 53 368 l 1
474 368 m 1
 474 421 l 1
 579 421 l 1
 579 368 l 1
 474 368 l 1
53 316 m 1
 53 368 l 1
 263 368 l 1
 263 316 l 1
 53 316 l 1
421 316 m 1
 421 368 l 1
 526 368 l 1
 526 316 l 1
 421 316 l 1
105 263 m 1
 105 316 l 1
 263 316 l 1
 263 263 l 1
 105 263 l 1
421 263 m 1
 421 316 l 1
 526 316 l 1
 526 263 l 1
 421 263 l 1
105 211 m 1
 105 263 l 1
 316 263 l 1
 316 211 l 1
 105 211 l 1
368 211 m 1
 368 263 l 1
 474 263 l 1
 474 211 l 1
 368 211 l 1
158 158 m 1
 158 211 l 1
 316 211 l 1
 316 158 l 1
 158 158 l 1
368 158 m 1
 368 211 l 1
 474 211 l 1
 474 158 l 1
 368 158 l 1
158 105 m 1
 158 158 l 1
 421 158 l 1
 421 105 l 1
 158 105 l 1
211 53 m 1
 211 105 l 1
 421 105 l 1
 421 53 l 1
 211 53 l 1
211 0 m 1
 211 53 l 1
 368 53 l 1
 368 0 l 1
 211 0 l 1
EndSplineSet
EndChar

StartChar: w
Encoding: 119 119 88
Width: 579
Flags: HW
LayerCount: 2
Back
Fore
SplineSet
0 474 m 1
 0 526 l 1
 158 526 l 1
 158 474 l 1
 0 474 l 1
474 474 m 1
 474 526 l 1
 579 526 l 1
 579 474 l 1
 474 474 l 1
0 421 m 1
 0 474 l 1
 158 474 l 1
 158 421 l 1
 0 421 l 1
263 421 m 1
 263 474 l 1
 368 474 l 1
 368 421 l 1
 263 421 l 1
474 421 m 1
 474 474 l 1
 579 474 l 1
 579 421 l 1
 474 421 l 1
0 368 m 1
 0 421 l 1
 158 421 l 1
 158 368 l 1
 0 368 l 1
263 368 m 1
 263 421 l 1
 368 421 l 1
 368 368 l 1
 263 368 l 1
474 368 m 1
 474 421 l 1
 579 421 l 1
 579 368 l 1
 474 368 l 1
0 316 m 1
 0 368 l 1
 158 368 l 1
 158 316 l 1
 0 316 l 1
263 316 m 1
 263 368 l 1
 368 368 l 1
 368 316 l 1
 263 316 l 1
474 316 m 1
 474 368 l 1
 579 368 l 1
 579 316 l 1
 474 316 l 1
0 263 m 1
 0 316 l 1
 158 316 l 1
 158 263 l 1
 0 263 l 1
211 263 m 1
 211 316 l 1
 421 316 l 1
 421 263 l 1
 211 263 l 1
474 263 m 1
 474 316 l 1
 526 316 l 1
 526 263 l 1
 474 263 l 1
53 211 m 1
 53 263 l 1
 158 263 l 1
 158 211 l 1
 53 211 l 1
211 211 m 1
 211 263 l 1
 421 263 l 1
 421 211 l 1
 211 211 l 1
474 211 m 1
 474 263 l 1
 526 263 l 1
 526 211 l 1
 474 211 l 1
53 158 m 1
 53 211 l 1
 263 211 l 1
 263 158 l 1
 53 158 l 1
316 158 m 1
 316 211 l 1
 526 211 l 1
 526 158 l 1
 316 158 l 1
53 105 m 1
 53 158 l 1
 263 158 l 1
 263 105 l 1
 53 105 l 1
316 105 m 1
 316 158 l 1
 474 158 l 1
 474 105 l 1
 316 105 l 1
105 53 m 1
 105 105 l 1
 211 105 l 1
 211 53 l 1
 105 53 l 1
368 53 m 1
 368 105 l 1
 474 105 l 1
 474 53 l 1
 368 53 l 1
105 0 m 1
 105 53 l 1
 211 53 l 1
 211 0 l 1
 105 0 l 1
368 0 m 1
 368 53 l 1
 474 53 l 1
 474 0 l 1
 368 0 l 1
EndSplineSet
EndChar

StartChar: x
Encoding: 120 120 89
Width: 579
Flags: HW
LayerCount: 2
Back
Fore
SplineSet
53 474 m 1
 53 526 l 1
 211 526 l 1
 211 474 l 1
 53 474 l 1
421 474 m 1
 421 526 l 1
 526 526 l 1
 526 474 l 1
 421 474 l 1
53 421 m 1
 53 474 l 1
 211 474 l 1
 211 421 l 1
 53 421 l 1
368 421 m 1
 368 474 l 1
 474 474 l 1
 474 421 l 1
 368 421 l 1
105 368 m 1
 105 421 l 1
 263 421 l 1
 263 368 l 1
 105 368 l 1
368 368 m 1
 368 421 l 1
 474 421 l 1
 474 368 l 1
 368 368 l 1
105 316 m 1
 105 368 l 1
 263 368 l 1
 263 316 l 1
 105 316 l 1
316 316 m 1
 316 368 l 1
 421 368 l 1
 421 316 l 1
 316 316 l 1
158 263 m 1
 158 316 l 1
 368 316 l 1
 368 263 l 1
 158 263 l 1
211 211 m 1
 211 263 l 1
 421 263 l 1
 421 211 l 1
 211 211 l 1
158 158 m 1
 158 211 l 1
 263 211 l 1
 263 158 l 1
 158 158 l 1
316 158 m 1
 316 211 l 1
 474 211 l 1
 474 158 l 1
 316 158 l 1
105 105 m 1
 105 158 l 1
 211 158 l 1
 211 105 l 1
 105 105 l 1
316 105 m 1
 316 158 l 1
 474 158 l 1
 474 105 l 1
 316 105 l 1
105 53 m 1
 105 105 l 1
 211 105 l 1
 211 53 l 1
 105 53 l 1
368 53 m 1
 368 105 l 1
 526 105 l 1
 526 53 l 1
 368 53 l 1
53 0 m 1
 53 53 l 1
 158 53 l 1
 158 0 l 1
 53 0 l 1
368 0 m 1
 368 53 l 1
 526 53 l 1
 526 0 l 1
 368 0 l 1
EndSplineSet
EndChar

StartChar: y
Encoding: 121 121 90
Width: 579
Flags: HW
LayerCount: 2
Back
Fore
SplineSet
53 474 m 1
 53 526 l 1
 211 526 l 1
 211 474 l 1
 53 474 l 1
474 474 m 1
 474 526 l 1
 579 526 l 1
 579 474 l 1
 474 474 l 1
53 421 m 1
 53 474 l 1
 211 474 l 1
 211 421 l 1
 53 421 l 1
474 421 m 1
 474 474 l 1
 579 474 l 1
 579 421 l 1
 474 421 l 1
53 368 m 1
 53 421 l 1
 211 421 l 1
 211 368 l 1
 53 368 l 1
474 368 m 1
 474 421 l 1
 579 421 l 1
 579 368 l 1
 474 368 l 1
105 316 m 1
 105 368 l 1
 263 368 l 1
 263 316 l 1
 105 316 l 1
421 316 m 1
 421 368 l 1
 526 368 l 1
 526 316 l 1
 421 316 l 1
105 263 m 1
 105 316 l 1
 263 316 l 1
 263 263 l 1
 105 263 l 1
421 263 m 1
 421 316 l 1
 526 316 l 1
 526 263 l 1
 421 263 l 1
158 211 m 1
 158 263 l 1
 316 263 l 1
 316 211 l 1
 158 211 l 1
368 211 m 1
 368 263 l 1
 474 263 l 1
 474 211 l 1
 368 211 l 1
158 158 m 1
 158 211 l 1
 316 211 l 1
 316 158 l 1
 158 158 l 1
368 158 m 1
 368 211 l 1
 474 211 l 1
 474 158 l 1
 368 158 l 1
211 105 m 1
 211 158 l 1
 421 158 l 1
 421 105 l 1
 211 105 l 1
211 53 m 1
 211 105 l 1
 421 105 l 1
 421 53 l 1
 211 53 l 1
263 0 m 1
 263 53 l 1
 368 53 l 1
 368 0 l 1
 263 0 l 1
211 -53 m 1
 211 0 l 1
 368 0 l 1
 368 -53 l 1
 211 -53 l 1
158 -105 m 1
 158 -53 l 1
 316 -53 l 1
 316 -105 l 1
 158 -105 l 1
158 -158 m 1
 158 -105 l 1
 316 -105 l 1
 316 -158 l 1
 158 -158 l 1
EndSplineSet
EndChar

StartChar: z
Encoding: 122 122 91
Width: 579
Flags: HW
LayerCount: 2
Back
Fore
SplineSet
53 474 m 1
 53 526 l 1
 526 526 l 1
 526 474 l 1
 53 474 l 1
53 421 m 1
 53 474 l 1
 526 474 l 1
 526 421 l 1
 53 421 l 1
316 368 m 1
 316 421 l 1
 474 421 l 1
 474 368 l 1
 316 368 l 1
263 316 m 1
 263 368 l 1
 421 368 l 1
 421 316 l 1
 263 316 l 1
211 263 m 1
 211 316 l 1
 368 316 l 1
 368 263 l 1
 211 263 l 1
158 211 m 1
 158 263 l 1
 316 263 l 1
 316 211 l 1
 158 211 l 1
105 158 m 1
 105 211 l 1
 263 211 l 1
 263 158 l 1
 105 158 l 1
53 105 m 1
 53 158 l 1
 211 158 l 1
 211 105 l 1
 53 105 l 1
53 53 m 1
 53 105 l 1
 526 105 l 1
 526 53 l 1
 53 53 l 1
53 0 m 1
 53 53 l 1
 526 53 l 1
 526 0 l 1
 53 0 l 1
EndSplineSet
EndChar

StartChar: braceleft
Encoding: 123 123 92
Width: 579
Flags: HW
LayerCount: 2
Back
Fore
SplineSet
211 684 m 1
 211 737 l 1
 526 737 l 1
 526 684 l 1
 211 684 l 1
158 632 m 1
 158 684 l 1
 526 684 l 1
 526 632 l 1
 158 632 l 1
158 579 m 1
 158 632 l 1
 316 632 l 1
 316 579 l 1
 158 579 l 1
158 526 m 1
 158 579 l 1
 316 579 l 1
 316 526 l 1
 158 526 l 1
211 474 m 1
 211 526 l 1
 368 526 l 1
 368 474 l 1
 211 474 l 1
263 421 m 1
 263 474 l 1
 368 474 l 1
 368 421 l 1
 263 421 l 1
263 368 m 1
 263 421 l 1
 368 421 l 1
 368 368 l 1
 263 368 l 1
105 316 m 1
 105 368 l 1
 316 368 l 1
 316 316 l 1
 105 316 l 1
105 263 m 1
 105 316 l 1
 368 316 l 1
 368 263 l 1
 105 263 l 1
263 211 m 1
 263 263 l 1
 368 263 l 1
 368 211 l 1
 263 211 l 1
263 158 m 1
 263 211 l 1
 368 211 l 1
 368 158 l 1
 263 158 l 1
211 105 m 1
 211 158 l 1
 316 158 l 1
 316 105 l 1
 211 105 l 1
158 53 m 1
 158 105 l 1
 316 105 l 1
 316 53 l 1
 158 53 l 1
158 0 m 1
 158 53 l 1
 316 53 l 1
 316 0 l 1
 158 0 l 1
158 -53 m 1
 158 0 l 1
 526 0 l 1
 526 -53 l 1
 158 -53 l 1
211 -105 m 1
 211 -53 l 1
 526 -53 l 1
 526 -105 l 1
 211 -105 l 1
EndSplineSet
EndChar

StartChar: bar
Encoding: 124 124 93
Width: 579
Flags: HW
LayerCount: 2
Back
Fore
SplineSet
263 684 m 1
 263 737 l 1
 368 737 l 1
 368 684 l 1
 263 684 l 1
263 632 m 1
 263 684 l 1
 368 684 l 1
 368 632 l 1
 263 632 l 1
263 579 m 1
 263 632 l 1
 368 632 l 1
 368 579 l 1
 263 579 l 1
263 526 m 1
 263 579 l 1
 368 579 l 1
 368 526 l 1
 263 526 l 1
263 474 m 1
 263 526 l 1
 368 526 l 1
 368 474 l 1
 263 474 l 1
263 421 m 1
 263 474 l 1
 368 474 l 1
 368 421 l 1
 263 421 l 1
263 368 m 1
 263 421 l 1
 368 421 l 1
 368 368 l 1
 263 368 l 1
263 316 m 1
 263 368 l 1
 368 368 l 1
 368 316 l 1
 263 316 l 1
263 263 m 1
 263 316 l 1
 368 316 l 1
 368 263 l 1
 263 263 l 1
263 211 m 1
 263 263 l 1
 368 263 l 1
 368 211 l 1
 263 211 l 1
263 158 m 1
 263 211 l 1
 368 211 l 1
 368 158 l 1
 263 158 l 1
263 105 m 1
 263 158 l 1
 368 158 l 1
 368 105 l 1
 263 105 l 1
263 53 m 1
 263 105 l 1
 368 105 l 1
 368 53 l 1
 263 53 l 1
263 0 m 1
 263 53 l 1
 368 53 l 1
 368 0 l 1
 263 0 l 1
263 -53 m 1
 263 0 l 1
 368 0 l 1
 368 -53 l 1
 263 -53 l 1
263 -105 m 1
 263 -53 l 1
 368 -53 l 1
 368 -105 l 1
 263 -105 l 1
EndSplineSet
EndChar

StartChar: braceright
Encoding: 125 125 94
Width: 579
Flags: HW
LayerCount: 2
Back
Fore
SplineSet
53 684 m 1
 53 737 l 1
 368 737 l 1
 368 684 l 1
 53 684 l 1
53 632 m 1
 53 684 l 1
 421 684 l 1
 421 632 l 1
 53 632 l 1
263 579 m 1
 263 632 l 1
 421 632 l 1
 421 579 l 1
 263 579 l 1
263 526 m 1
 263 579 l 1
 421 579 l 1
 421 526 l 1
 263 526 l 1
211 474 m 1
 211 526 l 1
 368 526 l 1
 368 474 l 1
 211 474 l 1
211 421 m 1
 211 474 l 1
 316 474 l 1
 316 421 l 1
 211 421 l 1
211 368 m 1
 211 421 l 1
 316 421 l 1
 316 368 l 1
 211 368 l 1
263 316 m 1
 263 368 l 1
 474 368 l 1
 474 316 l 1
 263 316 l 1
211 263 m 1
 211 316 l 1
 474 316 l 1
 474 263 l 1
 211 263 l 1
211 211 m 1
 211 263 l 1
 316 263 l 1
 316 211 l 1
 211 211 l 1
211 158 m 1
 211 211 l 1
 316 211 l 1
 316 158 l 1
 211 158 l 1
263 105 m 1
 263 158 l 1
 368 158 l 1
 368 105 l 1
 263 105 l 1
263 53 m 1
 263 105 l 1
 421 105 l 1
 421 53 l 1
 263 53 l 1
263 0 m 1
 263 53 l 1
 421 53 l 1
 421 0 l 1
 263 0 l 1
53 -53 m 1
 53 0 l 1
 421 0 l 1
 421 -53 l 1
 53 -53 l 1
53 -105 m 1
 53 -53 l 1
 368 -53 l 1
 368 -105 l 1
 53 -105 l 1
EndSplineSet
EndChar

StartChar: asciitilde
Encoding: 126 126 95
Width: 579
Flags: HW
LayerCount: 2
Back
Fore
SplineSet
105 368 m 1
 105 421 l 1
 368 421 l 1
 368 368 l 1
 105 368 l 1
474 368 m 1
 474 421 l 1
 579 421 l 1
 579 368 l 1
 474 368 l 1
53 316 m 1
 53 368 l 1
 158 368 l 1
 158 316 l 1
 53 316 l 1
211 316 m 1
 211 368 l 1
 421 368 l 1
 421 316 l 1
 211 316 l 1
474 316 m 1
 474 368 l 1
 579 368 l 1
 579 316 l 1
 474 316 l 1
53 263 m 1
 53 316 l 1
 158 316 l 1
 158 263 l 1
 53 263 l 1
263 263 m 1
 263 316 l 1
 526 316 l 1
 526 263 l 1
 263 263 l 1
EndSplineSet
EndChar

StartChar: exclamdown
Encoding: 161 161 97
Width: 579
Flags: HW
LayerCount: 2
Back
Fore
SplineSet
211 474 m 1
 211 526 l 1
 368 526 l 1
 368 474 l 1
 211 474 l 1
211 421 m 1
 211 474 l 1
 368 474 l 1
 368 421 l 1
 211 421 l 1
211 368 m 1
 211 421 l 1
 368 421 l 1
 368 368 l 1
 211 368 l 1
263 263 m 1
 263 316 l 1
 316 316 l 1
 316 263 l 1
 263 263 l 1
263 211 m 1
 263 263 l 1
 316 263 l 1
 316 211 l 1
 263 211 l 1
211 158 m 1
 211 211 l 1
 316 211 l 1
 316 158 l 1
 211 158 l 1
211 105 m 1
 211 158 l 1
 368 158 l 1
 368 105 l 1
 211 105 l 1
211 53 m 1
 211 105 l 1
 368 105 l 1
 368 53 l 1
 211 53 l 1
211 0 m 1
 211 53 l 1
 368 53 l 1
 368 0 l 1
 211 0 l 1
211 -53 m 1
 211 0 l 1
 368 0 l 1
 368 -53 l 1
 211 -53 l 1
211 -105 m 1
 211 -53 l 1
 368 -53 l 1
 368 -105 l 1
 211 -105 l 1
211 -158 m 1
 211 -105 l 1
 368 -105 l 1
 368 -158 l 1
 211 -158 l 1
EndSplineSet
EndChar

StartChar: cent
Encoding: 162 162 98
Width: 579
Flags: HW
LayerCount: 2
Back
Fore
SplineSet
316 632 m 1
 316 684 l 1
 421 684 l 1
 421 632 l 1
 316 632 l 1
316 579 m 1
 316 632 l 1
 421 632 l 1
 421 579 l 1
 316 579 l 1
211 526 m 1
 211 579 l 1
 526 579 l 1
 526 526 l 1
 211 526 l 1
105 474 m 1
 105 526 l 1
 579 526 l 1
 579 474 l 1
 105 474 l 1
105 421 m 1
 105 474 l 1
 263 474 l 1
 263 421 l 1
 105 421 l 1
474 421 m 1
 474 474 l 1
 579 474 l 1
 579 421 l 1
 474 421 l 1
53 368 m 1
 53 421 l 1
 211 421 l 1
 211 368 l 1
 53 368 l 1
53 316 m 1
 53 368 l 1
 211 368 l 1
 211 316 l 1
 53 316 l 1
53 263 m 1
 53 316 l 1
 211 316 l 1
 211 263 l 1
 53 263 l 1
53 211 m 1
 53 263 l 1
 263 263 l 1
 263 211 l 1
 53 211 l 1
105 158 m 1
 105 211 l 1
 579 211 l 1
 579 158 l 1
 105 158 l 1
211 105 m 1
 211 158 l 1
 579 158 l 1
 579 105 l 1
 211 105 l 1
316 53 m 1
 316 105 l 1
 421 105 l 1
 421 53 l 1
 316 53 l 1
316 0 m 1
 316 53 l 1
 421 53 l 1
 421 0 l 1
 316 0 l 1
EndSplineSet
EndChar

StartChar: sterling
Encoding: 163 163 99
Width: 579
Flags: HW
LayerCount: 2
Back
Fore
SplineSet
263 632 m 1
 263 684 l 1
 526 684 l 1
 526 632 l 1
 263 632 l 1
211 579 m 1
 211 632 l 1
 579 632 l 1
 579 579 l 1
 211 579 l 1
158 526 m 1
 158 579 l 1
 316 579 l 1
 316 526 l 1
 158 526 l 1
474 526 m 1
 474 579 l 1
 579 579 l 1
 579 526 l 1
 474 526 l 1
158 474 m 1
 158 526 l 1
 316 526 l 1
 316 474 l 1
 158 474 l 1
158 421 m 1
 158 474 l 1
 316 474 l 1
 316 421 l 1
 158 421 l 1
53 368 m 1
 53 421 l 1
 474 421 l 1
 474 368 l 1
 53 368 l 1
53 316 m 1
 53 368 l 1
 474 368 l 1
 474 316 l 1
 53 316 l 1
158 263 m 1
 158 316 l 1
 316 316 l 1
 316 263 l 1
 158 263 l 1
158 211 m 1
 158 263 l 1
 316 263 l 1
 316 211 l 1
 158 211 l 1
158 158 m 1
 158 211 l 1
 263 211 l 1
 263 158 l 1
 158 158 l 1
105 105 m 1
 105 158 l 1
 211 158 l 1
 211 105 l 1
 105 105 l 1
53 53 m 1
 53 105 l 1
 579 105 l 1
 579 53 l 1
 53 53 l 1
53 0 m 1
 53 53 l 1
 579 53 l 1
 579 0 l 1
 53 0 l 1
EndSplineSet
EndChar

StartChar: currency
Encoding: 164 164 100
Width: 579
Flags: HW
LayerCount: 2
Back
Fore
SplineSet
0 579 m 1
 0 632 l 1
 105 632 l 1
 105 579 l 1
 0 579 l 1
474 579 m 1
 474 632 l 1
 579 632 l 1
 579 579 l 1
 474 579 l 1
53 526 m 1
 53 579 l 1
 105 579 l 1
 105 526 l 1
 53 526 l 1
211 526 m 1
 211 579 l 1
 368 579 l 1
 368 526 l 1
 211 526 l 1
474 526 m 1
 474 579 l 1
 526 579 l 1
 526 526 l 1
 474 526 l 1
105 474 m 1
 105 526 l 1
 474 526 l 1
 474 474 l 1
 105 474 l 1
105 421 m 1
 105 474 l 1
 211 474 l 1
 211 421 l 1
 105 421 l 1
368 421 m 1
 368 474 l 1
 474 474 l 1
 474 421 l 1
 368 421 l 1
53 368 m 1
 53 421 l 1
 211 421 l 1
 211 368 l 1
 53 368 l 1
368 368 m 1
 368 421 l 1
 526 421 l 1
 526 368 l 1
 368 368 l 1
53 316 m 1
 53 368 l 1
 211 368 l 1
 211 316 l 1
 53 316 l 1
368 316 m 1
 368 368 l 1
 526 368 l 1
 526 316 l 1
 368 316 l 1
53 263 m 1
 53 316 l 1
 211 316 l 1
 211 263 l 1
 53 263 l 1
368 263 m 1
 368 316 l 1
 526 316 l 1
 526 263 l 1
 368 263 l 1
105 211 m 1
 105 263 l 1
 211 263 l 1
 211 211 l 1
 105 211 l 1
368 211 m 1
 368 263 l 1
 474 263 l 1
 474 211 l 1
 368 211 l 1
105 158 m 1
 105 211 l 1
 474 211 l 1
 474 158 l 1
 105 158 l 1
53 105 m 1
 53 158 l 1
 105 158 l 1
 105 105 l 1
 53 105 l 1
211 105 m 1
 211 158 l 1
 368 158 l 1
 368 105 l 1
 211 105 l 1
474 105 m 1
 474 158 l 1
 526 158 l 1
 526 105 l 1
 474 105 l 1
0 53 m 1
 0 105 l 1
 105 105 l 1
 105 53 l 1
 0 53 l 1
474 53 m 1
 474 105 l 1
 579 105 l 1
 579 53 l 1
 474 53 l 1
EndSplineSet
EndChar

StartChar: yen
Encoding: 165 165 101
Width: 579
Flags: HW
LayerCount: 2
Back
Fore
SplineSet
0 632 m 1
 0 684 l 1
 158 684 l 1
 158 632 l 1
 0 632 l 1
421 632 m 1
 421 684 l 1
 579 684 l 1
 579 632 l 1
 421 632 l 1
0 579 m 1
 0 632 l 1
 158 632 l 1
 158 579 l 1
 0 579 l 1
421 579 m 1
 421 632 l 1
 579 632 l 1
 579 579 l 1
 421 579 l 1
53 526 m 1
 53 579 l 1
 211 579 l 1
 211 526 l 1
 53 526 l 1
421 526 m 1
 421 579 l 1
 526 579 l 1
 526 526 l 1
 421 526 l 1
53 474 m 1
 53 526 l 1
 211 526 l 1
 211 474 l 1
 53 474 l 1
368 474 m 1
 368 526 l 1
 526 526 l 1
 526 474 l 1
 368 474 l 1
105 421 m 1
 105 474 l 1
 263 474 l 1
 263 421 l 1
 105 421 l 1
368 421 m 1
 368 474 l 1
 474 474 l 1
 474 421 l 1
 368 421 l 1
105 368 m 1
 105 421 l 1
 263 421 l 1
 263 368 l 1
 105 368 l 1
316 368 m 1
 316 421 l 1
 474 421 l 1
 474 368 l 1
 316 368 l 1
158 316 m 1
 158 368 l 1
 421 368 l 1
 421 316 l 1
 158 316 l 1
211 263 m 1
 211 316 l 1
 368 316 l 1
 368 263 l 1
 211 263 l 1
105 211 m 1
 105 263 l 1
 474 263 l 1
 474 211 l 1
 105 211 l 1
211 158 m 1
 211 211 l 1
 368 211 l 1
 368 158 l 1
 211 158 l 1
105 105 m 1
 105 158 l 1
 474 158 l 1
 474 105 l 1
 105 105 l 1
211 53 m 1
 211 105 l 1
 368 105 l 1
 368 53 l 1
 211 53 l 1
211 0 m 1
 211 53 l 1
 368 53 l 1
 368 0 l 1
 211 0 l 1
EndSplineSet
EndChar

StartChar: brokenbar
Encoding: 166 166 102
Width: 579
Flags: HW
LayerCount: 2
Back
Fore
SplineSet
263 684 m 1
 263 737 l 1
 368 737 l 1
 368 684 l 1
 263 684 l 1
263 632 m 1
 263 684 l 1
 368 684 l 1
 368 632 l 1
 263 632 l 1
263 579 m 1
 263 632 l 1
 368 632 l 1
 368 579 l 1
 263 579 l 1
263 526 m 1
 263 579 l 1
 368 579 l 1
 368 526 l 1
 263 526 l 1
263 474 m 1
 263 526 l 1
 368 526 l 1
 368 474 l 1
 263 474 l 1
263 421 m 1
 263 474 l 1
 368 474 l 1
 368 421 l 1
 263 421 l 1
263 211 m 1
 263 263 l 1
 368 263 l 1
 368 211 l 1
 263 211 l 1
263 158 m 1
 263 211 l 1
 368 211 l 1
 368 158 l 1
 263 158 l 1
263 105 m 1
 263 158 l 1
 368 158 l 1
 368 105 l 1
 263 105 l 1
263 53 m 1
 263 105 l 1
 368 105 l 1
 368 53 l 1
 263 53 l 1
263 0 m 1
 263 53 l 1
 368 53 l 1
 368 0 l 1
 263 0 l 1
263 -53 m 1
 263 0 l 1
 368 0 l 1
 368 -53 l 1
 263 -53 l 1
263 -105 m 1
 263 -53 l 1
 368 -53 l 1
 368 -105 l 1
 263 -105 l 1
EndSplineSet
EndChar

StartChar: section
Encoding: 167 167 103
Width: 579
Flags: HW
LayerCount: 2
Back
Fore
SplineSet
158 632 m 1
 158 684 l 1
 474 684 l 1
 474 632 l 1
 158 632 l 1
105 579 m 1
 105 632 l 1
 526 632 l 1
 526 579 l 1
 105 579 l 1
53 526 m 1
 53 579 l 1
 211 579 l 1
 211 526 l 1
 53 526 l 1
421 526 m 1
 421 579 l 1
 526 579 l 1
 526 526 l 1
 421 526 l 1
53 474 m 1
 53 526 l 1
 263 526 l 1
 263 474 l 1
 53 474 l 1
105 421 m 1
 105 474 l 1
 368 474 l 1
 368 421 l 1
 105 421 l 1
53 368 m 1
 53 421 l 1
 158 421 l 1
 158 368 l 1
 53 368 l 1
211 368 m 1
 211 421 l 1
 474 421 l 1
 474 368 l 1
 211 368 l 1
53 316 m 1
 53 368 l 1
 158 368 l 1
 158 316 l 1
 53 316 l 1
316 316 m 1
 316 368 l 1
 526 368 l 1
 526 316 l 1
 316 316 l 1
53 263 m 1
 53 316 l 1
 211 316 l 1
 211 263 l 1
 53 263 l 1
368 263 m 1
 368 316 l 1
 526 316 l 1
 526 263 l 1
 368 263 l 1
53 211 m 1
 53 263 l 1
 263 263 l 1
 263 211 l 1
 53 211 l 1
421 211 m 1
 421 263 l 1
 526 263 l 1
 526 211 l 1
 421 211 l 1
105 158 m 1
 105 211 l 1
 368 211 l 1
 368 158 l 1
 105 158 l 1
421 158 m 1
 421 211 l 1
 526 211 l 1
 526 158 l 1
 421 158 l 1
211 105 m 1
 211 158 l 1
 474 158 l 1
 474 105 l 1
 211 105 l 1
316 53 m 1
 316 105 l 1
 526 105 l 1
 526 53 l 1
 316 53 l 1
53 0 m 1
 53 53 l 1
 158 53 l 1
 158 0 l 1
 53 0 l 1
368 0 m 1
 368 53 l 1
 526 53 l 1
 526 0 l 1
 368 0 l 1
53 -53 m 1
 53 0 l 1
 474 0 l 1
 474 -53 l 1
 53 -53 l 1
105 -105 m 1
 105 -53 l 1
 421 -53 l 1
 421 -105 l 1
 105 -105 l 1
EndSplineSet
EndChar

StartChar: dieresis
Encoding: 168 168 104
Width: 579
Flags: HW
LayerCount: 2
Back
Fore
SplineSet
158 632 m 1
 158 684 l 1
 263 684 l 1
 263 632 l 1
 158 632 l 1
368 632 m 1
 368 684 l 1
 474 684 l 1
 474 632 l 1
 368 632 l 1
158 579 m 1
 158 632 l 1
 263 632 l 1
 263 579 l 1
 158 579 l 1
368 579 m 1
 368 632 l 1
 474 632 l 1
 474 579 l 1
 368 579 l 1
EndSplineSet
EndChar

StartChar: copyright
Encoding: 169 169 105
Width: 579
Flags: HW
LayerCount: 2
Back
Fore
SplineSet
211 632 m 1
 211 684 l 1
 421 684 l 1
 421 632 l 1
 211 632 l 1
105 579 m 1
 105 632 l 1
 526 632 l 1
 526 579 l 1
 105 579 l 1
105 526 m 1
 105 579 l 1
 211 579 l 1
 211 526 l 1
 105 526 l 1
421 526 m 1
 421 579 l 1
 526 579 l 1
 526 526 l 1
 421 526 l 1
53 474 m 1
 53 526 l 1
 158 526 l 1
 158 474 l 1
 53 474 l 1
263 474 m 1
 263 526 l 1
 421 526 l 1
 421 474 l 1
 263 474 l 1
474 474 m 1
 474 526 l 1
 579 526 l 1
 579 474 l 1
 474 474 l 1
53 421 m 1
 53 474 l 1
 158 474 l 1
 158 421 l 1
 53 421 l 1
211 421 m 1
 211 474 l 1
 421 474 l 1
 421 421 l 1
 211 421 l 1
474 421 m 1
 474 474 l 1
 579 474 l 1
 579 421 l 1
 474 421 l 1
53 368 m 1
 53 421 l 1
 158 421 l 1
 158 368 l 1
 53 368 l 1
211 368 m 1
 211 421 l 1
 316 421 l 1
 316 368 l 1
 211 368 l 1
474 368 m 1
 474 421 l 1
 579 421 l 1
 579 368 l 1
 474 368 l 1
53 316 m 1
 53 368 l 1
 158 368 l 1
 158 316 l 1
 53 316 l 1
211 316 m 1
 211 368 l 1
 316 368 l 1
 316 316 l 1
 211 316 l 1
474 316 m 1
 474 368 l 1
 579 368 l 1
 579 316 l 1
 474 316 l 1
53 263 m 1
 53 316 l 1
 158 316 l 1
 158 263 l 1
 53 263 l 1
211 263 m 1
 211 316 l 1
 316 316 l 1
 316 263 l 1
 211 263 l 1
474 263 m 1
 474 316 l 1
 579 316 l 1
 579 263 l 1
 474 263 l 1
53 211 m 1
 53 263 l 1
 158 263 l 1
 158 211 l 1
 53 211 l 1
211 211 m 1
 211 263 l 1
 421 263 l 1
 421 211 l 1
 211 211 l 1
474 211 m 1
 474 263 l 1
 579 263 l 1
 579 211 l 1
 474 211 l 1
53 158 m 1
 53 211 l 1
 158 211 l 1
 158 158 l 1
 53 158 l 1
263 158 m 1
 263 211 l 1
 421 211 l 1
 421 158 l 1
 263 158 l 1
474 158 m 1
 474 211 l 1
 579 211 l 1
 579 158 l 1
 474 158 l 1
105 105 m 1
 105 158 l 1
 211 158 l 1
 211 105 l 1
 105 105 l 1
421 105 m 1
 421 158 l 1
 526 158 l 1
 526 105 l 1
 421 105 l 1
105 53 m 1
 105 105 l 1
 526 105 l 1
 526 53 l 1
 105 53 l 1
211 0 m 1
 211 53 l 1
 421 53 l 1
 421 0 l 1
 211 0 l 1
EndSplineSet
EndChar

StartChar: ordfeminine
Encoding: 170 170 106
Width: 579
Flags: HW
LayerCount: 2
Back
Fore
SplineSet
53 632 m 1
 53 684 l 1
 421 684 l 1
 421 632 l 1
 53 632 l 1
53 579 m 1
 53 632 l 1
 474 632 l 1
 474 579 l 1
 53 579 l 1
316 526 m 1
 316 579 l 1
 474 579 l 1
 474 526 l 1
 316 526 l 1
105 474 m 1
 105 526 l 1
 474 526 l 1
 474 474 l 1
 105 474 l 1
53 421 m 1
 53 474 l 1
 211 474 l 1
 211 421 l 1
 53 421 l 1
316 421 m 1
 316 474 l 1
 474 474 l 1
 474 421 l 1
 316 421 l 1
53 368 m 1
 53 421 l 1
 211 421 l 1
 211 368 l 1
 53 368 l 1
316 368 m 1
 316 421 l 1
 474 421 l 1
 474 368 l 1
 316 368 l 1
53 316 m 1
 53 368 l 1
 526 368 l 1
 526 316 l 1
 53 316 l 1
105 263 m 1
 105 316 l 1
 316 316 l 1
 316 263 l 1
 105 263 l 1
368 263 m 1
 368 316 l 1
 526 316 l 1
 526 263 l 1
 368 263 l 1
EndSplineSet
EndChar

StartChar: guillemotleft
Encoding: 171 171 107
Width: 579
Flags: HW
LayerCount: 2
Back
Fore
SplineSet
211 421 m 1
 211 474 l 1
 263 474 l 1
 263 421 l 1
 211 421 l 1
421 421 m 1
 421 474 l 1
 474 474 l 1
 474 421 l 1
 421 421 l 1
158 368 m 1
 158 421 l 1
 316 421 l 1
 316 368 l 1
 158 368 l 1
368 368 m 1
 368 421 l 1
 526 421 l 1
 526 368 l 1
 368 368 l 1
105 316 m 1
 105 368 l 1
 263 368 l 1
 263 316 l 1
 105 316 l 1
316 316 m 1
 316 368 l 1
 474 368 l 1
 474 316 l 1
 316 316 l 1
53 263 m 1
 53 316 l 1
 211 316 l 1
 211 263 l 1
 53 263 l 1
263 263 m 1
 263 316 l 1
 421 316 l 1
 421 263 l 1
 263 263 l 1
53 211 m 1
 53 263 l 1
 211 263 l 1
 211 211 l 1
 53 211 l 1
263 211 m 1
 263 263 l 1
 421 263 l 1
 421 211 l 1
 263 211 l 1
105 158 m 1
 105 211 l 1
 263 211 l 1
 263 158 l 1
 105 158 l 1
316 158 m 1
 316 211 l 1
 474 211 l 1
 474 158 l 1
 316 158 l 1
158 105 m 1
 158 158 l 1
 316 158 l 1
 316 105 l 1
 158 105 l 1
368 105 m 1
 368 158 l 1
 526 158 l 1
 526 105 l 1
 368 105 l 1
211 53 m 1
 211 105 l 1
 263 105 l 1
 263 53 l 1
 211 53 l 1
421 53 m 1
 421 105 l 1
 474 105 l 1
 474 53 l 1
 421 53 l 1
EndSplineSet
EndChar

StartChar: logicalnot
Encoding: 172 172 108
Width: 579
Flags: HW
LayerCount: 2
Back
Fore
SplineSet
53 368 m 1
 53 421 l 1
 579 421 l 1
 579 368 l 1
 53 368 l 1
53 316 m 1
 53 368 l 1
 579 368 l 1
 579 316 l 1
 53 316 l 1
474 263 m 1
 474 316 l 1
 579 316 l 1
 579 263 l 1
 474 263 l 1
474 211 m 1
 474 263 l 1
 579 263 l 1
 579 211 l 1
 474 211 l 1
474 158 m 1
 474 211 l 1
 579 211 l 1
 579 158 l 1
 474 158 l 1
EndSplineSet
EndChar

StartChar: hyphen
Encoding: 45 45 109
Width: 579
Flags: HW
LayerCount: 2
Back
Fore
SplineSet
53 316 m 1
 53 368 l 1
 579 368 l 1
 579 316 l 1
 53 316 l 1
53 263 m 1
 53 316 l 1
 579 316 l 1
 579 263 l 1
 53 263 l 1
EndSplineSet
EndChar

StartChar: registered
Encoding: 174 174 110
Width: 579
Flags: HW
LayerCount: 2
Back
Fore
SplineSet
211 632 m 1
 211 684 l 1
 421 684 l 1
 421 632 l 1
 211 632 l 1
105 579 m 1
 105 632 l 1
 526 632 l 1
 526 579 l 1
 105 579 l 1
105 526 m 1
 105 579 l 1
 211 579 l 1
 211 526 l 1
 105 526 l 1
421 526 m 1
 421 579 l 1
 526 579 l 1
 526 526 l 1
 421 526 l 1
53 474 m 1
 53 526 l 1
 158 526 l 1
 158 474 l 1
 53 474 l 1
211 474 m 1
 211 526 l 1
 421 526 l 1
 421 474 l 1
 211 474 l 1
474 474 m 1
 474 526 l 1
 579 526 l 1
 579 474 l 1
 474 474 l 1
53 421 m 1
 53 474 l 1
 158 474 l 1
 158 421 l 1
 53 421 l 1
211 421 m 1
 211 474 l 1
 316 474 l 1
 316 421 l 1
 211 421 l 1
368 421 m 1
 368 474 l 1
 421 474 l 1
 421 421 l 1
 368 421 l 1
474 421 m 1
 474 474 l 1
 579 474 l 1
 579 421 l 1
 474 421 l 1
53 368 m 1
 53 421 l 1
 158 421 l 1
 158 368 l 1
 53 368 l 1
211 368 m 1
 211 421 l 1
 368 421 l 1
 368 368 l 1
 211 368 l 1
474 368 m 1
 474 421 l 1
 579 421 l 1
 579 368 l 1
 474 368 l 1
53 316 m 1
 53 368 l 1
 158 368 l 1
 158 316 l 1
 53 316 l 1
211 316 m 1
 211 368 l 1
 316 368 l 1
 316 316 l 1
 211 316 l 1
368 316 m 1
 368 368 l 1
 421 368 l 1
 421 316 l 1
 368 316 l 1
474 316 m 1
 474 368 l 1
 579 368 l 1
 579 316 l 1
 474 316 l 1
105 263 m 1
 105 316 l 1
 211 316 l 1
 211 263 l 1
 105 263 l 1
421 263 m 1
 421 316 l 1
 526 316 l 1
 526 263 l 1
 421 263 l 1
105 211 m 1
 105 263 l 1
 526 263 l 1
 526 211 l 1
 105 211 l 1
211 158 m 1
 211 211 l 1
 421 211 l 1
 421 158 l 1
 211 158 l 1
EndSplineSet
EndChar

StartChar: degree
Encoding: 176 176 112
Width: 579
Flags: HW
LayerCount: 2
Back
Fore
SplineSet
211 632 m 1
 211 684 l 1
 421 684 l 1
 421 632 l 1
 211 632 l 1
158 579 m 1
 158 632 l 1
 263 632 l 1
 263 579 l 1
 158 579 l 1
368 579 m 1
 368 632 l 1
 474 632 l 1
 474 579 l 1
 368 579 l 1
158 526 m 1
 158 579 l 1
 263 579 l 1
 263 526 l 1
 158 526 l 1
368 526 m 1
 368 579 l 1
 474 579 l 1
 474 526 l 1
 368 526 l 1
158 474 m 1
 158 526 l 1
 263 526 l 1
 263 474 l 1
 158 474 l 1
368 474 m 1
 368 526 l 1
 474 526 l 1
 474 474 l 1
 368 474 l 1
211 421 m 1
 211 474 l 1
 421 474 l 1
 421 421 l 1
 211 421 l 1
EndSplineSet
EndChar

StartChar: plusminus
Encoding: 177 177 113
Width: 579
Flags: HW
LayerCount: 2
Back
Fore
SplineSet
263 579 m 1
 263 632 l 1
 368 632 l 1
 368 579 l 1
 263 579 l 1
263 526 m 1
 263 579 l 1
 368 579 l 1
 368 526 l 1
 263 526 l 1
263 474 m 1
 263 526 l 1
 368 526 l 1
 368 474 l 1
 263 474 l 1
53 421 m 1
 53 474 l 1
 579 474 l 1
 579 421 l 1
 53 421 l 1
53 368 m 1
 53 421 l 1
 579 421 l 1
 579 368 l 1
 53 368 l 1
263 316 m 1
 263 368 l 1
 368 368 l 1
 368 316 l 1
 263 316 l 1
263 263 m 1
 263 316 l 1
 368 316 l 1
 368 263 l 1
 263 263 l 1
263 211 m 1
 263 263 l 1
 368 263 l 1
 368 211 l 1
 263 211 l 1
53 105 m 1
 53 158 l 1
 579 158 l 1
 579 105 l 1
 53 105 l 1
53 53 m 1
 53 105 l 1
 579 105 l 1
 579 53 l 1
 53 53 l 1
EndSplineSet
EndChar

StartChar: twosuperior
Encoding: 178 178 114
Width: 579
Flags: HW
LayerCount: 2
Back
Fore
SplineSet
105 632 m 1
 105 684 l 1
 421 684 l 1
 421 632 l 1
 105 632 l 1
105 579 m 1
 105 632 l 1
 474 632 l 1
 474 579 l 1
 105 579 l 1
316 526 m 1
 316 579 l 1
 474 579 l 1
 474 526 l 1
 316 526 l 1
263 474 m 1
 263 526 l 1
 474 526 l 1
 474 474 l 1
 263 474 l 1
158 421 m 1
 158 474 l 1
 421 474 l 1
 421 421 l 1
 158 421 l 1
105 368 m 1
 105 421 l 1
 263 421 l 1
 263 368 l 1
 105 368 l 1
105 316 m 1
 105 368 l 1
 474 368 l 1
 474 316 l 1
 105 316 l 1
105 263 m 1
 105 316 l 1
 474 316 l 1
 474 263 l 1
 105 263 l 1
EndSplineSet
EndChar

StartChar: threesuperior
Encoding: 179 179 115
Width: 579
Flags: HW
LayerCount: 2
Back
Fore
SplineSet
105 632 m 1
 105 684 l 1
 421 684 l 1
 421 632 l 1
 105 632 l 1
105 579 m 1
 105 632 l 1
 474 632 l 1
 474 579 l 1
 105 579 l 1
316 526 m 1
 316 579 l 1
 474 579 l 1
 474 526 l 1
 316 526 l 1
158 474 m 1
 158 526 l 1
 421 526 l 1
 421 474 l 1
 158 474 l 1
158 421 m 1
 158 474 l 1
 474 474 l 1
 474 421 l 1
 158 421 l 1
316 368 m 1
 316 421 l 1
 474 421 l 1
 474 368 l 1
 316 368 l 1
105 316 m 1
 105 368 l 1
 474 368 l 1
 474 316 l 1
 105 316 l 1
105 263 m 1
 105 316 l 1
 421 316 l 1
 421 263 l 1
 105 263 l 1
EndSplineSet
EndChar

StartChar: acute
Encoding: 180 180 116
Width: 579
Flags: HW
LayerCount: 2
Back
Fore
SplineSet
211 632 m 1
 211 684 l 1
 421 684 l 1
 421 632 l 1
 211 632 l 1
158 579 m 1
 158 632 l 1
 316 632 l 1
 316 579 l 1
 158 579 l 1
EndSplineSet
EndChar

StartChar: paragraph
Encoding: 182 182 118
Width: 579
Flags: HW
LayerCount: 2
Back
Fore
SplineSet
105 632 m 1
 105 684 l 1
 526 684 l 1
 526 632 l 1
 105 632 l 1
53 579 m 1
 53 632 l 1
 368 632 l 1
 368 579 l 1
 53 579 l 1
421 579 m 1
 421 632 l 1
 526 632 l 1
 526 579 l 1
 421 579 l 1
53 526 m 1
 53 579 l 1
 368 579 l 1
 368 526 l 1
 53 526 l 1
421 526 m 1
 421 579 l 1
 526 579 l 1
 526 526 l 1
 421 526 l 1
53 474 m 1
 53 526 l 1
 368 526 l 1
 368 474 l 1
 53 474 l 1
421 474 m 1
 421 526 l 1
 526 526 l 1
 526 474 l 1
 421 474 l 1
53 421 m 1
 53 474 l 1
 368 474 l 1
 368 421 l 1
 53 421 l 1
421 421 m 1
 421 474 l 1
 526 474 l 1
 526 421 l 1
 421 421 l 1
105 368 m 1
 105 421 l 1
 368 421 l 1
 368 368 l 1
 105 368 l 1
421 368 m 1
 421 421 l 1
 526 421 l 1
 526 368 l 1
 421 368 l 1
158 316 m 1
 158 368 l 1
 368 368 l 1
 368 316 l 1
 158 316 l 1
421 316 m 1
 421 368 l 1
 526 368 l 1
 526 316 l 1
 421 316 l 1
263 263 m 1
 263 316 l 1
 368 316 l 1
 368 263 l 1
 263 263 l 1
421 263 m 1
 421 316 l 1
 526 316 l 1
 526 263 l 1
 421 263 l 1
263 211 m 1
 263 263 l 1
 368 263 l 1
 368 211 l 1
 263 211 l 1
421 211 m 1
 421 263 l 1
 526 263 l 1
 526 211 l 1
 421 211 l 1
263 158 m 1
 263 211 l 1
 368 211 l 1
 368 158 l 1
 263 158 l 1
421 158 m 1
 421 211 l 1
 526 211 l 1
 526 158 l 1
 421 158 l 1
263 105 m 1
 263 158 l 1
 368 158 l 1
 368 105 l 1
 263 105 l 1
421 105 m 1
 421 158 l 1
 526 158 l 1
 526 105 l 1
 421 105 l 1
263 53 m 1
 263 105 l 1
 368 105 l 1
 368 53 l 1
 263 53 l 1
421 53 m 1
 421 105 l 1
 526 105 l 1
 526 53 l 1
 421 53 l 1
263 0 m 1
 263 53 l 1
 368 53 l 1
 368 0 l 1
 263 0 l 1
421 0 m 1
 421 53 l 1
 526 53 l 1
 526 0 l 1
 421 0 l 1
263 -53 m 1
 263 0 l 1
 368 0 l 1
 368 -53 l 1
 263 -53 l 1
421 -53 m 1
 421 0 l 1
 526 0 l 1
 526 -53 l 1
 421 -53 l 1
263 -105 m 1
 263 -53 l 1
 368 -53 l 1
 368 -105 l 1
 263 -105 l 1
421 -105 m 1
 421 -53 l 1
 526 -53 l 1
 526 -105 l 1
 421 -105 l 1
EndSplineSet
EndChar

StartChar: cedilla
Encoding: 184 184 120
Width: 579
Flags: HW
LayerCount: 2
Back
Fore
SplineSet
263 -53 m 1
 263 0 l 1
 368 0 l 1
 368 -53 l 1
 263 -53 l 1
316 -105 m 1
 316 -53 l 1
 421 -53 l 1
 421 -105 l 1
 316 -105 l 1
211 -158 m 1
 211 -105 l 1
 368 -105 l 1
 368 -158 l 1
 211 -158 l 1
EndSplineSet
EndChar

StartChar: onesuperior
Encoding: 185 185 121
Width: 579
Flags: HW
LayerCount: 2
Back
Fore
SplineSet
211 632 m 1
 211 684 l 1
 368 684 l 1
 368 632 l 1
 211 632 l 1
105 579 m 1
 105 632 l 1
 368 632 l 1
 368 579 l 1
 105 579 l 1
105 526 m 1
 105 579 l 1
 368 579 l 1
 368 526 l 1
 105 526 l 1
211 474 m 1
 211 526 l 1
 368 526 l 1
 368 474 l 1
 211 474 l 1
211 421 m 1
 211 474 l 1
 368 474 l 1
 368 421 l 1
 211 421 l 1
211 368 m 1
 211 421 l 1
 368 421 l 1
 368 368 l 1
 211 368 l 1
105 316 m 1
 105 368 l 1
 474 368 l 1
 474 316 l 1
 105 316 l 1
105 263 m 1
 105 316 l 1
 474 316 l 1
 474 263 l 1
 105 263 l 1
EndSplineSet
EndChar

StartChar: ordmasculine
Encoding: 186 186 122
Width: 579
Flags: HW
LayerCount: 2
Back
Fore
SplineSet
158 632 m 1
 158 684 l 1
 421 684 l 1
 421 632 l 1
 158 632 l 1
105 579 m 1
 105 632 l 1
 474 632 l 1
 474 579 l 1
 105 579 l 1
53 526 m 1
 53 579 l 1
 211 579 l 1
 211 526 l 1
 53 526 l 1
368 526 m 1
 368 579 l 1
 526 579 l 1
 526 526 l 1
 368 526 l 1
53 474 m 1
 53 526 l 1
 211 526 l 1
 211 474 l 1
 53 474 l 1
368 474 m 1
 368 526 l 1
 526 526 l 1
 526 474 l 1
 368 474 l 1
53 421 m 1
 53 474 l 1
 211 474 l 1
 211 421 l 1
 53 421 l 1
368 421 m 1
 368 474 l 1
 526 474 l 1
 526 421 l 1
 368 421 l 1
53 368 m 1
 53 421 l 1
 211 421 l 1
 211 368 l 1
 53 368 l 1
368 368 m 1
 368 421 l 1
 526 421 l 1
 526 368 l 1
 368 368 l 1
105 316 m 1
 105 368 l 1
 474 368 l 1
 474 316 l 1
 105 316 l 1
158 263 m 1
 158 316 l 1
 421 316 l 1
 421 263 l 1
 158 263 l 1
EndSplineSet
EndChar

StartChar: guillemotright
Encoding: 187 187 123
Width: 579
Flags: HW
LayerCount: 2
Back
Fore
SplineSet
105 421 m 1
 105 474 l 1
 158 474 l 1
 158 421 l 1
 105 421 l 1
316 421 m 1
 316 474 l 1
 368 474 l 1
 368 421 l 1
 316 421 l 1
53 368 m 1
 53 421 l 1
 211 421 l 1
 211 368 l 1
 53 368 l 1
263 368 m 1
 263 421 l 1
 421 421 l 1
 421 368 l 1
 263 368 l 1
105 316 m 1
 105 368 l 1
 263 368 l 1
 263 316 l 1
 105 316 l 1
316 316 m 1
 316 368 l 1
 474 368 l 1
 474 316 l 1
 316 316 l 1
158 263 m 1
 158 316 l 1
 316 316 l 1
 316 263 l 1
 158 263 l 1
368 263 m 1
 368 316 l 1
 526 316 l 1
 526 263 l 1
 368 263 l 1
158 211 m 1
 158 263 l 1
 316 263 l 1
 316 211 l 1
 158 211 l 1
368 211 m 1
 368 263 l 1
 526 263 l 1
 526 211 l 1
 368 211 l 1
105 158 m 1
 105 211 l 1
 263 211 l 1
 263 158 l 1
 105 158 l 1
316 158 m 1
 316 211 l 1
 474 211 l 1
 474 158 l 1
 316 158 l 1
53 105 m 1
 53 158 l 1
 211 158 l 1
 211 105 l 1
 53 105 l 1
263 105 m 1
 263 158 l 1
 421 158 l 1
 421 105 l 1
 263 105 l 1
105 53 m 1
 105 105 l 1
 158 105 l 1
 158 53 l 1
 105 53 l 1
316 53 m 1
 316 105 l 1
 368 105 l 1
 368 53 l 1
 316 53 l 1
EndSplineSet
EndChar

StartChar: onequarter
Encoding: 188 188 124
Width: 579
Flags: HW
LayerCount: 2
Back
Fore
SplineSet
474 684 m 1
 474 737 l 1
 579 737 l 1
 579 684 l 1
 474 684 l 1
53 632 m 1
 53 684 l 1
 211 684 l 1
 211 632 l 1
 53 632 l 1
474 632 m 1
 474 684 l 1
 579 684 l 1
 579 632 l 1
 474 632 l 1
0 579 m 1
 0 632 l 1
 211 632 l 1
 211 579 l 1
 0 579 l 1
421 579 m 1
 421 632 l 1
 526 632 l 1
 526 579 l 1
 421 579 l 1
53 526 m 1
 53 579 l 1
 211 579 l 1
 211 526 l 1
 53 526 l 1
368 526 m 1
 368 579 l 1
 474 579 l 1
 474 526 l 1
 368 526 l 1
53 474 m 1
 53 526 l 1
 211 526 l 1
 211 474 l 1
 53 474 l 1
316 474 m 1
 316 526 l 1
 421 526 l 1
 421 474 l 1
 316 474 l 1
53 421 m 1
 53 474 l 1
 211 474 l 1
 211 421 l 1
 53 421 l 1
316 421 m 1
 316 474 l 1
 421 474 l 1
 421 421 l 1
 316 421 l 1
53 368 m 1
 53 421 l 1
 211 421 l 1
 211 368 l 1
 53 368 l 1
263 368 m 1
 263 421 l 1
 368 421 l 1
 368 368 l 1
 263 368 l 1
53 316 m 1
 53 368 l 1
 316 368 l 1
 316 316 l 1
 53 316 l 1
368 316 m 1
 368 368 l 1
 526 368 l 1
 526 316 l 1
 368 316 l 1
158 263 m 1
 158 316 l 1
 263 316 l 1
 263 263 l 1
 158 263 l 1
316 263 m 1
 316 316 l 1
 368 316 l 1
 368 263 l 1
 316 263 l 1
421 263 m 1
 421 316 l 1
 526 316 l 1
 526 263 l 1
 421 263 l 1
105 211 m 1
 105 263 l 1
 211 263 l 1
 211 211 l 1
 105 211 l 1
263 211 m 1
 263 263 l 1
 316 263 l 1
 316 211 l 1
 263 211 l 1
421 211 m 1
 421 263 l 1
 526 263 l 1
 526 211 l 1
 421 211 l 1
105 158 m 1
 105 211 l 1
 579 211 l 1
 579 158 l 1
 105 158 l 1
53 105 m 1
 53 158 l 1
 158 158 l 1
 158 105 l 1
 53 105 l 1
211 105 m 1
 211 158 l 1
 579 158 l 1
 579 105 l 1
 211 105 l 1
0 53 m 1
 0 105 l 1
 105 105 l 1
 105 53 l 1
 0 53 l 1
368 53 m 1
 368 105 l 1
 526 105 l 1
 526 53 l 1
 368 53 l 1
0 0 m 1
 0 53 l 1
 105 53 l 1
 105 0 l 1
 0 0 l 1
368 0 m 1
 368 53 l 1
 526 53 l 1
 526 0 l 1
 368 0 l 1
EndSplineSet
EndChar

StartChar: onehalf
Encoding: 189 189 125
Width: 579
Flags: HW
LayerCount: 2
Back
Fore
SplineSet
421 684 m 1
 421 737 l 1
 526 737 l 1
 526 684 l 1
 421 684 l 1
53 632 m 1
 53 684 l 1
 211 684 l 1
 211 632 l 1
 53 632 l 1
421 632 m 1
 421 684 l 1
 526 684 l 1
 526 632 l 1
 421 632 l 1
0 579 m 1
 0 632 l 1
 211 632 l 1
 211 579 l 1
 0 579 l 1
368 579 m 1
 368 632 l 1
 474 632 l 1
 474 579 l 1
 368 579 l 1
53 526 m 1
 53 579 l 1
 211 579 l 1
 211 526 l 1
 53 526 l 1
316 526 m 1
 316 579 l 1
 421 579 l 1
 421 526 l 1
 316 526 l 1
53 474 m 1
 53 526 l 1
 211 526 l 1
 211 474 l 1
 53 474 l 1
316 474 m 1
 316 526 l 1
 421 526 l 1
 421 474 l 1
 316 474 l 1
53 421 m 1
 53 474 l 1
 211 474 l 1
 211 421 l 1
 53 421 l 1
263 421 m 1
 263 474 l 1
 368 474 l 1
 368 421 l 1
 263 421 l 1
53 368 m 1
 53 421 l 1
 211 421 l 1
 211 368 l 1
 53 368 l 1
263 368 m 1
 263 421 l 1
 368 421 l 1
 368 368 l 1
 263 368 l 1
53 316 m 1
 53 368 l 1
 263 368 l 1
 263 316 l 1
 53 316 l 1
316 316 m 1
 316 368 l 1
 526 368 l 1
 526 316 l 1
 316 316 l 1
158 263 m 1
 158 316 l 1
 368 316 l 1
 368 263 l 1
 158 263 l 1
421 263 m 1
 421 316 l 1
 579 316 l 1
 579 263 l 1
 421 263 l 1
105 211 m 1
 105 263 l 1
 211 263 l 1
 211 211 l 1
 105 211 l 1
263 211 m 1
 263 263 l 1
 368 263 l 1
 368 211 l 1
 263 211 l 1
421 211 m 1
 421 263 l 1
 579 263 l 1
 579 211 l 1
 421 211 l 1
105 158 m 1
 105 211 l 1
 211 211 l 1
 211 158 l 1
 105 158 l 1
421 158 m 1
 421 211 l 1
 526 211 l 1
 526 158 l 1
 421 158 l 1
53 105 m 1
 53 158 l 1
 158 158 l 1
 158 105 l 1
 53 105 l 1
316 105 m 1
 316 158 l 1
 421 158 l 1
 421 105 l 1
 316 105 l 1
0 53 m 1
 0 105 l 1
 105 105 l 1
 105 53 l 1
 0 53 l 1
263 53 m 1
 263 105 l 1
 579 105 l 1
 579 53 l 1
 263 53 l 1
0 0 m 1
 0 53 l 1
 105 53 l 1
 105 0 l 1
 0 0 l 1
263 0 m 1
 263 53 l 1
 579 53 l 1
 579 0 l 1
 263 0 l 1
EndSplineSet
EndChar

StartChar: threequarters
Encoding: 190 190 126
Width: 579
Flags: HW
LayerCount: 2
Back
Fore
SplineSet
474 684 m 1
 474 737 l 1
 579 737 l 1
 579 684 l 1
 474 684 l 1
53 632 m 1
 53 684 l 1
 211 684 l 1
 211 632 l 1
 53 632 l 1
474 632 m 1
 474 684 l 1
 579 684 l 1
 579 632 l 1
 474 632 l 1
0 579 m 1
 0 632 l 1
 263 632 l 1
 263 579 l 1
 0 579 l 1
421 579 m 1
 421 632 l 1
 526 632 l 1
 526 579 l 1
 421 579 l 1
158 526 m 1
 158 579 l 1
 263 579 l 1
 263 526 l 1
 158 526 l 1
368 526 m 1
 368 579 l 1
 474 579 l 1
 474 526 l 1
 368 526 l 1
53 474 m 1
 53 526 l 1
 211 526 l 1
 211 474 l 1
 53 474 l 1
316 474 m 1
 316 526 l 1
 421 526 l 1
 421 474 l 1
 316 474 l 1
158 421 m 1
 158 474 l 1
 263 474 l 1
 263 421 l 1
 158 421 l 1
316 421 m 1
 316 474 l 1
 421 474 l 1
 421 421 l 1
 316 421 l 1
0 368 m 1
 0 421 l 1
 368 421 l 1
 368 368 l 1
 0 368 l 1
53 316 m 1
 53 368 l 1
 316 368 l 1
 316 316 l 1
 53 316 l 1
368 316 m 1
 368 368 l 1
 526 368 l 1
 526 316 l 1
 368 316 l 1
158 263 m 1
 158 316 l 1
 263 316 l 1
 263 263 l 1
 158 263 l 1
316 263 m 1
 316 316 l 1
 368 316 l 1
 368 263 l 1
 316 263 l 1
421 263 m 1
 421 316 l 1
 526 316 l 1
 526 263 l 1
 421 263 l 1
105 211 m 1
 105 263 l 1
 211 263 l 1
 211 211 l 1
 105 211 l 1
263 211 m 1
 263 263 l 1
 316 263 l 1
 316 211 l 1
 263 211 l 1
421 211 m 1
 421 263 l 1
 526 263 l 1
 526 211 l 1
 421 211 l 1
105 158 m 1
 105 211 l 1
 579 211 l 1
 579 158 l 1
 105 158 l 1
53 105 m 1
 53 158 l 1
 158 158 l 1
 158 105 l 1
 53 105 l 1
211 105 m 1
 211 158 l 1
 579 158 l 1
 579 105 l 1
 211 105 l 1
0 53 m 1
 0 105 l 1
 105 105 l 1
 105 53 l 1
 0 53 l 1
368 53 m 1
 368 105 l 1
 526 105 l 1
 526 53 l 1
 368 53 l 1
0 0 m 1
 0 53 l 1
 105 53 l 1
 105 0 l 1
 0 0 l 1
368 0 m 1
 368 53 l 1
 526 53 l 1
 526 0 l 1
 368 0 l 1
EndSplineSet
EndChar

StartChar: questiondown
Encoding: 191 191 127
Width: 579
Flags: HW
LayerCount: 2
Back
Fore
SplineSet
316 474 m 1
 316 526 l 1
 474 526 l 1
 474 474 l 1
 316 474 l 1
316 421 m 1
 316 474 l 1
 474 474 l 1
 474 421 l 1
 316 421 l 1
316 368 m 1
 316 421 l 1
 474 421 l 1
 474 368 l 1
 316 368 l 1
316 211 m 1
 316 263 l 1
 421 263 l 1
 421 211 l 1
 316 211 l 1
263 158 m 1
 263 211 l 1
 421 211 l 1
 421 158 l 1
 263 158 l 1
158 105 m 1
 158 158 l 1
 368 158 l 1
 368 105 l 1
 158 105 l 1
105 53 m 1
 105 105 l 1
 263 105 l 1
 263 53 l 1
 105 53 l 1
53 0 m 1
 53 53 l 1
 211 53 l 1
 211 0 l 1
 53 0 l 1
53 -53 m 1
 53 0 l 1
 211 0 l 1
 211 -53 l 1
 53 -53 l 1
421 -53 m 1
 421 0 l 1
 526 0 l 1
 526 -53 l 1
 421 -53 l 1
105 -105 m 1
 105 -53 l 1
 526 -53 l 1
 526 -105 l 1
 105 -105 l 1
158 -158 m 1
 158 -105 l 1
 474 -105 l 1
 474 -158 l 1
 158 -158 l 1
EndSplineSet
EndChar

StartChar: Agrave
Encoding: 192 192 128
Width: 579
Flags: HW
LayerCount: 2
Back
Fore
SplineSet
158 789 m 1
 158 842 l 1
 368 842 l 1
 368 789 l 1
 158 789 l 1
263 737 m 1
 263 789 l 1
 421 789 l 1
 421 737 l 1
 263 737 l 1
211 632 m 1
 211 684 l 1
 368 684 l 1
 368 632 l 1
 211 632 l 1
211 579 m 1
 211 632 l 1
 368 632 l 1
 368 579 l 1
 211 579 l 1
158 526 m 1
 158 579 l 1
 421 579 l 1
 421 526 l 1
 158 526 l 1
158 474 m 1
 158 526 l 1
 211 526 l 1
 211 474 l 1
 158 474 l 1
316 474 m 1
 316 526 l 1
 421 526 l 1
 421 474 l 1
 316 474 l 1
105 421 m 1
 105 474 l 1
 211 474 l 1
 211 421 l 1
 105 421 l 1
316 421 m 1
 316 474 l 1
 474 474 l 1
 474 421 l 1
 316 421 l 1
105 368 m 1
 105 421 l 1
 211 421 l 1
 211 368 l 1
 105 368 l 1
316 368 m 1
 316 421 l 1
 474 421 l 1
 474 368 l 1
 316 368 l 1
53 316 m 1
 53 368 l 1
 158 368 l 1
 158 316 l 1
 53 316 l 1
368 316 m 1
 368 368 l 1
 526 368 l 1
 526 316 l 1
 368 316 l 1
53 263 m 1
 53 316 l 1
 526 316 l 1
 526 263 l 1
 53 263 l 1
53 211 m 1
 53 263 l 1
 526 263 l 1
 526 211 l 1
 53 211 l 1
0 158 m 1
 0 211 l 1
 158 211 l 1
 158 158 l 1
 0 158 l 1
421 158 m 1
 421 211 l 1
 579 211 l 1
 579 158 l 1
 421 158 l 1
0 105 m 1
 0 158 l 1
 158 158 l 1
 158 105 l 1
 0 105 l 1
421 105 m 1
 421 158 l 1
 579 158 l 1
 579 105 l 1
 421 105 l 1
0 53 m 1
 0 105 l 1
 158 105 l 1
 158 53 l 1
 0 53 l 1
421 53 m 1
 421 105 l 1
 579 105 l 1
 579 53 l 1
 421 53 l 1
0 0 m 1
 0 53 l 1
 158 53 l 1
 158 0 l 1
 0 0 l 1
421 0 m 1
 421 53 l 1
 579 53 l 1
 579 0 l 1
 421 0 l 1
EndSplineSet
EndChar

StartChar: Aacute
Encoding: 193 193 129
Width: 579
Flags: HW
LayerCount: 2
Back
Fore
SplineSet
211 789 m 1
 211 842 l 1
 421 842 l 1
 421 789 l 1
 211 789 l 1
158 737 m 1
 158 789 l 1
 316 789 l 1
 316 737 l 1
 158 737 l 1
211 632 m 1
 211 684 l 1
 368 684 l 1
 368 632 l 1
 211 632 l 1
211 579 m 1
 211 632 l 1
 368 632 l 1
 368 579 l 1
 211 579 l 1
158 526 m 1
 158 579 l 1
 421 579 l 1
 421 526 l 1
 158 526 l 1
158 474 m 1
 158 526 l 1
 211 526 l 1
 211 474 l 1
 158 474 l 1
316 474 m 1
 316 526 l 1
 421 526 l 1
 421 474 l 1
 316 474 l 1
105 421 m 1
 105 474 l 1
 211 474 l 1
 211 421 l 1
 105 421 l 1
316 421 m 1
 316 474 l 1
 474 474 l 1
 474 421 l 1
 316 421 l 1
105 368 m 1
 105 421 l 1
 211 421 l 1
 211 368 l 1
 105 368 l 1
316 368 m 1
 316 421 l 1
 474 421 l 1
 474 368 l 1
 316 368 l 1
53 316 m 1
 53 368 l 1
 158 368 l 1
 158 316 l 1
 53 316 l 1
368 316 m 1
 368 368 l 1
 526 368 l 1
 526 316 l 1
 368 316 l 1
53 263 m 1
 53 316 l 1
 526 316 l 1
 526 263 l 1
 53 263 l 1
53 211 m 1
 53 263 l 1
 526 263 l 1
 526 211 l 1
 53 211 l 1
0 158 m 1
 0 211 l 1
 158 211 l 1
 158 158 l 1
 0 158 l 1
421 158 m 1
 421 211 l 1
 579 211 l 1
 579 158 l 1
 421 158 l 1
0 105 m 1
 0 158 l 1
 158 158 l 1
 158 105 l 1
 0 105 l 1
421 105 m 1
 421 158 l 1
 579 158 l 1
 579 105 l 1
 421 105 l 1
0 53 m 1
 0 105 l 1
 158 105 l 1
 158 53 l 1
 0 53 l 1
421 53 m 1
 421 105 l 1
 579 105 l 1
 579 53 l 1
 421 53 l 1
0 0 m 1
 0 53 l 1
 158 53 l 1
 158 0 l 1
 0 0 l 1
421 0 m 1
 421 53 l 1
 579 53 l 1
 579 0 l 1
 421 0 l 1
EndSplineSet
EndChar

StartChar: Acircumflex
Encoding: 194 194 130
Width: 579
Flags: HW
LayerCount: 2
Back
Fore
SplineSet
211 789 m 1
 211 842 l 1
 368 842 l 1
 368 789 l 1
 211 789 l 1
158 737 m 1
 158 789 l 1
 263 789 l 1
 263 737 l 1
 158 737 l 1
316 737 m 1
 316 789 l 1
 421 789 l 1
 421 737 l 1
 316 737 l 1
211 632 m 1
 211 684 l 1
 368 684 l 1
 368 632 l 1
 211 632 l 1
211 579 m 1
 211 632 l 1
 368 632 l 1
 368 579 l 1
 211 579 l 1
158 526 m 1
 158 579 l 1
 421 579 l 1
 421 526 l 1
 158 526 l 1
158 474 m 1
 158 526 l 1
 211 526 l 1
 211 474 l 1
 158 474 l 1
316 474 m 1
 316 526 l 1
 421 526 l 1
 421 474 l 1
 316 474 l 1
105 421 m 1
 105 474 l 1
 211 474 l 1
 211 421 l 1
 105 421 l 1
316 421 m 1
 316 474 l 1
 474 474 l 1
 474 421 l 1
 316 421 l 1
105 368 m 1
 105 421 l 1
 211 421 l 1
 211 368 l 1
 105 368 l 1
316 368 m 1
 316 421 l 1
 474 421 l 1
 474 368 l 1
 316 368 l 1
53 316 m 1
 53 368 l 1
 158 368 l 1
 158 316 l 1
 53 316 l 1
368 316 m 1
 368 368 l 1
 526 368 l 1
 526 316 l 1
 368 316 l 1
53 263 m 1
 53 316 l 1
 526 316 l 1
 526 263 l 1
 53 263 l 1
53 211 m 1
 53 263 l 1
 526 263 l 1
 526 211 l 1
 53 211 l 1
0 158 m 1
 0 211 l 1
 158 211 l 1
 158 158 l 1
 0 158 l 1
421 158 m 1
 421 211 l 1
 579 211 l 1
 579 158 l 1
 421 158 l 1
0 105 m 1
 0 158 l 1
 158 158 l 1
 158 105 l 1
 0 105 l 1
421 105 m 1
 421 158 l 1
 579 158 l 1
 579 105 l 1
 421 105 l 1
0 53 m 1
 0 105 l 1
 158 105 l 1
 158 53 l 1
 0 53 l 1
421 53 m 1
 421 105 l 1
 579 105 l 1
 579 53 l 1
 421 53 l 1
0 0 m 1
 0 53 l 1
 158 53 l 1
 158 0 l 1
 0 0 l 1
421 0 m 1
 421 53 l 1
 579 53 l 1
 579 0 l 1
 421 0 l 1
EndSplineSet
EndChar

StartChar: Atilde
Encoding: 195 195 131
Width: 579
Flags: HW
LayerCount: 2
Back
Fore
SplineSet
211 789 m 1
 211 842 l 1
 368 842 l 1
 368 789 l 1
 211 789 l 1
421 789 m 1
 421 842 l 1
 474 842 l 1
 474 789 l 1
 421 789 l 1
158 737 m 1
 158 789 l 1
 211 789 l 1
 211 737 l 1
 158 737 l 1
263 737 m 1
 263 789 l 1
 421 789 l 1
 421 737 l 1
 263 737 l 1
211 632 m 1
 211 684 l 1
 368 684 l 1
 368 632 l 1
 211 632 l 1
211 579 m 1
 211 632 l 1
 368 632 l 1
 368 579 l 1
 211 579 l 1
158 526 m 1
 158 579 l 1
 421 579 l 1
 421 526 l 1
 158 526 l 1
158 474 m 1
 158 526 l 1
 211 526 l 1
 211 474 l 1
 158 474 l 1
316 474 m 1
 316 526 l 1
 421 526 l 1
 421 474 l 1
 316 474 l 1
105 421 m 1
 105 474 l 1
 211 474 l 1
 211 421 l 1
 105 421 l 1
316 421 m 1
 316 474 l 1
 474 474 l 1
 474 421 l 1
 316 421 l 1
105 368 m 1
 105 421 l 1
 211 421 l 1
 211 368 l 1
 105 368 l 1
316 368 m 1
 316 421 l 1
 474 421 l 1
 474 368 l 1
 316 368 l 1
53 316 m 1
 53 368 l 1
 158 368 l 1
 158 316 l 1
 53 316 l 1
368 316 m 1
 368 368 l 1
 526 368 l 1
 526 316 l 1
 368 316 l 1
53 263 m 1
 53 316 l 1
 526 316 l 1
 526 263 l 1
 53 263 l 1
53 211 m 1
 53 263 l 1
 526 263 l 1
 526 211 l 1
 53 211 l 1
0 158 m 1
 0 211 l 1
 158 211 l 1
 158 158 l 1
 0 158 l 1
421 158 m 1
 421 211 l 1
 579 211 l 1
 579 158 l 1
 421 158 l 1
0 105 m 1
 0 158 l 1
 158 158 l 1
 158 105 l 1
 0 105 l 1
421 105 m 1
 421 158 l 1
 579 158 l 1
 579 105 l 1
 421 105 l 1
0 53 m 1
 0 105 l 1
 158 105 l 1
 158 53 l 1
 0 53 l 1
421 53 m 1
 421 105 l 1
 579 105 l 1
 579 53 l 1
 421 53 l 1
0 0 m 1
 0 53 l 1
 158 53 l 1
 158 0 l 1
 0 0 l 1
421 0 m 1
 421 53 l 1
 579 53 l 1
 579 0 l 1
 421 0 l 1
EndSplineSet
EndChar

StartChar: Adieresis
Encoding: 196 196 132
Width: 579
Flags: HW
LayerCount: 2
Back
Fore
SplineSet
158 789 m 1
 158 842 l 1
 263 842 l 1
 263 789 l 1
 158 789 l 1
316 789 m 1
 316 842 l 1
 421 842 l 1
 421 789 l 1
 316 789 l 1
158 737 m 1
 158 789 l 1
 263 789 l 1
 263 737 l 1
 158 737 l 1
316 737 m 1
 316 789 l 1
 421 789 l 1
 421 737 l 1
 316 737 l 1
211 632 m 1
 211 684 l 1
 368 684 l 1
 368 632 l 1
 211 632 l 1
211 579 m 1
 211 632 l 1
 368 632 l 1
 368 579 l 1
 211 579 l 1
158 526 m 1
 158 579 l 1
 421 579 l 1
 421 526 l 1
 158 526 l 1
158 474 m 1
 158 526 l 1
 211 526 l 1
 211 474 l 1
 158 474 l 1
316 474 m 1
 316 526 l 1
 421 526 l 1
 421 474 l 1
 316 474 l 1
105 421 m 1
 105 474 l 1
 211 474 l 1
 211 421 l 1
 105 421 l 1
316 421 m 1
 316 474 l 1
 474 474 l 1
 474 421 l 1
 316 421 l 1
105 368 m 1
 105 421 l 1
 211 421 l 1
 211 368 l 1
 105 368 l 1
316 368 m 1
 316 421 l 1
 474 421 l 1
 474 368 l 1
 316 368 l 1
53 316 m 1
 53 368 l 1
 158 368 l 1
 158 316 l 1
 53 316 l 1
368 316 m 1
 368 368 l 1
 526 368 l 1
 526 316 l 1
 368 316 l 1
53 263 m 1
 53 316 l 1
 526 316 l 1
 526 263 l 1
 53 263 l 1
53 211 m 1
 53 263 l 1
 526 263 l 1
 526 211 l 1
 53 211 l 1
0 158 m 1
 0 211 l 1
 158 211 l 1
 158 158 l 1
 0 158 l 1
421 158 m 1
 421 211 l 1
 579 211 l 1
 579 158 l 1
 421 158 l 1
0 105 m 1
 0 158 l 1
 158 158 l 1
 158 105 l 1
 0 105 l 1
421 105 m 1
 421 158 l 1
 579 158 l 1
 579 105 l 1
 421 105 l 1
0 53 m 1
 0 105 l 1
 158 105 l 1
 158 53 l 1
 0 53 l 1
421 53 m 1
 421 105 l 1
 579 105 l 1
 579 53 l 1
 421 53 l 1
0 0 m 1
 0 53 l 1
 158 53 l 1
 158 0 l 1
 0 0 l 1
421 0 m 1
 421 53 l 1
 579 53 l 1
 579 0 l 1
 421 0 l 1
EndSplineSet
EndChar

StartChar: Aring
Encoding: 197 197 133
Width: 579
Flags: HW
LayerCount: 2
Back
Fore
SplineSet
211 737 m 1
 211 789 l 1
 368 789 l 1
 368 737 l 1
 211 737 l 1
158 684 m 1
 158 737 l 1
 211 737 l 1
 211 684 l 1
 158 684 l 1
316 684 m 1
 316 737 l 1
 421 737 l 1
 421 684 l 1
 316 684 l 1
211 632 m 1
 211 684 l 1
 368 684 l 1
 368 632 l 1
 211 632 l 1
211 579 m 1
 211 632 l 1
 368 632 l 1
 368 579 l 1
 211 579 l 1
158 526 m 1
 158 579 l 1
 421 579 l 1
 421 526 l 1
 158 526 l 1
158 474 m 1
 158 526 l 1
 211 526 l 1
 211 474 l 1
 158 474 l 1
316 474 m 1
 316 526 l 1
 421 526 l 1
 421 474 l 1
 316 474 l 1
105 421 m 1
 105 474 l 1
 211 474 l 1
 211 421 l 1
 105 421 l 1
316 421 m 1
 316 474 l 1
 474 474 l 1
 474 421 l 1
 316 421 l 1
105 368 m 1
 105 421 l 1
 211 421 l 1
 211 368 l 1
 105 368 l 1
316 368 m 1
 316 421 l 1
 474 421 l 1
 474 368 l 1
 316 368 l 1
53 316 m 1
 53 368 l 1
 158 368 l 1
 158 316 l 1
 53 316 l 1
368 316 m 1
 368 368 l 1
 526 368 l 1
 526 316 l 1
 368 316 l 1
53 263 m 1
 53 316 l 1
 526 316 l 1
 526 263 l 1
 53 263 l 1
53 211 m 1
 53 263 l 1
 526 263 l 1
 526 211 l 1
 53 211 l 1
0 158 m 1
 0 211 l 1
 158 211 l 1
 158 158 l 1
 0 158 l 1
421 158 m 1
 421 211 l 1
 579 211 l 1
 579 158 l 1
 421 158 l 1
0 105 m 1
 0 158 l 1
 158 158 l 1
 158 105 l 1
 0 105 l 1
421 105 m 1
 421 158 l 1
 579 158 l 1
 579 105 l 1
 421 105 l 1
0 53 m 1
 0 105 l 1
 158 105 l 1
 158 53 l 1
 0 53 l 1
421 53 m 1
 421 105 l 1
 579 105 l 1
 579 53 l 1
 421 53 l 1
0 0 m 1
 0 53 l 1
 158 53 l 1
 158 0 l 1
 0 0 l 1
421 0 m 1
 421 53 l 1
 579 53 l 1
 579 0 l 1
 421 0 l 1
EndSplineSet
EndChar

StartChar: AE
Encoding: 198 198 134
Width: 579
Flags: HW
LayerCount: 2
Back
Fore
SplineSet
263 632 m 1
 263 684 l 1
 579 684 l 1
 579 632 l 1
 263 632 l 1
211 579 m 1
 211 632 l 1
 579 632 l 1
 579 579 l 1
 211 579 l 1
211 526 m 1
 211 579 l 1
 474 579 l 1
 474 526 l 1
 211 526 l 1
158 474 m 1
 158 526 l 1
 263 526 l 1
 263 474 l 1
 158 474 l 1
316 474 m 1
 316 526 l 1
 474 526 l 1
 474 474 l 1
 316 474 l 1
158 421 m 1
 158 474 l 1
 263 474 l 1
 263 421 l 1
 158 421 l 1
316 421 m 1
 316 474 l 1
 474 474 l 1
 474 421 l 1
 316 421 l 1
105 368 m 1
 105 421 l 1
 211 421 l 1
 211 368 l 1
 105 368 l 1
316 368 m 1
 316 421 l 1
 579 421 l 1
 579 368 l 1
 316 368 l 1
105 316 m 1
 105 368 l 1
 211 368 l 1
 211 316 l 1
 105 316 l 1
316 316 m 1
 316 368 l 1
 579 368 l 1
 579 316 l 1
 316 316 l 1
105 263 m 1
 105 316 l 1
 474 316 l 1
 474 263 l 1
 105 263 l 1
53 211 m 1
 53 263 l 1
 474 263 l 1
 474 211 l 1
 53 211 l 1
53 158 m 1
 53 211 l 1
 158 211 l 1
 158 158 l 1
 53 158 l 1
316 158 m 1
 316 211 l 1
 474 211 l 1
 474 158 l 1
 316 158 l 1
0 105 m 1
 0 158 l 1
 158 158 l 1
 158 105 l 1
 0 105 l 1
316 105 m 1
 316 158 l 1
 474 158 l 1
 474 105 l 1
 316 105 l 1
0 53 m 1
 0 105 l 1
 158 105 l 1
 158 53 l 1
 0 53 l 1
316 53 m 1
 316 105 l 1
 579 105 l 1
 579 53 l 1
 316 53 l 1
0 0 m 1
 0 53 l 1
 158 53 l 1
 158 0 l 1
 0 0 l 1
316 0 m 1
 316 53 l 1
 579 53 l 1
 579 0 l 1
 316 0 l 1
EndSplineSet
EndChar

StartChar: Ccedilla
Encoding: 199 199 135
Width: 579
Flags: HW
LayerCount: 2
Back
Fore
SplineSet
211 632 m 1
 211 684 l 1
 474 684 l 1
 474 632 l 1
 211 632 l 1
105 579 m 1
 105 632 l 1
 526 632 l 1
 526 579 l 1
 105 579 l 1
53 526 m 1
 53 579 l 1
 263 579 l 1
 263 526 l 1
 53 526 l 1
421 526 m 1
 421 579 l 1
 526 579 l 1
 526 526 l 1
 421 526 l 1
53 474 m 1
 53 526 l 1
 211 526 l 1
 211 474 l 1
 53 474 l 1
0 421 m 1
 0 474 l 1
 158 474 l 1
 158 421 l 1
 0 421 l 1
0 368 m 1
 0 421 l 1
 158 421 l 1
 158 368 l 1
 0 368 l 1
0 316 m 1
 0 368 l 1
 158 368 l 1
 158 316 l 1
 0 316 l 1
0 263 m 1
 0 316 l 1
 158 316 l 1
 158 263 l 1
 0 263 l 1
0 211 m 1
 0 263 l 1
 211 263 l 1
 211 211 l 1
 0 211 l 1
53 158 m 1
 53 211 l 1
 211 211 l 1
 211 158 l 1
 53 158 l 1
53 105 m 1
 53 158 l 1
 316 158 l 1
 316 105 l 1
 53 105 l 1
421 105 m 1
 421 158 l 1
 526 158 l 1
 526 105 l 1
 421 105 l 1
105 53 m 1
 105 105 l 1
 526 105 l 1
 526 53 l 1
 105 53 l 1
211 0 m 1
 211 53 l 1
 421 53 l 1
 421 0 l 1
 211 0 l 1
263 -53 m 1
 263 0 l 1
 368 0 l 1
 368 -53 l 1
 263 -53 l 1
316 -105 m 1
 316 -53 l 1
 421 -53 l 1
 421 -105 l 1
 316 -105 l 1
211 -158 m 1
 211 -105 l 1
 368 -105 l 1
 368 -158 l 1
 211 -158 l 1
EndSplineSet
EndChar

StartChar: Egrave
Encoding: 200 200 136
Width: 579
Flags: HW
LayerCount: 2
Back
Fore
SplineSet
158 789 m 1
 158 842 l 1
 368 842 l 1
 368 789 l 1
 158 789 l 1
263 737 m 1
 263 789 l 1
 421 789 l 1
 421 737 l 1
 263 737 l 1
53 632 m 1
 53 684 l 1
 526 684 l 1
 526 632 l 1
 53 632 l 1
53 579 m 1
 53 632 l 1
 526 632 l 1
 526 579 l 1
 53 579 l 1
53 526 m 1
 53 579 l 1
 211 579 l 1
 211 526 l 1
 53 526 l 1
53 474 m 1
 53 526 l 1
 211 526 l 1
 211 474 l 1
 53 474 l 1
53 421 m 1
 53 474 l 1
 211 474 l 1
 211 421 l 1
 53 421 l 1
53 368 m 1
 53 421 l 1
 474 421 l 1
 474 368 l 1
 53 368 l 1
53 316 m 1
 53 368 l 1
 474 368 l 1
 474 316 l 1
 53 316 l 1
53 263 m 1
 53 316 l 1
 211 316 l 1
 211 263 l 1
 53 263 l 1
53 211 m 1
 53 263 l 1
 211 263 l 1
 211 211 l 1
 53 211 l 1
53 158 m 1
 53 211 l 1
 211 211 l 1
 211 158 l 1
 53 158 l 1
53 105 m 1
 53 158 l 1
 211 158 l 1
 211 105 l 1
 53 105 l 1
53 53 m 1
 53 105 l 1
 526 105 l 1
 526 53 l 1
 53 53 l 1
53 0 m 1
 53 53 l 1
 526 53 l 1
 526 0 l 1
 53 0 l 1
EndSplineSet
EndChar

StartChar: Eacute
Encoding: 201 201 137
Width: 579
Flags: HW
LayerCount: 2
Back
Fore
SplineSet
211 789 m 1
 211 842 l 1
 421 842 l 1
 421 789 l 1
 211 789 l 1
158 737 m 1
 158 789 l 1
 316 789 l 1
 316 737 l 1
 158 737 l 1
53 632 m 1
 53 684 l 1
 526 684 l 1
 526 632 l 1
 53 632 l 1
53 579 m 1
 53 632 l 1
 526 632 l 1
 526 579 l 1
 53 579 l 1
53 526 m 1
 53 579 l 1
 211 579 l 1
 211 526 l 1
 53 526 l 1
53 474 m 1
 53 526 l 1
 211 526 l 1
 211 474 l 1
 53 474 l 1
53 421 m 1
 53 474 l 1
 211 474 l 1
 211 421 l 1
 53 421 l 1
53 368 m 1
 53 421 l 1
 474 421 l 1
 474 368 l 1
 53 368 l 1
53 316 m 1
 53 368 l 1
 474 368 l 1
 474 316 l 1
 53 316 l 1
53 263 m 1
 53 316 l 1
 211 316 l 1
 211 263 l 1
 53 263 l 1
53 211 m 1
 53 263 l 1
 211 263 l 1
 211 211 l 1
 53 211 l 1
53 158 m 1
 53 211 l 1
 211 211 l 1
 211 158 l 1
 53 158 l 1
53 105 m 1
 53 158 l 1
 211 158 l 1
 211 105 l 1
 53 105 l 1
53 53 m 1
 53 105 l 1
 526 105 l 1
 526 53 l 1
 53 53 l 1
53 0 m 1
 53 53 l 1
 526 53 l 1
 526 0 l 1
 53 0 l 1
EndSplineSet
EndChar

StartChar: Ecircumflex
Encoding: 202 202 138
Width: 579
Flags: HW
LayerCount: 2
Back
Fore
SplineSet
211 789 m 1
 211 842 l 1
 368 842 l 1
 368 789 l 1
 211 789 l 1
158 737 m 1
 158 789 l 1
 263 789 l 1
 263 737 l 1
 158 737 l 1
316 737 m 1
 316 789 l 1
 421 789 l 1
 421 737 l 1
 316 737 l 1
53 632 m 1
 53 684 l 1
 526 684 l 1
 526 632 l 1
 53 632 l 1
53 579 m 1
 53 632 l 1
 526 632 l 1
 526 579 l 1
 53 579 l 1
53 526 m 1
 53 579 l 1
 211 579 l 1
 211 526 l 1
 53 526 l 1
53 474 m 1
 53 526 l 1
 211 526 l 1
 211 474 l 1
 53 474 l 1
53 421 m 1
 53 474 l 1
 211 474 l 1
 211 421 l 1
 53 421 l 1
53 368 m 1
 53 421 l 1
 474 421 l 1
 474 368 l 1
 53 368 l 1
53 316 m 1
 53 368 l 1
 474 368 l 1
 474 316 l 1
 53 316 l 1
53 263 m 1
 53 316 l 1
 211 316 l 1
 211 263 l 1
 53 263 l 1
53 211 m 1
 53 263 l 1
 211 263 l 1
 211 211 l 1
 53 211 l 1
53 158 m 1
 53 211 l 1
 211 211 l 1
 211 158 l 1
 53 158 l 1
53 105 m 1
 53 158 l 1
 211 158 l 1
 211 105 l 1
 53 105 l 1
53 53 m 1
 53 105 l 1
 526 105 l 1
 526 53 l 1
 53 53 l 1
53 0 m 1
 53 53 l 1
 526 53 l 1
 526 0 l 1
 53 0 l 1
EndSplineSet
EndChar

StartChar: Edieresis
Encoding: 203 203 139
Width: 579
Flags: HW
LayerCount: 2
Back
Fore
SplineSet
158 789 m 1
 158 842 l 1
 263 842 l 1
 263 789 l 1
 158 789 l 1
368 789 m 1
 368 842 l 1
 474 842 l 1
 474 789 l 1
 368 789 l 1
158 737 m 1
 158 789 l 1
 263 789 l 1
 263 737 l 1
 158 737 l 1
368 737 m 1
 368 789 l 1
 474 789 l 1
 474 737 l 1
 368 737 l 1
53 632 m 1
 53 684 l 1
 526 684 l 1
 526 632 l 1
 53 632 l 1
53 579 m 1
 53 632 l 1
 526 632 l 1
 526 579 l 1
 53 579 l 1
53 526 m 1
 53 579 l 1
 211 579 l 1
 211 526 l 1
 53 526 l 1
53 474 m 1
 53 526 l 1
 211 526 l 1
 211 474 l 1
 53 474 l 1
53 421 m 1
 53 474 l 1
 211 474 l 1
 211 421 l 1
 53 421 l 1
53 368 m 1
 53 421 l 1
 474 421 l 1
 474 368 l 1
 53 368 l 1
53 316 m 1
 53 368 l 1
 474 368 l 1
 474 316 l 1
 53 316 l 1
53 263 m 1
 53 316 l 1
 211 316 l 1
 211 263 l 1
 53 263 l 1
53 211 m 1
 53 263 l 1
 211 263 l 1
 211 211 l 1
 53 211 l 1
53 158 m 1
 53 211 l 1
 211 211 l 1
 211 158 l 1
 53 158 l 1
53 105 m 1
 53 158 l 1
 211 158 l 1
 211 105 l 1
 53 105 l 1
53 53 m 1
 53 105 l 1
 526 105 l 1
 526 53 l 1
 53 53 l 1
53 0 m 1
 53 53 l 1
 526 53 l 1
 526 0 l 1
 53 0 l 1
EndSplineSet
EndChar

StartChar: Igrave
Encoding: 204 204 140
Width: 579
Flags: HW
LayerCount: 2
Back
Fore
SplineSet
158 789 m 1
 158 842 l 1
 368 842 l 1
 368 789 l 1
 158 789 l 1
263 737 m 1
 263 789 l 1
 421 789 l 1
 421 737 l 1
 263 737 l 1
105 632 m 1
 105 684 l 1
 474 684 l 1
 474 632 l 1
 105 632 l 1
105 579 m 1
 105 632 l 1
 474 632 l 1
 474 579 l 1
 105 579 l 1
211 526 m 1
 211 579 l 1
 368 579 l 1
 368 526 l 1
 211 526 l 1
211 474 m 1
 211 526 l 1
 368 526 l 1
 368 474 l 1
 211 474 l 1
211 421 m 1
 211 474 l 1
 368 474 l 1
 368 421 l 1
 211 421 l 1
211 368 m 1
 211 421 l 1
 368 421 l 1
 368 368 l 1
 211 368 l 1
211 316 m 1
 211 368 l 1
 368 368 l 1
 368 316 l 1
 211 316 l 1
211 263 m 1
 211 316 l 1
 368 316 l 1
 368 263 l 1
 211 263 l 1
211 211 m 1
 211 263 l 1
 368 263 l 1
 368 211 l 1
 211 211 l 1
211 158 m 1
 211 211 l 1
 368 211 l 1
 368 158 l 1
 211 158 l 1
211 105 m 1
 211 158 l 1
 368 158 l 1
 368 105 l 1
 211 105 l 1
105 53 m 1
 105 105 l 1
 474 105 l 1
 474 53 l 1
 105 53 l 1
105 0 m 1
 105 53 l 1
 474 53 l 1
 474 0 l 1
 105 0 l 1
EndSplineSet
EndChar

StartChar: Iacute
Encoding: 205 205 141
Width: 579
Flags: HW
LayerCount: 2
Back
Fore
SplineSet
211 789 m 1
 211 842 l 1
 421 842 l 1
 421 789 l 1
 211 789 l 1
158 737 m 1
 158 789 l 1
 316 789 l 1
 316 737 l 1
 158 737 l 1
105 632 m 1
 105 684 l 1
 474 684 l 1
 474 632 l 1
 105 632 l 1
105 579 m 1
 105 632 l 1
 474 632 l 1
 474 579 l 1
 105 579 l 1
211 526 m 1
 211 579 l 1
 368 579 l 1
 368 526 l 1
 211 526 l 1
211 474 m 1
 211 526 l 1
 368 526 l 1
 368 474 l 1
 211 474 l 1
211 421 m 1
 211 474 l 1
 368 474 l 1
 368 421 l 1
 211 421 l 1
211 368 m 1
 211 421 l 1
 368 421 l 1
 368 368 l 1
 211 368 l 1
211 316 m 1
 211 368 l 1
 368 368 l 1
 368 316 l 1
 211 316 l 1
211 263 m 1
 211 316 l 1
 368 316 l 1
 368 263 l 1
 211 263 l 1
211 211 m 1
 211 263 l 1
 368 263 l 1
 368 211 l 1
 211 211 l 1
211 158 m 1
 211 211 l 1
 368 211 l 1
 368 158 l 1
 211 158 l 1
211 105 m 1
 211 158 l 1
 368 158 l 1
 368 105 l 1
 211 105 l 1
105 53 m 1
 105 105 l 1
 474 105 l 1
 474 53 l 1
 105 53 l 1
105 0 m 1
 105 53 l 1
 474 53 l 1
 474 0 l 1
 105 0 l 1
EndSplineSet
EndChar

StartChar: Icircumflex
Encoding: 206 206 142
Width: 579
Flags: HW
LayerCount: 2
Back
Fore
SplineSet
211 789 m 1
 211 842 l 1
 368 842 l 1
 368 789 l 1
 211 789 l 1
158 737 m 1
 158 789 l 1
 263 789 l 1
 263 737 l 1
 158 737 l 1
316 737 m 1
 316 789 l 1
 421 789 l 1
 421 737 l 1
 316 737 l 1
105 632 m 1
 105 684 l 1
 474 684 l 1
 474 632 l 1
 105 632 l 1
105 579 m 1
 105 632 l 1
 474 632 l 1
 474 579 l 1
 105 579 l 1
211 526 m 1
 211 579 l 1
 368 579 l 1
 368 526 l 1
 211 526 l 1
211 474 m 1
 211 526 l 1
 368 526 l 1
 368 474 l 1
 211 474 l 1
211 421 m 1
 211 474 l 1
 368 474 l 1
 368 421 l 1
 211 421 l 1
211 368 m 1
 211 421 l 1
 368 421 l 1
 368 368 l 1
 211 368 l 1
211 316 m 1
 211 368 l 1
 368 368 l 1
 368 316 l 1
 211 316 l 1
211 263 m 1
 211 316 l 1
 368 316 l 1
 368 263 l 1
 211 263 l 1
211 211 m 1
 211 263 l 1
 368 263 l 1
 368 211 l 1
 211 211 l 1
211 158 m 1
 211 211 l 1
 368 211 l 1
 368 158 l 1
 211 158 l 1
211 105 m 1
 211 158 l 1
 368 158 l 1
 368 105 l 1
 211 105 l 1
105 53 m 1
 105 105 l 1
 474 105 l 1
 474 53 l 1
 105 53 l 1
105 0 m 1
 105 53 l 1
 474 53 l 1
 474 0 l 1
 105 0 l 1
EndSplineSet
EndChar

StartChar: Idieresis
Encoding: 207 207 143
Width: 579
Flags: HW
LayerCount: 2
Back
Fore
SplineSet
158 789 m 1
 158 842 l 1
 263 842 l 1
 263 789 l 1
 158 789 l 1
368 789 m 1
 368 842 l 1
 474 842 l 1
 474 789 l 1
 368 789 l 1
158 737 m 1
 158 789 l 1
 263 789 l 1
 263 737 l 1
 158 737 l 1
368 737 m 1
 368 789 l 1
 474 789 l 1
 474 737 l 1
 368 737 l 1
105 632 m 1
 105 684 l 1
 474 684 l 1
 474 632 l 1
 105 632 l 1
105 579 m 1
 105 632 l 1
 474 632 l 1
 474 579 l 1
 105 579 l 1
211 526 m 1
 211 579 l 1
 368 579 l 1
 368 526 l 1
 211 526 l 1
211 474 m 1
 211 526 l 1
 368 526 l 1
 368 474 l 1
 211 474 l 1
211 421 m 1
 211 474 l 1
 368 474 l 1
 368 421 l 1
 211 421 l 1
211 368 m 1
 211 421 l 1
 368 421 l 1
 368 368 l 1
 211 368 l 1
211 316 m 1
 211 368 l 1
 368 368 l 1
 368 316 l 1
 211 316 l 1
211 263 m 1
 211 316 l 1
 368 316 l 1
 368 263 l 1
 211 263 l 1
211 211 m 1
 211 263 l 1
 368 263 l 1
 368 211 l 1
 211 211 l 1
211 158 m 1
 211 211 l 1
 368 211 l 1
 368 158 l 1
 211 158 l 1
211 105 m 1
 211 158 l 1
 368 158 l 1
 368 105 l 1
 211 105 l 1
105 53 m 1
 105 105 l 1
 474 105 l 1
 474 53 l 1
 105 53 l 1
105 0 m 1
 105 53 l 1
 474 53 l 1
 474 0 l 1
 105 0 l 1
EndSplineSet
EndChar

StartChar: Eth
Encoding: 208 208 144
Width: 579
Flags: HW
LayerCount: 2
Back
Fore
SplineSet
53 632 m 1
 53 684 l 1
 368 684 l 1
 368 632 l 1
 53 632 l 1
53 579 m 1
 53 632 l 1
 474 632 l 1
 474 579 l 1
 53 579 l 1
53 526 m 1
 53 579 l 1
 211 579 l 1
 211 526 l 1
 53 526 l 1
316 526 m 1
 316 579 l 1
 526 579 l 1
 526 526 l 1
 316 526 l 1
53 474 m 1
 53 526 l 1
 211 526 l 1
 211 474 l 1
 53 474 l 1
368 474 m 1
 368 526 l 1
 526 526 l 1
 526 474 l 1
 368 474 l 1
53 421 m 1
 53 474 l 1
 211 474 l 1
 211 421 l 1
 53 421 l 1
421 421 m 1
 421 474 l 1
 579 474 l 1
 579 421 l 1
 421 421 l 1
0 368 m 1
 0 421 l 1
 316 421 l 1
 316 368 l 1
 0 368 l 1
421 368 m 1
 421 421 l 1
 579 421 l 1
 579 368 l 1
 421 368 l 1
0 316 m 1
 0 368 l 1
 316 368 l 1
 316 316 l 1
 0 316 l 1
421 316 m 1
 421 368 l 1
 579 368 l 1
 579 316 l 1
 421 316 l 1
53 263 m 1
 53 316 l 1
 211 316 l 1
 211 263 l 1
 53 263 l 1
421 263 m 1
 421 316 l 1
 579 316 l 1
 579 263 l 1
 421 263 l 1
53 211 m 1
 53 263 l 1
 211 263 l 1
 211 211 l 1
 53 211 l 1
421 211 m 1
 421 263 l 1
 579 263 l 1
 579 211 l 1
 421 211 l 1
53 158 m 1
 53 211 l 1
 211 211 l 1
 211 158 l 1
 53 158 l 1
368 158 m 1
 368 211 l 1
 526 211 l 1
 526 158 l 1
 368 158 l 1
53 105 m 1
 53 158 l 1
 211 158 l 1
 211 105 l 1
 53 105 l 1
316 105 m 1
 316 158 l 1
 526 158 l 1
 526 105 l 1
 316 105 l 1
53 53 m 1
 53 105 l 1
 474 105 l 1
 474 53 l 1
 53 53 l 1
53 0 m 1
 53 53 l 1
 368 53 l 1
 368 0 l 1
 53 0 l 1
EndSplineSet
EndChar

StartChar: Ntilde
Encoding: 209 209 145
Width: 579
Flags: HW
LayerCount: 2
Back
Fore
SplineSet
211 789 m 1
 211 842 l 1
 368 842 l 1
 368 789 l 1
 211 789 l 1
421 789 m 1
 421 842 l 1
 474 842 l 1
 474 789 l 1
 421 789 l 1
158 737 m 1
 158 789 l 1
 211 789 l 1
 211 737 l 1
 158 737 l 1
263 737 m 1
 263 789 l 1
 421 789 l 1
 421 737 l 1
 263 737 l 1
53 632 m 1
 53 684 l 1
 211 684 l 1
 211 632 l 1
 53 632 l 1
421 632 m 1
 421 684 l 1
 526 684 l 1
 526 632 l 1
 421 632 l 1
53 579 m 1
 53 632 l 1
 211 632 l 1
 211 579 l 1
 53 579 l 1
421 579 m 1
 421 632 l 1
 526 632 l 1
 526 579 l 1
 421 579 l 1
53 526 m 1
 53 579 l 1
 263 579 l 1
 263 526 l 1
 53 526 l 1
421 526 m 1
 421 579 l 1
 526 579 l 1
 526 526 l 1
 421 526 l 1
53 474 m 1
 53 526 l 1
 263 526 l 1
 263 474 l 1
 53 474 l 1
421 474 m 1
 421 526 l 1
 526 526 l 1
 526 474 l 1
 421 474 l 1
53 421 m 1
 53 474 l 1
 316 474 l 1
 316 421 l 1
 53 421 l 1
421 421 m 1
 421 474 l 1
 526 474 l 1
 526 421 l 1
 421 421 l 1
53 368 m 1
 53 421 l 1
 158 421 l 1
 158 368 l 1
 53 368 l 1
211 368 m 1
 211 421 l 1
 368 421 l 1
 368 368 l 1
 211 368 l 1
421 368 m 1
 421 421 l 1
 526 421 l 1
 526 368 l 1
 421 368 l 1
53 316 m 1
 53 368 l 1
 158 368 l 1
 158 316 l 1
 53 316 l 1
211 316 m 1
 211 368 l 1
 368 368 l 1
 368 316 l 1
 211 316 l 1
421 316 m 1
 421 368 l 1
 526 368 l 1
 526 316 l 1
 421 316 l 1
53 263 m 1
 53 316 l 1
 158 316 l 1
 158 263 l 1
 53 263 l 1
263 263 m 1
 263 316 l 1
 526 316 l 1
 526 263 l 1
 263 263 l 1
53 211 m 1
 53 263 l 1
 158 263 l 1
 158 211 l 1
 53 211 l 1
263 211 m 1
 263 263 l 1
 526 263 l 1
 526 211 l 1
 263 211 l 1
53 158 m 1
 53 211 l 1
 158 211 l 1
 158 158 l 1
 53 158 l 1
316 158 m 1
 316 211 l 1
 526 211 l 1
 526 158 l 1
 316 158 l 1
53 105 m 1
 53 158 l 1
 158 158 l 1
 158 105 l 1
 53 105 l 1
368 105 m 1
 368 158 l 1
 526 158 l 1
 526 105 l 1
 368 105 l 1
53 53 m 1
 53 105 l 1
 158 105 l 1
 158 53 l 1
 53 53 l 1
368 53 m 1
 368 105 l 1
 526 105 l 1
 526 53 l 1
 368 53 l 1
53 0 m 1
 53 53 l 1
 158 53 l 1
 158 0 l 1
 53 0 l 1
421 0 m 1
 421 53 l 1
 526 53 l 1
 526 0 l 1
 421 0 l 1
EndSplineSet
EndChar

StartChar: Ograve
Encoding: 210 210 146
Width: 579
Flags: HW
LayerCount: 2
Back
Fore
SplineSet
158 789 m 1
 158 842 l 1
 368 842 l 1
 368 789 l 1
 158 789 l 1
263 737 m 1
 263 789 l 1
 421 789 l 1
 421 737 l 1
 263 737 l 1
211 632 m 1
 211 684 l 1
 421 684 l 1
 421 632 l 1
 211 632 l 1
158 579 m 1
 158 632 l 1
 474 632 l 1
 474 579 l 1
 158 579 l 1
105 526 m 1
 105 579 l 1
 263 579 l 1
 263 526 l 1
 105 526 l 1
368 526 m 1
 368 579 l 1
 526 579 l 1
 526 526 l 1
 368 526 l 1
105 474 m 1
 105 526 l 1
 263 526 l 1
 263 474 l 1
 105 474 l 1
368 474 m 1
 368 526 l 1
 526 526 l 1
 526 474 l 1
 368 474 l 1
53 421 m 1
 53 474 l 1
 211 474 l 1
 211 421 l 1
 53 421 l 1
421 421 m 1
 421 474 l 1
 579 474 l 1
 579 421 l 1
 421 421 l 1
53 368 m 1
 53 421 l 1
 211 421 l 1
 211 368 l 1
 53 368 l 1
421 368 m 1
 421 421 l 1
 579 421 l 1
 579 368 l 1
 421 368 l 1
53 316 m 1
 53 368 l 1
 211 368 l 1
 211 316 l 1
 53 316 l 1
421 316 m 1
 421 368 l 1
 579 368 l 1
 579 316 l 1
 421 316 l 1
53 263 m 1
 53 316 l 1
 211 316 l 1
 211 263 l 1
 53 263 l 1
421 263 m 1
 421 316 l 1
 579 316 l 1
 579 263 l 1
 421 263 l 1
53 211 m 1
 53 263 l 1
 211 263 l 1
 211 211 l 1
 53 211 l 1
421 211 m 1
 421 263 l 1
 579 263 l 1
 579 211 l 1
 421 211 l 1
105 158 m 1
 105 211 l 1
 263 211 l 1
 263 158 l 1
 105 158 l 1
368 158 m 1
 368 211 l 1
 526 211 l 1
 526 158 l 1
 368 158 l 1
105 105 m 1
 105 158 l 1
 263 158 l 1
 263 105 l 1
 105 105 l 1
368 105 m 1
 368 158 l 1
 526 158 l 1
 526 105 l 1
 368 105 l 1
158 53 m 1
 158 105 l 1
 474 105 l 1
 474 53 l 1
 158 53 l 1
211 0 m 1
 211 53 l 1
 421 53 l 1
 421 0 l 1
 211 0 l 1
EndSplineSet
EndChar

StartChar: Oacute
Encoding: 211 211 147
Width: 579
Flags: HW
LayerCount: 2
Back
Fore
SplineSet
263 789 m 1
 263 842 l 1
 474 842 l 1
 474 789 l 1
 263 789 l 1
211 737 m 1
 211 789 l 1
 368 789 l 1
 368 737 l 1
 211 737 l 1
211 632 m 1
 211 684 l 1
 421 684 l 1
 421 632 l 1
 211 632 l 1
158 579 m 1
 158 632 l 1
 474 632 l 1
 474 579 l 1
 158 579 l 1
105 526 m 1
 105 579 l 1
 263 579 l 1
 263 526 l 1
 105 526 l 1
368 526 m 1
 368 579 l 1
 526 579 l 1
 526 526 l 1
 368 526 l 1
105 474 m 1
 105 526 l 1
 263 526 l 1
 263 474 l 1
 105 474 l 1
368 474 m 1
 368 526 l 1
 526 526 l 1
 526 474 l 1
 368 474 l 1
53 421 m 1
 53 474 l 1
 211 474 l 1
 211 421 l 1
 53 421 l 1
421 421 m 1
 421 474 l 1
 579 474 l 1
 579 421 l 1
 421 421 l 1
53 368 m 1
 53 421 l 1
 211 421 l 1
 211 368 l 1
 53 368 l 1
421 368 m 1
 421 421 l 1
 579 421 l 1
 579 368 l 1
 421 368 l 1
53 316 m 1
 53 368 l 1
 211 368 l 1
 211 316 l 1
 53 316 l 1
421 316 m 1
 421 368 l 1
 579 368 l 1
 579 316 l 1
 421 316 l 1
53 263 m 1
 53 316 l 1
 211 316 l 1
 211 263 l 1
 53 263 l 1
421 263 m 1
 421 316 l 1
 579 316 l 1
 579 263 l 1
 421 263 l 1
53 211 m 1
 53 263 l 1
 211 263 l 1
 211 211 l 1
 53 211 l 1
421 211 m 1
 421 263 l 1
 579 263 l 1
 579 211 l 1
 421 211 l 1
105 158 m 1
 105 211 l 1
 263 211 l 1
 263 158 l 1
 105 158 l 1
368 158 m 1
 368 211 l 1
 526 211 l 1
 526 158 l 1
 368 158 l 1
105 105 m 1
 105 158 l 1
 263 158 l 1
 263 105 l 1
 105 105 l 1
368 105 m 1
 368 158 l 1
 526 158 l 1
 526 105 l 1
 368 105 l 1
158 53 m 1
 158 105 l 1
 474 105 l 1
 474 53 l 1
 158 53 l 1
211 0 m 1
 211 53 l 1
 421 53 l 1
 421 0 l 1
 211 0 l 1
EndSplineSet
EndChar

StartChar: Ocircumflex
Encoding: 212 212 148
Width: 579
Flags: HW
LayerCount: 2
Back
Fore
SplineSet
263 789 m 1
 263 842 l 1
 421 842 l 1
 421 789 l 1
 263 789 l 1
211 737 m 1
 211 789 l 1
 316 789 l 1
 316 737 l 1
 211 737 l 1
368 737 m 1
 368 789 l 1
 474 789 l 1
 474 737 l 1
 368 737 l 1
211 632 m 1
 211 684 l 1
 421 684 l 1
 421 632 l 1
 211 632 l 1
158 579 m 1
 158 632 l 1
 474 632 l 1
 474 579 l 1
 158 579 l 1
105 526 m 1
 105 579 l 1
 263 579 l 1
 263 526 l 1
 105 526 l 1
368 526 m 1
 368 579 l 1
 526 579 l 1
 526 526 l 1
 368 526 l 1
105 474 m 1
 105 526 l 1
 263 526 l 1
 263 474 l 1
 105 474 l 1
368 474 m 1
 368 526 l 1
 526 526 l 1
 526 474 l 1
 368 474 l 1
53 421 m 1
 53 474 l 1
 211 474 l 1
 211 421 l 1
 53 421 l 1
421 421 m 1
 421 474 l 1
 579 474 l 1
 579 421 l 1
 421 421 l 1
53 368 m 1
 53 421 l 1
 211 421 l 1
 211 368 l 1
 53 368 l 1
421 368 m 1
 421 421 l 1
 579 421 l 1
 579 368 l 1
 421 368 l 1
53 316 m 1
 53 368 l 1
 211 368 l 1
 211 316 l 1
 53 316 l 1
421 316 m 1
 421 368 l 1
 579 368 l 1
 579 316 l 1
 421 316 l 1
53 263 m 1
 53 316 l 1
 211 316 l 1
 211 263 l 1
 53 263 l 1
421 263 m 1
 421 316 l 1
 579 316 l 1
 579 263 l 1
 421 263 l 1
53 211 m 1
 53 263 l 1
 211 263 l 1
 211 211 l 1
 53 211 l 1
421 211 m 1
 421 263 l 1
 579 263 l 1
 579 211 l 1
 421 211 l 1
105 158 m 1
 105 211 l 1
 263 211 l 1
 263 158 l 1
 105 158 l 1
368 158 m 1
 368 211 l 1
 526 211 l 1
 526 158 l 1
 368 158 l 1
105 105 m 1
 105 158 l 1
 263 158 l 1
 263 105 l 1
 105 105 l 1
368 105 m 1
 368 158 l 1
 526 158 l 1
 526 105 l 1
 368 105 l 1
158 53 m 1
 158 105 l 1
 474 105 l 1
 474 53 l 1
 158 53 l 1
211 0 m 1
 211 53 l 1
 421 53 l 1
 421 0 l 1
 211 0 l 1
EndSplineSet
EndChar

StartChar: Otilde
Encoding: 213 213 149
Width: 579
Flags: HW
LayerCount: 2
Back
Fore
SplineSet
211 789 m 1
 211 842 l 1
 368 842 l 1
 368 789 l 1
 211 789 l 1
421 789 m 1
 421 842 l 1
 474 842 l 1
 474 789 l 1
 421 789 l 1
158 737 m 1
 158 789 l 1
 211 789 l 1
 211 737 l 1
 158 737 l 1
263 737 m 1
 263 789 l 1
 421 789 l 1
 421 737 l 1
 263 737 l 1
211 632 m 1
 211 684 l 1
 421 684 l 1
 421 632 l 1
 211 632 l 1
158 579 m 1
 158 632 l 1
 474 632 l 1
 474 579 l 1
 158 579 l 1
105 526 m 1
 105 579 l 1
 263 579 l 1
 263 526 l 1
 105 526 l 1
368 526 m 1
 368 579 l 1
 526 579 l 1
 526 526 l 1
 368 526 l 1
105 474 m 1
 105 526 l 1
 263 526 l 1
 263 474 l 1
 105 474 l 1
368 474 m 1
 368 526 l 1
 526 526 l 1
 526 474 l 1
 368 474 l 1
53 421 m 1
 53 474 l 1
 211 474 l 1
 211 421 l 1
 53 421 l 1
421 421 m 1
 421 474 l 1
 579 474 l 1
 579 421 l 1
 421 421 l 1
53 368 m 1
 53 421 l 1
 211 421 l 1
 211 368 l 1
 53 368 l 1
421 368 m 1
 421 421 l 1
 579 421 l 1
 579 368 l 1
 421 368 l 1
53 316 m 1
 53 368 l 1
 211 368 l 1
 211 316 l 1
 53 316 l 1
421 316 m 1
 421 368 l 1
 579 368 l 1
 579 316 l 1
 421 316 l 1
53 263 m 1
 53 316 l 1
 211 316 l 1
 211 263 l 1
 53 263 l 1
421 263 m 1
 421 316 l 1
 579 316 l 1
 579 263 l 1
 421 263 l 1
53 211 m 1
 53 263 l 1
 211 263 l 1
 211 211 l 1
 53 211 l 1
421 211 m 1
 421 263 l 1
 579 263 l 1
 579 211 l 1
 421 211 l 1
105 158 m 1
 105 211 l 1
 263 211 l 1
 263 158 l 1
 105 158 l 1
368 158 m 1
 368 211 l 1
 526 211 l 1
 526 158 l 1
 368 158 l 1
105 105 m 1
 105 158 l 1
 263 158 l 1
 263 105 l 1
 105 105 l 1
368 105 m 1
 368 158 l 1
 526 158 l 1
 526 105 l 1
 368 105 l 1
158 53 m 1
 158 105 l 1
 474 105 l 1
 474 53 l 1
 158 53 l 1
211 0 m 1
 211 53 l 1
 421 53 l 1
 421 0 l 1
 211 0 l 1
EndSplineSet
EndChar

StartChar: Odieresis
Encoding: 214 214 150
Width: 579
Flags: HW
LayerCount: 2
Back
Fore
SplineSet
158 789 m 1
 158 842 l 1
 263 842 l 1
 263 789 l 1
 158 789 l 1
368 789 m 1
 368 842 l 1
 474 842 l 1
 474 789 l 1
 368 789 l 1
158 737 m 1
 158 789 l 1
 263 789 l 1
 263 737 l 1
 158 737 l 1
368 737 m 1
 368 789 l 1
 474 789 l 1
 474 737 l 1
 368 737 l 1
211 632 m 1
 211 684 l 1
 421 684 l 1
 421 632 l 1
 211 632 l 1
158 579 m 1
 158 632 l 1
 474 632 l 1
 474 579 l 1
 158 579 l 1
105 526 m 1
 105 579 l 1
 263 579 l 1
 263 526 l 1
 105 526 l 1
368 526 m 1
 368 579 l 1
 526 579 l 1
 526 526 l 1
 368 526 l 1
105 474 m 1
 105 526 l 1
 263 526 l 1
 263 474 l 1
 105 474 l 1
368 474 m 1
 368 526 l 1
 526 526 l 1
 526 474 l 1
 368 474 l 1
53 421 m 1
 53 474 l 1
 211 474 l 1
 211 421 l 1
 53 421 l 1
421 421 m 1
 421 474 l 1
 579 474 l 1
 579 421 l 1
 421 421 l 1
53 368 m 1
 53 421 l 1
 211 421 l 1
 211 368 l 1
 53 368 l 1
421 368 m 1
 421 421 l 1
 579 421 l 1
 579 368 l 1
 421 368 l 1
53 316 m 1
 53 368 l 1
 211 368 l 1
 211 316 l 1
 53 316 l 1
421 316 m 1
 421 368 l 1
 579 368 l 1
 579 316 l 1
 421 316 l 1
53 263 m 1
 53 316 l 1
 211 316 l 1
 211 263 l 1
 53 263 l 1
421 263 m 1
 421 316 l 1
 579 316 l 1
 579 263 l 1
 421 263 l 1
53 211 m 1
 53 263 l 1
 211 263 l 1
 211 211 l 1
 53 211 l 1
421 211 m 1
 421 263 l 1
 579 263 l 1
 579 211 l 1
 421 211 l 1
105 158 m 1
 105 211 l 1
 263 211 l 1
 263 158 l 1
 105 158 l 1
368 158 m 1
 368 211 l 1
 526 211 l 1
 526 158 l 1
 368 158 l 1
105 105 m 1
 105 158 l 1
 263 158 l 1
 263 105 l 1
 105 105 l 1
368 105 m 1
 368 158 l 1
 526 158 l 1
 526 105 l 1
 368 105 l 1
158 53 m 1
 158 105 l 1
 474 105 l 1
 474 53 l 1
 158 53 l 1
211 0 m 1
 211 53 l 1
 421 53 l 1
 421 0 l 1
 211 0 l 1
EndSplineSet
EndChar

StartChar: multiply
Encoding: 215 215 151
Width: 579
Flags: HW
LayerCount: 2
Back
Fore
SplineSet
53 526 m 1
 53 579 l 1
 158 579 l 1
 158 526 l 1
 53 526 l 1
474 526 m 1
 474 579 l 1
 579 579 l 1
 579 526 l 1
 474 526 l 1
53 474 m 1
 53 526 l 1
 211 526 l 1
 211 474 l 1
 53 474 l 1
421 474 m 1
 421 526 l 1
 579 526 l 1
 579 474 l 1
 421 474 l 1
105 421 m 1
 105 474 l 1
 263 474 l 1
 263 421 l 1
 105 421 l 1
368 421 m 1
 368 474 l 1
 526 474 l 1
 526 421 l 1
 368 421 l 1
158 368 m 1
 158 421 l 1
 316 421 l 1
 316 368 l 1
 158 368 l 1
368 368 m 1
 368 421 l 1
 474 421 l 1
 474 368 l 1
 368 368 l 1
263 316 m 1
 263 368 l 1
 421 368 l 1
 421 316 l 1
 263 316 l 1
211 263 m 1
 211 316 l 1
 368 316 l 1
 368 263 l 1
 211 263 l 1
158 211 m 1
 158 263 l 1
 263 263 l 1
 263 211 l 1
 158 211 l 1
316 211 m 1
 316 263 l 1
 474 263 l 1
 474 211 l 1
 316 211 l 1
105 158 m 1
 105 211 l 1
 263 211 l 1
 263 158 l 1
 105 158 l 1
368 158 m 1
 368 211 l 1
 526 211 l 1
 526 158 l 1
 368 158 l 1
53 105 m 1
 53 158 l 1
 211 158 l 1
 211 105 l 1
 53 105 l 1
421 105 m 1
 421 158 l 1
 579 158 l 1
 579 105 l 1
 421 105 l 1
53 53 m 1
 53 105 l 1
 158 105 l 1
 158 53 l 1
 53 53 l 1
474 53 m 1
 474 105 l 1
 579 105 l 1
 579 53 l 1
 474 53 l 1
EndSplineSet
EndChar

StartChar: Oslash
Encoding: 216 216 152
Width: 579
Flags: HW
LayerCount: 2
Back
Fore
SplineSet
474 684 m 1
 474 737 l 1
 579 737 l 1
 579 684 l 1
 474 684 l 1
211 632 m 1
 211 684 l 1
 421 684 l 1
 421 632 l 1
 211 632 l 1
474 632 m 1
 474 684 l 1
 579 684 l 1
 579 632 l 1
 474 632 l 1
158 579 m 1
 158 632 l 1
 526 632 l 1
 526 579 l 1
 158 579 l 1
105 526 m 1
 105 579 l 1
 263 579 l 1
 263 526 l 1
 105 526 l 1
368 526 m 1
 368 579 l 1
 526 579 l 1
 526 526 l 1
 368 526 l 1
105 474 m 1
 105 526 l 1
 263 526 l 1
 263 474 l 1
 105 474 l 1
368 474 m 1
 368 526 l 1
 526 526 l 1
 526 474 l 1
 368 474 l 1
53 421 m 1
 53 474 l 1
 211 474 l 1
 211 421 l 1
 53 421 l 1
316 421 m 1
 316 474 l 1
 368 474 l 1
 368 421 l 1
 316 421 l 1
421 421 m 1
 421 474 l 1
 579 474 l 1
 579 421 l 1
 421 421 l 1
53 368 m 1
 53 421 l 1
 211 421 l 1
 211 368 l 1
 53 368 l 1
316 368 m 1
 316 421 l 1
 368 421 l 1
 368 368 l 1
 316 368 l 1
421 368 m 1
 421 421 l 1
 579 421 l 1
 579 368 l 1
 421 368 l 1
53 316 m 1
 53 368 l 1
 211 368 l 1
 211 316 l 1
 53 316 l 1
263 316 m 1
 263 368 l 1
 368 368 l 1
 368 316 l 1
 263 316 l 1
421 316 m 1
 421 368 l 1
 579 368 l 1
 579 316 l 1
 421 316 l 1
53 263 m 1
 53 316 l 1
 211 316 l 1
 211 263 l 1
 53 263 l 1
263 263 m 1
 263 316 l 1
 316 316 l 1
 316 263 l 1
 263 263 l 1
421 263 m 1
 421 316 l 1
 579 316 l 1
 579 263 l 1
 421 263 l 1
53 211 m 1
 53 263 l 1
 211 263 l 1
 211 211 l 1
 53 211 l 1
263 211 m 1
 263 263 l 1
 316 263 l 1
 316 211 l 1
 263 211 l 1
421 211 m 1
 421 263 l 1
 579 263 l 1
 579 211 l 1
 421 211 l 1
105 158 m 1
 105 211 l 1
 263 211 l 1
 263 158 l 1
 105 158 l 1
368 158 m 1
 368 211 l 1
 526 211 l 1
 526 158 l 1
 368 158 l 1
105 105 m 1
 105 158 l 1
 263 158 l 1
 263 105 l 1
 105 105 l 1
368 105 m 1
 368 158 l 1
 526 158 l 1
 526 105 l 1
 368 105 l 1
105 53 m 1
 105 105 l 1
 474 105 l 1
 474 53 l 1
 105 53 l 1
53 0 m 1
 53 53 l 1
 158 53 l 1
 158 0 l 1
 53 0 l 1
211 0 m 1
 211 53 l 1
 421 53 l 1
 421 0 l 1
 211 0 l 1
53 -53 m 1
 53 0 l 1
 158 0 l 1
 158 -53 l 1
 53 -53 l 1
EndSplineSet
EndChar

StartChar: Ugrave
Encoding: 217 217 153
Width: 579
Flags: HW
LayerCount: 2
Back
Fore
SplineSet
158 789 m 1
 158 842 l 1
 368 842 l 1
 368 789 l 1
 158 789 l 1
263 737 m 1
 263 789 l 1
 421 789 l 1
 421 737 l 1
 263 737 l 1
53 632 m 1
 53 684 l 1
 211 684 l 1
 211 632 l 1
 53 632 l 1
421 632 m 1
 421 684 l 1
 579 684 l 1
 579 632 l 1
 421 632 l 1
53 579 m 1
 53 632 l 1
 211 632 l 1
 211 579 l 1
 53 579 l 1
421 579 m 1
 421 632 l 1
 579 632 l 1
 579 579 l 1
 421 579 l 1
53 526 m 1
 53 579 l 1
 211 579 l 1
 211 526 l 1
 53 526 l 1
421 526 m 1
 421 579 l 1
 579 579 l 1
 579 526 l 1
 421 526 l 1
53 474 m 1
 53 526 l 1
 211 526 l 1
 211 474 l 1
 53 474 l 1
421 474 m 1
 421 526 l 1
 579 526 l 1
 579 474 l 1
 421 474 l 1
53 421 m 1
 53 474 l 1
 211 474 l 1
 211 421 l 1
 53 421 l 1
421 421 m 1
 421 474 l 1
 579 474 l 1
 579 421 l 1
 421 421 l 1
53 368 m 1
 53 421 l 1
 211 421 l 1
 211 368 l 1
 53 368 l 1
421 368 m 1
 421 421 l 1
 579 421 l 1
 579 368 l 1
 421 368 l 1
53 316 m 1
 53 368 l 1
 211 368 l 1
 211 316 l 1
 53 316 l 1
421 316 m 1
 421 368 l 1
 579 368 l 1
 579 316 l 1
 421 316 l 1
53 263 m 1
 53 316 l 1
 211 316 l 1
 211 263 l 1
 53 263 l 1
421 263 m 1
 421 316 l 1
 579 316 l 1
 579 263 l 1
 421 263 l 1
53 211 m 1
 53 263 l 1
 211 263 l 1
 211 211 l 1
 53 211 l 1
421 211 m 1
 421 263 l 1
 579 263 l 1
 579 211 l 1
 421 211 l 1
53 158 m 1
 53 211 l 1
 211 211 l 1
 211 158 l 1
 53 158 l 1
421 158 m 1
 421 211 l 1
 579 211 l 1
 579 158 l 1
 421 158 l 1
105 105 m 1
 105 158 l 1
 263 158 l 1
 263 105 l 1
 105 105 l 1
368 105 m 1
 368 158 l 1
 526 158 l 1
 526 105 l 1
 368 105 l 1
105 53 m 1
 105 105 l 1
 526 105 l 1
 526 53 l 1
 105 53 l 1
211 0 m 1
 211 53 l 1
 421 53 l 1
 421 0 l 1
 211 0 l 1
EndSplineSet
EndChar

StartChar: Uacute
Encoding: 218 218 154
Width: 579
Flags: HW
LayerCount: 2
Back
Fore
SplineSet
263 789 m 1
 263 842 l 1
 474 842 l 1
 474 789 l 1
 263 789 l 1
211 737 m 1
 211 789 l 1
 368 789 l 1
 368 737 l 1
 211 737 l 1
53 632 m 1
 53 684 l 1
 211 684 l 1
 211 632 l 1
 53 632 l 1
421 632 m 1
 421 684 l 1
 579 684 l 1
 579 632 l 1
 421 632 l 1
53 579 m 1
 53 632 l 1
 211 632 l 1
 211 579 l 1
 53 579 l 1
421 579 m 1
 421 632 l 1
 579 632 l 1
 579 579 l 1
 421 579 l 1
53 526 m 1
 53 579 l 1
 211 579 l 1
 211 526 l 1
 53 526 l 1
421 526 m 1
 421 579 l 1
 579 579 l 1
 579 526 l 1
 421 526 l 1
53 474 m 1
 53 526 l 1
 211 526 l 1
 211 474 l 1
 53 474 l 1
421 474 m 1
 421 526 l 1
 579 526 l 1
 579 474 l 1
 421 474 l 1
53 421 m 1
 53 474 l 1
 211 474 l 1
 211 421 l 1
 53 421 l 1
421 421 m 1
 421 474 l 1
 579 474 l 1
 579 421 l 1
 421 421 l 1
53 368 m 1
 53 421 l 1
 211 421 l 1
 211 368 l 1
 53 368 l 1
421 368 m 1
 421 421 l 1
 579 421 l 1
 579 368 l 1
 421 368 l 1
53 316 m 1
 53 368 l 1
 211 368 l 1
 211 316 l 1
 53 316 l 1
421 316 m 1
 421 368 l 1
 579 368 l 1
 579 316 l 1
 421 316 l 1
53 263 m 1
 53 316 l 1
 211 316 l 1
 211 263 l 1
 53 263 l 1
421 263 m 1
 421 316 l 1
 579 316 l 1
 579 263 l 1
 421 263 l 1
53 211 m 1
 53 263 l 1
 211 263 l 1
 211 211 l 1
 53 211 l 1
421 211 m 1
 421 263 l 1
 579 263 l 1
 579 211 l 1
 421 211 l 1
53 158 m 1
 53 211 l 1
 211 211 l 1
 211 158 l 1
 53 158 l 1
421 158 m 1
 421 211 l 1
 579 211 l 1
 579 158 l 1
 421 158 l 1
105 105 m 1
 105 158 l 1
 263 158 l 1
 263 105 l 1
 105 105 l 1
368 105 m 1
 368 158 l 1
 526 158 l 1
 526 105 l 1
 368 105 l 1
105 53 m 1
 105 105 l 1
 526 105 l 1
 526 53 l 1
 105 53 l 1
211 0 m 1
 211 53 l 1
 421 53 l 1
 421 0 l 1
 211 0 l 1
EndSplineSet
EndChar

StartChar: Ucircumflex
Encoding: 219 219 155
Width: 579
Flags: HW
LayerCount: 2
Back
Fore
SplineSet
263 789 m 1
 263 842 l 1
 421 842 l 1
 421 789 l 1
 263 789 l 1
211 737 m 1
 211 789 l 1
 316 789 l 1
 316 737 l 1
 211 737 l 1
368 737 m 1
 368 789 l 1
 474 789 l 1
 474 737 l 1
 368 737 l 1
53 632 m 1
 53 684 l 1
 211 684 l 1
 211 632 l 1
 53 632 l 1
421 632 m 1
 421 684 l 1
 579 684 l 1
 579 632 l 1
 421 632 l 1
53 579 m 1
 53 632 l 1
 211 632 l 1
 211 579 l 1
 53 579 l 1
421 579 m 1
 421 632 l 1
 579 632 l 1
 579 579 l 1
 421 579 l 1
53 526 m 1
 53 579 l 1
 211 579 l 1
 211 526 l 1
 53 526 l 1
421 526 m 1
 421 579 l 1
 579 579 l 1
 579 526 l 1
 421 526 l 1
53 474 m 1
 53 526 l 1
 211 526 l 1
 211 474 l 1
 53 474 l 1
421 474 m 1
 421 526 l 1
 579 526 l 1
 579 474 l 1
 421 474 l 1
53 421 m 1
 53 474 l 1
 211 474 l 1
 211 421 l 1
 53 421 l 1
421 421 m 1
 421 474 l 1
 579 474 l 1
 579 421 l 1
 421 421 l 1
53 368 m 1
 53 421 l 1
 211 421 l 1
 211 368 l 1
 53 368 l 1
421 368 m 1
 421 421 l 1
 579 421 l 1
 579 368 l 1
 421 368 l 1
53 316 m 1
 53 368 l 1
 211 368 l 1
 211 316 l 1
 53 316 l 1
421 316 m 1
 421 368 l 1
 579 368 l 1
 579 316 l 1
 421 316 l 1
53 263 m 1
 53 316 l 1
 211 316 l 1
 211 263 l 1
 53 263 l 1
421 263 m 1
 421 316 l 1
 579 316 l 1
 579 263 l 1
 421 263 l 1
53 211 m 1
 53 263 l 1
 211 263 l 1
 211 211 l 1
 53 211 l 1
421 211 m 1
 421 263 l 1
 579 263 l 1
 579 211 l 1
 421 211 l 1
53 158 m 1
 53 211 l 1
 211 211 l 1
 211 158 l 1
 53 158 l 1
421 158 m 1
 421 211 l 1
 579 211 l 1
 579 158 l 1
 421 158 l 1
105 105 m 1
 105 158 l 1
 263 158 l 1
 263 105 l 1
 105 105 l 1
368 105 m 1
 368 158 l 1
 526 158 l 1
 526 105 l 1
 368 105 l 1
105 53 m 1
 105 105 l 1
 526 105 l 1
 526 53 l 1
 105 53 l 1
211 0 m 1
 211 53 l 1
 421 53 l 1
 421 0 l 1
 211 0 l 1
EndSplineSet
EndChar

StartChar: Udieresis
Encoding: 220 220 156
Width: 579
Flags: HW
LayerCount: 2
Back
Fore
SplineSet
158 789 m 1
 158 842 l 1
 263 842 l 1
 263 789 l 1
 158 789 l 1
368 789 m 1
 368 842 l 1
 474 842 l 1
 474 789 l 1
 368 789 l 1
158 737 m 1
 158 789 l 1
 263 789 l 1
 263 737 l 1
 158 737 l 1
368 737 m 1
 368 789 l 1
 474 789 l 1
 474 737 l 1
 368 737 l 1
53 632 m 1
 53 684 l 1
 211 684 l 1
 211 632 l 1
 53 632 l 1
421 632 m 1
 421 684 l 1
 579 684 l 1
 579 632 l 1
 421 632 l 1
53 579 m 1
 53 632 l 1
 211 632 l 1
 211 579 l 1
 53 579 l 1
421 579 m 1
 421 632 l 1
 579 632 l 1
 579 579 l 1
 421 579 l 1
53 526 m 1
 53 579 l 1
 211 579 l 1
 211 526 l 1
 53 526 l 1
421 526 m 1
 421 579 l 1
 579 579 l 1
 579 526 l 1
 421 526 l 1
53 474 m 1
 53 526 l 1
 211 526 l 1
 211 474 l 1
 53 474 l 1
421 474 m 1
 421 526 l 1
 579 526 l 1
 579 474 l 1
 421 474 l 1
53 421 m 1
 53 474 l 1
 211 474 l 1
 211 421 l 1
 53 421 l 1
421 421 m 1
 421 474 l 1
 579 474 l 1
 579 421 l 1
 421 421 l 1
53 368 m 1
 53 421 l 1
 211 421 l 1
 211 368 l 1
 53 368 l 1
421 368 m 1
 421 421 l 1
 579 421 l 1
 579 368 l 1
 421 368 l 1
53 316 m 1
 53 368 l 1
 211 368 l 1
 211 316 l 1
 53 316 l 1
421 316 m 1
 421 368 l 1
 579 368 l 1
 579 316 l 1
 421 316 l 1
53 263 m 1
 53 316 l 1
 211 316 l 1
 211 263 l 1
 53 263 l 1
421 263 m 1
 421 316 l 1
 579 316 l 1
 579 263 l 1
 421 263 l 1
53 211 m 1
 53 263 l 1
 211 263 l 1
 211 211 l 1
 53 211 l 1
421 211 m 1
 421 263 l 1
 579 263 l 1
 579 211 l 1
 421 211 l 1
53 158 m 1
 53 211 l 1
 211 211 l 1
 211 158 l 1
 53 158 l 1
421 158 m 1
 421 211 l 1
 579 211 l 1
 579 158 l 1
 421 158 l 1
105 105 m 1
 105 158 l 1
 263 158 l 1
 263 105 l 1
 105 105 l 1
368 105 m 1
 368 158 l 1
 526 158 l 1
 526 105 l 1
 368 105 l 1
105 53 m 1
 105 105 l 1
 526 105 l 1
 526 53 l 1
 105 53 l 1
211 0 m 1
 211 53 l 1
 421 53 l 1
 421 0 l 1
 211 0 l 1
EndSplineSet
EndChar

StartChar: Yacute
Encoding: 221 221 157
Width: 579
Flags: HW
LayerCount: 2
Back
Fore
SplineSet
211 789 m 1
 211 842 l 1
 421 842 l 1
 421 789 l 1
 211 789 l 1
158 737 m 1
 158 789 l 1
 316 789 l 1
 316 737 l 1
 158 737 l 1
0 632 m 1
 0 684 l 1
 158 684 l 1
 158 632 l 1
 0 632 l 1
421 632 m 1
 421 684 l 1
 579 684 l 1
 579 632 l 1
 421 632 l 1
0 579 m 1
 0 632 l 1
 158 632 l 1
 158 579 l 1
 0 579 l 1
421 579 m 1
 421 632 l 1
 579 632 l 1
 579 579 l 1
 421 579 l 1
53 526 m 1
 53 579 l 1
 211 579 l 1
 211 526 l 1
 53 526 l 1
421 526 m 1
 421 579 l 1
 526 579 l 1
 526 526 l 1
 421 526 l 1
53 474 m 1
 53 526 l 1
 211 526 l 1
 211 474 l 1
 53 474 l 1
368 474 m 1
 368 526 l 1
 526 526 l 1
 526 474 l 1
 368 474 l 1
105 421 m 1
 105 474 l 1
 263 474 l 1
 263 421 l 1
 105 421 l 1
368 421 m 1
 368 474 l 1
 474 474 l 1
 474 421 l 1
 368 421 l 1
105 368 m 1
 105 421 l 1
 263 421 l 1
 263 368 l 1
 105 368 l 1
368 368 m 1
 368 421 l 1
 474 421 l 1
 474 368 l 1
 368 368 l 1
158 316 m 1
 158 368 l 1
 421 368 l 1
 421 316 l 1
 158 316 l 1
211 263 m 1
 211 316 l 1
 368 316 l 1
 368 263 l 1
 211 263 l 1
211 211 m 1
 211 263 l 1
 368 263 l 1
 368 211 l 1
 211 211 l 1
211 158 m 1
 211 211 l 1
 368 211 l 1
 368 158 l 1
 211 158 l 1
211 105 m 1
 211 158 l 1
 368 158 l 1
 368 105 l 1
 211 105 l 1
211 53 m 1
 211 105 l 1
 368 105 l 1
 368 53 l 1
 211 53 l 1
211 0 m 1
 211 53 l 1
 368 53 l 1
 368 0 l 1
 211 0 l 1
EndSplineSet
EndChar

StartChar: Thorn
Encoding: 222 222 158
Width: 579
Flags: HW
LayerCount: 2
Back
Fore
SplineSet
53 632 m 1
 53 684 l 1
 211 684 l 1
 211 632 l 1
 53 632 l 1
53 579 m 1
 53 632 l 1
 211 632 l 1
 211 579 l 1
 53 579 l 1
53 526 m 1
 53 579 l 1
 211 579 l 1
 211 526 l 1
 53 526 l 1
53 474 m 1
 53 526 l 1
 421 526 l 1
 421 474 l 1
 53 474 l 1
53 421 m 1
 53 474 l 1
 474 474 l 1
 474 421 l 1
 53 421 l 1
53 368 m 1
 53 421 l 1
 211 421 l 1
 211 368 l 1
 53 368 l 1
316 368 m 1
 316 421 l 1
 526 421 l 1
 526 368 l 1
 316 368 l 1
53 316 m 1
 53 368 l 1
 211 368 l 1
 211 316 l 1
 53 316 l 1
368 316 m 1
 368 368 l 1
 526 368 l 1
 526 316 l 1
 368 316 l 1
53 263 m 1
 53 316 l 1
 211 316 l 1
 211 263 l 1
 53 263 l 1
316 263 m 1
 316 316 l 1
 526 316 l 1
 526 263 l 1
 316 263 l 1
53 211 m 1
 53 263 l 1
 474 263 l 1
 474 211 l 1
 53 211 l 1
53 158 m 1
 53 211 l 1
 368 211 l 1
 368 158 l 1
 53 158 l 1
53 105 m 1
 53 158 l 1
 211 158 l 1
 211 105 l 1
 53 105 l 1
53 53 m 1
 53 105 l 1
 211 105 l 1
 211 53 l 1
 53 53 l 1
53 0 m 1
 53 53 l 1
 211 53 l 1
 211 0 l 1
 53 0 l 1
EndSplineSet
EndChar

StartChar: germandbls
Encoding: 223 223 159
Width: 579
Flags: HW
LayerCount: 2
Back
Fore
SplineSet
211 684 m 1
 211 737 l 1
 421 737 l 1
 421 684 l 1
 211 684 l 1
105 632 m 1
 105 684 l 1
 474 684 l 1
 474 632 l 1
 105 632 l 1
53 579 m 1
 53 632 l 1
 211 632 l 1
 211 579 l 1
 53 579 l 1
316 579 m 1
 316 632 l 1
 474 632 l 1
 474 579 l 1
 316 579 l 1
53 526 m 1
 53 579 l 1
 211 579 l 1
 211 526 l 1
 53 526 l 1
368 526 m 1
 368 579 l 1
 474 579 l 1
 474 526 l 1
 368 526 l 1
53 474 m 1
 53 526 l 1
 211 526 l 1
 211 474 l 1
 53 474 l 1
316 474 m 1
 316 526 l 1
 421 526 l 1
 421 474 l 1
 316 474 l 1
53 421 m 1
 53 474 l 1
 211 474 l 1
 211 421 l 1
 53 421 l 1
263 421 m 1
 263 474 l 1
 368 474 l 1
 368 421 l 1
 263 421 l 1
53 368 m 1
 53 421 l 1
 211 421 l 1
 211 368 l 1
 53 368 l 1
263 368 m 1
 263 421 l 1
 421 421 l 1
 421 368 l 1
 263 368 l 1
53 316 m 1
 53 368 l 1
 211 368 l 1
 211 316 l 1
 53 316 l 1
263 316 m 1
 263 368 l 1
 474 368 l 1
 474 316 l 1
 263 316 l 1
53 263 m 1
 53 316 l 1
 211 316 l 1
 211 263 l 1
 53 263 l 1
316 263 m 1
 316 316 l 1
 526 316 l 1
 526 263 l 1
 316 263 l 1
53 211 m 1
 53 263 l 1
 211 263 l 1
 211 211 l 1
 53 211 l 1
368 211 m 1
 368 263 l 1
 579 263 l 1
 579 211 l 1
 368 211 l 1
53 158 m 1
 53 211 l 1
 211 211 l 1
 211 158 l 1
 53 158 l 1
421 158 m 1
 421 211 l 1
 579 211 l 1
 579 158 l 1
 421 158 l 1
53 105 m 1
 53 158 l 1
 211 158 l 1
 211 105 l 1
 53 105 l 1
421 105 m 1
 421 158 l 1
 579 158 l 1
 579 105 l 1
 421 105 l 1
53 53 m 1
 53 105 l 1
 211 105 l 1
 211 53 l 1
 53 53 l 1
316 53 m 1
 316 105 l 1
 579 105 l 1
 579 53 l 1
 316 53 l 1
53 0 m 1
 53 53 l 1
 211 53 l 1
 211 0 l 1
 53 0 l 1
316 0 m 1
 316 53 l 1
 526 53 l 1
 526 0 l 1
 316 0 l 1
EndSplineSet
EndChar

StartChar: agrave
Encoding: 224 224 160
Width: 579
Flags: HW
LayerCount: 2
Back
Fore
SplineSet
158 632 m 1
 158 684 l 1
 368 684 l 1
 368 632 l 1
 158 632 l 1
263 579 m 1
 263 632 l 1
 421 632 l 1
 421 579 l 1
 263 579 l 1
158 474 m 1
 158 526 l 1
 421 526 l 1
 421 474 l 1
 158 474 l 1
105 421 m 1
 105 474 l 1
 474 474 l 1
 474 421 l 1
 105 421 l 1
105 368 m 1
 105 421 l 1
 211 421 l 1
 211 368 l 1
 105 368 l 1
368 368 m 1
 368 421 l 1
 526 421 l 1
 526 368 l 1
 368 368 l 1
368 316 m 1
 368 368 l 1
 526 368 l 1
 526 316 l 1
 368 316 l 1
211 263 m 1
 211 316 l 1
 526 316 l 1
 526 263 l 1
 211 263 l 1
105 211 m 1
 105 263 l 1
 526 263 l 1
 526 211 l 1
 105 211 l 1
53 158 m 1
 53 211 l 1
 211 211 l 1
 211 158 l 1
 53 158 l 1
368 158 m 1
 368 211 l 1
 526 211 l 1
 526 158 l 1
 368 158 l 1
53 105 m 1
 53 158 l 1
 211 158 l 1
 211 105 l 1
 53 105 l 1
368 105 m 1
 368 158 l 1
 526 158 l 1
 526 105 l 1
 368 105 l 1
53 53 m 1
 53 105 l 1
 579 105 l 1
 579 53 l 1
 53 53 l 1
105 0 m 1
 105 53 l 1
 316 53 l 1
 316 0 l 1
 105 0 l 1
421 0 m 1
 421 53 l 1
 579 53 l 1
 579 0 l 1
 421 0 l 1
EndSplineSet
EndChar

StartChar: aacute
Encoding: 225 225 161
Width: 579
Flags: HW
LayerCount: 2
Back
Fore
SplineSet
263 632 m 1
 263 684 l 1
 474 684 l 1
 474 632 l 1
 263 632 l 1
211 579 m 1
 211 632 l 1
 368 632 l 1
 368 579 l 1
 211 579 l 1
158 474 m 1
 158 526 l 1
 421 526 l 1
 421 474 l 1
 158 474 l 1
105 421 m 1
 105 474 l 1
 474 474 l 1
 474 421 l 1
 105 421 l 1
105 368 m 1
 105 421 l 1
 211 421 l 1
 211 368 l 1
 105 368 l 1
368 368 m 1
 368 421 l 1
 526 421 l 1
 526 368 l 1
 368 368 l 1
368 316 m 1
 368 368 l 1
 526 368 l 1
 526 316 l 1
 368 316 l 1
211 263 m 1
 211 316 l 1
 526 316 l 1
 526 263 l 1
 211 263 l 1
105 211 m 1
 105 263 l 1
 526 263 l 1
 526 211 l 1
 105 211 l 1
53 158 m 1
 53 211 l 1
 211 211 l 1
 211 158 l 1
 53 158 l 1
368 158 m 1
 368 211 l 1
 526 211 l 1
 526 158 l 1
 368 158 l 1
53 105 m 1
 53 158 l 1
 211 158 l 1
 211 105 l 1
 53 105 l 1
368 105 m 1
 368 158 l 1
 526 158 l 1
 526 105 l 1
 368 105 l 1
53 53 m 1
 53 105 l 1
 579 105 l 1
 579 53 l 1
 53 53 l 1
105 0 m 1
 105 53 l 1
 316 53 l 1
 316 0 l 1
 105 0 l 1
421 0 m 1
 421 53 l 1
 579 53 l 1
 579 0 l 1
 421 0 l 1
EndSplineSet
EndChar

StartChar: acircumflex
Encoding: 226 226 162
Width: 579
Flags: HW
LayerCount: 2
Back
Fore
SplineSet
211 632 m 1
 211 684 l 1
 368 684 l 1
 368 632 l 1
 211 632 l 1
158 579 m 1
 158 632 l 1
 263 632 l 1
 263 579 l 1
 158 579 l 1
316 579 m 1
 316 632 l 1
 421 632 l 1
 421 579 l 1
 316 579 l 1
158 474 m 1
 158 526 l 1
 421 526 l 1
 421 474 l 1
 158 474 l 1
105 421 m 1
 105 474 l 1
 474 474 l 1
 474 421 l 1
 105 421 l 1
105 368 m 1
 105 421 l 1
 211 421 l 1
 211 368 l 1
 105 368 l 1
368 368 m 1
 368 421 l 1
 526 421 l 1
 526 368 l 1
 368 368 l 1
368 316 m 1
 368 368 l 1
 526 368 l 1
 526 316 l 1
 368 316 l 1
211 263 m 1
 211 316 l 1
 526 316 l 1
 526 263 l 1
 211 263 l 1
105 211 m 1
 105 263 l 1
 526 263 l 1
 526 211 l 1
 105 211 l 1
53 158 m 1
 53 211 l 1
 211 211 l 1
 211 158 l 1
 53 158 l 1
368 158 m 1
 368 211 l 1
 526 211 l 1
 526 158 l 1
 368 158 l 1
53 105 m 1
 53 158 l 1
 211 158 l 1
 211 105 l 1
 53 105 l 1
368 105 m 1
 368 158 l 1
 526 158 l 1
 526 105 l 1
 368 105 l 1
53 53 m 1
 53 105 l 1
 579 105 l 1
 579 53 l 1
 53 53 l 1
105 0 m 1
 105 53 l 1
 316 53 l 1
 316 0 l 1
 105 0 l 1
421 0 m 1
 421 53 l 1
 579 53 l 1
 579 0 l 1
 421 0 l 1
EndSplineSet
EndChar

StartChar: atilde
Encoding: 227 227 163
Width: 579
Flags: HW
LayerCount: 2
Back
Fore
SplineSet
211 632 m 1
 211 684 l 1
 368 684 l 1
 368 632 l 1
 211 632 l 1
421 632 m 1
 421 684 l 1
 474 684 l 1
 474 632 l 1
 421 632 l 1
158 579 m 1
 158 632 l 1
 211 632 l 1
 211 579 l 1
 158 579 l 1
263 579 m 1
 263 632 l 1
 421 632 l 1
 421 579 l 1
 263 579 l 1
158 474 m 1
 158 526 l 1
 421 526 l 1
 421 474 l 1
 158 474 l 1
105 421 m 1
 105 474 l 1
 474 474 l 1
 474 421 l 1
 105 421 l 1
105 368 m 1
 105 421 l 1
 211 421 l 1
 211 368 l 1
 105 368 l 1
368 368 m 1
 368 421 l 1
 526 421 l 1
 526 368 l 1
 368 368 l 1
368 316 m 1
 368 368 l 1
 526 368 l 1
 526 316 l 1
 368 316 l 1
211 263 m 1
 211 316 l 1
 526 316 l 1
 526 263 l 1
 211 263 l 1
105 211 m 1
 105 263 l 1
 526 263 l 1
 526 211 l 1
 105 211 l 1
53 158 m 1
 53 211 l 1
 211 211 l 1
 211 158 l 1
 53 158 l 1
368 158 m 1
 368 211 l 1
 526 211 l 1
 526 158 l 1
 368 158 l 1
53 105 m 1
 53 158 l 1
 211 158 l 1
 211 105 l 1
 53 105 l 1
368 105 m 1
 368 158 l 1
 526 158 l 1
 526 105 l 1
 368 105 l 1
53 53 m 1
 53 105 l 1
 579 105 l 1
 579 53 l 1
 53 53 l 1
105 0 m 1
 105 53 l 1
 316 53 l 1
 316 0 l 1
 105 0 l 1
421 0 m 1
 421 53 l 1
 579 53 l 1
 579 0 l 1
 421 0 l 1
EndSplineSet
EndChar

StartChar: adieresis
Encoding: 228 228 164
Width: 579
Flags: HW
LayerCount: 2
Back
Fore
SplineSet
158 632 m 1
 158 684 l 1
 263 684 l 1
 263 632 l 1
 158 632 l 1
368 632 m 1
 368 684 l 1
 474 684 l 1
 474 632 l 1
 368 632 l 1
158 579 m 1
 158 632 l 1
 263 632 l 1
 263 579 l 1
 158 579 l 1
368 579 m 1
 368 632 l 1
 474 632 l 1
 474 579 l 1
 368 579 l 1
158 474 m 1
 158 526 l 1
 421 526 l 1
 421 474 l 1
 158 474 l 1
105 421 m 1
 105 474 l 1
 474 474 l 1
 474 421 l 1
 105 421 l 1
105 368 m 1
 105 421 l 1
 211 421 l 1
 211 368 l 1
 105 368 l 1
368 368 m 1
 368 421 l 1
 526 421 l 1
 526 368 l 1
 368 368 l 1
368 316 m 1
 368 368 l 1
 526 368 l 1
 526 316 l 1
 368 316 l 1
211 263 m 1
 211 316 l 1
 526 316 l 1
 526 263 l 1
 211 263 l 1
105 211 m 1
 105 263 l 1
 526 263 l 1
 526 211 l 1
 105 211 l 1
53 158 m 1
 53 211 l 1
 211 211 l 1
 211 158 l 1
 53 158 l 1
368 158 m 1
 368 211 l 1
 526 211 l 1
 526 158 l 1
 368 158 l 1
53 105 m 1
 53 158 l 1
 211 158 l 1
 211 105 l 1
 53 105 l 1
368 105 m 1
 368 158 l 1
 526 158 l 1
 526 105 l 1
 368 105 l 1
53 53 m 1
 53 105 l 1
 579 105 l 1
 579 53 l 1
 53 53 l 1
105 0 m 1
 105 53 l 1
 316 53 l 1
 316 0 l 1
 105 0 l 1
421 0 m 1
 421 53 l 1
 579 53 l 1
 579 0 l 1
 421 0 l 1
EndSplineSet
EndChar

StartChar: aring
Encoding: 229 229 165
Width: 579
Flags: HW
LayerCount: 2
Back
Fore
SplineSet
211 684 m 1
 211 737 l 1
 368 737 l 1
 368 684 l 1
 211 684 l 1
158 632 m 1
 158 684 l 1
 211 684 l 1
 211 632 l 1
 158 632 l 1
316 632 m 1
 316 684 l 1
 421 684 l 1
 421 632 l 1
 316 632 l 1
211 579 m 1
 211 632 l 1
 368 632 l 1
 368 579 l 1
 211 579 l 1
158 474 m 1
 158 526 l 1
 421 526 l 1
 421 474 l 1
 158 474 l 1
105 421 m 1
 105 474 l 1
 474 474 l 1
 474 421 l 1
 105 421 l 1
105 368 m 1
 105 421 l 1
 211 421 l 1
 211 368 l 1
 105 368 l 1
368 368 m 1
 368 421 l 1
 526 421 l 1
 526 368 l 1
 368 368 l 1
368 316 m 1
 368 368 l 1
 526 368 l 1
 526 316 l 1
 368 316 l 1
211 263 m 1
 211 316 l 1
 526 316 l 1
 526 263 l 1
 211 263 l 1
105 211 m 1
 105 263 l 1
 526 263 l 1
 526 211 l 1
 105 211 l 1
53 158 m 1
 53 211 l 1
 211 211 l 1
 211 158 l 1
 53 158 l 1
368 158 m 1
 368 211 l 1
 526 211 l 1
 526 158 l 1
 368 158 l 1
53 105 m 1
 53 158 l 1
 211 158 l 1
 211 105 l 1
 53 105 l 1
368 105 m 1
 368 158 l 1
 526 158 l 1
 526 105 l 1
 368 105 l 1
53 53 m 1
 53 105 l 1
 579 105 l 1
 579 53 l 1
 53 53 l 1
105 0 m 1
 105 53 l 1
 316 53 l 1
 316 0 l 1
 105 0 l 1
421 0 m 1
 421 53 l 1
 579 53 l 1
 579 0 l 1
 421 0 l 1
EndSplineSet
EndChar

StartChar: ae
Encoding: 230 230 166
Width: 579
Flags: HW
LayerCount: 2
Back
Fore
SplineSet
105 474 m 1
 105 526 l 1
 263 526 l 1
 263 474 l 1
 105 474 l 1
316 474 m 1
 316 526 l 1
 474 526 l 1
 474 474 l 1
 316 474 l 1
53 421 m 1
 53 474 l 1
 526 474 l 1
 526 421 l 1
 53 421 l 1
53 368 m 1
 53 421 l 1
 158 421 l 1
 158 368 l 1
 53 368 l 1
211 368 m 1
 211 421 l 1
 316 421 l 1
 316 368 l 1
 211 368 l 1
421 368 m 1
 421 421 l 1
 579 421 l 1
 579 368 l 1
 421 368 l 1
211 316 m 1
 211 368 l 1
 316 368 l 1
 316 316 l 1
 211 316 l 1
421 316 m 1
 421 368 l 1
 579 368 l 1
 579 316 l 1
 421 316 l 1
53 263 m 1
 53 316 l 1
 579 316 l 1
 579 263 l 1
 53 263 l 1
0 211 m 1
 0 263 l 1
 579 263 l 1
 579 211 l 1
 0 211 l 1
0 158 m 1
 0 211 l 1
 105 211 l 1
 105 158 l 1
 0 158 l 1
211 158 m 1
 211 211 l 1
 316 211 l 1
 316 158 l 1
 211 158 l 1
0 105 m 1
 0 158 l 1
 105 158 l 1
 105 105 l 1
 0 105 l 1
211 105 m 1
 211 158 l 1
 316 158 l 1
 316 105 l 1
 211 105 l 1
474 105 m 1
 474 158 l 1
 579 158 l 1
 579 105 l 1
 474 105 l 1
0 53 m 1
 0 105 l 1
 579 105 l 1
 579 53 l 1
 0 53 l 1
53 0 m 1
 53 53 l 1
 211 53 l 1
 211 0 l 1
 53 0 l 1
316 0 m 1
 316 53 l 1
 526 53 l 1
 526 0 l 1
 316 0 l 1
EndSplineSet
EndChar

StartChar: ccedilla
Encoding: 231 231 167
Width: 579
Flags: HW
LayerCount: 2
Back
Fore
SplineSet
211 474 m 1
 211 526 l 1
 474 526 l 1
 474 474 l 1
 211 474 l 1
105 421 m 1
 105 474 l 1
 526 474 l 1
 526 421 l 1
 105 421 l 1
105 368 m 1
 105 421 l 1
 263 421 l 1
 263 368 l 1
 105 368 l 1
421 368 m 1
 421 421 l 1
 526 421 l 1
 526 368 l 1
 421 368 l 1
53 316 m 1
 53 368 l 1
 211 368 l 1
 211 316 l 1
 53 316 l 1
53 263 m 1
 53 316 l 1
 211 316 l 1
 211 263 l 1
 53 263 l 1
53 211 m 1
 53 263 l 1
 211 263 l 1
 211 211 l 1
 53 211 l 1
53 158 m 1
 53 211 l 1
 211 211 l 1
 211 158 l 1
 53 158 l 1
53 105 m 1
 53 158 l 1
 263 158 l 1
 263 105 l 1
 53 105 l 1
421 105 m 1
 421 158 l 1
 526 158 l 1
 526 105 l 1
 421 105 l 1
105 53 m 1
 105 105 l 1
 526 105 l 1
 526 53 l 1
 105 53 l 1
211 0 m 1
 211 53 l 1
 421 53 l 1
 421 0 l 1
 211 0 l 1
263 -53 m 1
 263 0 l 1
 368 0 l 1
 368 -53 l 1
 263 -53 l 1
316 -105 m 1
 316 -53 l 1
 421 -53 l 1
 421 -105 l 1
 316 -105 l 1
211 -158 m 1
 211 -105 l 1
 368 -105 l 1
 368 -158 l 1
 211 -158 l 1
EndSplineSet
EndChar

StartChar: egrave
Encoding: 232 232 168
Width: 579
Flags: HW
LayerCount: 2
Back
Fore
SplineSet
158 632 m 1
 158 684 l 1
 368 684 l 1
 368 632 l 1
 158 632 l 1
263 579 m 1
 263 632 l 1
 421 632 l 1
 421 579 l 1
 263 579 l 1
211 474 m 1
 211 526 l 1
 421 526 l 1
 421 474 l 1
 211 474 l 1
105 421 m 1
 105 474 l 1
 474 474 l 1
 474 421 l 1
 105 421 l 1
105 368 m 1
 105 421 l 1
 263 421 l 1
 263 368 l 1
 105 368 l 1
368 368 m 1
 368 421 l 1
 526 421 l 1
 526 368 l 1
 368 368 l 1
53 316 m 1
 53 368 l 1
 211 368 l 1
 211 316 l 1
 53 316 l 1
368 316 m 1
 368 368 l 1
 526 368 l 1
 526 316 l 1
 368 316 l 1
53 263 m 1
 53 316 l 1
 526 316 l 1
 526 263 l 1
 53 263 l 1
53 211 m 1
 53 263 l 1
 526 263 l 1
 526 211 l 1
 53 211 l 1
53 158 m 1
 53 211 l 1
 211 211 l 1
 211 158 l 1
 53 158 l 1
53 105 m 1
 53 158 l 1
 263 158 l 1
 263 105 l 1
 53 105 l 1
421 105 m 1
 421 158 l 1
 526 158 l 1
 526 105 l 1
 421 105 l 1
105 53 m 1
 105 105 l 1
 526 105 l 1
 526 53 l 1
 105 53 l 1
211 0 m 1
 211 53 l 1
 474 53 l 1
 474 0 l 1
 211 0 l 1
EndSplineSet
EndChar

StartChar: eacute
Encoding: 233 233 169
Width: 579
Flags: HW
LayerCount: 2
Back
Fore
SplineSet
263 632 m 1
 263 684 l 1
 474 684 l 1
 474 632 l 1
 263 632 l 1
211 579 m 1
 211 632 l 1
 368 632 l 1
 368 579 l 1
 211 579 l 1
211 474 m 1
 211 526 l 1
 421 526 l 1
 421 474 l 1
 211 474 l 1
105 421 m 1
 105 474 l 1
 474 474 l 1
 474 421 l 1
 105 421 l 1
105 368 m 1
 105 421 l 1
 263 421 l 1
 263 368 l 1
 105 368 l 1
368 368 m 1
 368 421 l 1
 526 421 l 1
 526 368 l 1
 368 368 l 1
53 316 m 1
 53 368 l 1
 211 368 l 1
 211 316 l 1
 53 316 l 1
368 316 m 1
 368 368 l 1
 526 368 l 1
 526 316 l 1
 368 316 l 1
53 263 m 1
 53 316 l 1
 526 316 l 1
 526 263 l 1
 53 263 l 1
53 211 m 1
 53 263 l 1
 526 263 l 1
 526 211 l 1
 53 211 l 1
53 158 m 1
 53 211 l 1
 211 211 l 1
 211 158 l 1
 53 158 l 1
53 105 m 1
 53 158 l 1
 263 158 l 1
 263 105 l 1
 53 105 l 1
421 105 m 1
 421 158 l 1
 526 158 l 1
 526 105 l 1
 421 105 l 1
105 53 m 1
 105 105 l 1
 526 105 l 1
 526 53 l 1
 105 53 l 1
211 0 m 1
 211 53 l 1
 474 53 l 1
 474 0 l 1
 211 0 l 1
EndSplineSet
EndChar

StartChar: ecircumflex
Encoding: 234 234 170
Width: 579
Flags: HW
LayerCount: 2
Back
Fore
SplineSet
263 632 m 1
 263 684 l 1
 421 684 l 1
 421 632 l 1
 263 632 l 1
211 579 m 1
 211 632 l 1
 316 632 l 1
 316 579 l 1
 211 579 l 1
368 579 m 1
 368 632 l 1
 474 632 l 1
 474 579 l 1
 368 579 l 1
211 474 m 1
 211 526 l 1
 421 526 l 1
 421 474 l 1
 211 474 l 1
105 421 m 1
 105 474 l 1
 474 474 l 1
 474 421 l 1
 105 421 l 1
105 368 m 1
 105 421 l 1
 263 421 l 1
 263 368 l 1
 105 368 l 1
368 368 m 1
 368 421 l 1
 526 421 l 1
 526 368 l 1
 368 368 l 1
53 316 m 1
 53 368 l 1
 211 368 l 1
 211 316 l 1
 53 316 l 1
368 316 m 1
 368 368 l 1
 526 368 l 1
 526 316 l 1
 368 316 l 1
53 263 m 1
 53 316 l 1
 526 316 l 1
 526 263 l 1
 53 263 l 1
53 211 m 1
 53 263 l 1
 526 263 l 1
 526 211 l 1
 53 211 l 1
53 158 m 1
 53 211 l 1
 211 211 l 1
 211 158 l 1
 53 158 l 1
53 105 m 1
 53 158 l 1
 263 158 l 1
 263 105 l 1
 53 105 l 1
421 105 m 1
 421 158 l 1
 526 158 l 1
 526 105 l 1
 421 105 l 1
105 53 m 1
 105 105 l 1
 526 105 l 1
 526 53 l 1
 105 53 l 1
211 0 m 1
 211 53 l 1
 474 53 l 1
 474 0 l 1
 211 0 l 1
EndSplineSet
EndChar

StartChar: edieresis
Encoding: 235 235 171
Width: 579
Flags: HW
LayerCount: 2
Back
Fore
SplineSet
158 632 m 1
 158 684 l 1
 263 684 l 1
 263 632 l 1
 158 632 l 1
368 632 m 1
 368 684 l 1
 474 684 l 1
 474 632 l 1
 368 632 l 1
158 579 m 1
 158 632 l 1
 263 632 l 1
 263 579 l 1
 158 579 l 1
368 579 m 1
 368 632 l 1
 474 632 l 1
 474 579 l 1
 368 579 l 1
211 474 m 1
 211 526 l 1
 421 526 l 1
 421 474 l 1
 211 474 l 1
105 421 m 1
 105 474 l 1
 474 474 l 1
 474 421 l 1
 105 421 l 1
105 368 m 1
 105 421 l 1
 263 421 l 1
 263 368 l 1
 105 368 l 1
368 368 m 1
 368 421 l 1
 526 421 l 1
 526 368 l 1
 368 368 l 1
53 316 m 1
 53 368 l 1
 211 368 l 1
 211 316 l 1
 53 316 l 1
368 316 m 1
 368 368 l 1
 526 368 l 1
 526 316 l 1
 368 316 l 1
53 263 m 1
 53 316 l 1
 526 316 l 1
 526 263 l 1
 53 263 l 1
53 211 m 1
 53 263 l 1
 526 263 l 1
 526 211 l 1
 53 211 l 1
53 158 m 1
 53 211 l 1
 211 211 l 1
 211 158 l 1
 53 158 l 1
53 105 m 1
 53 158 l 1
 263 158 l 1
 263 105 l 1
 53 105 l 1
421 105 m 1
 421 158 l 1
 526 158 l 1
 526 105 l 1
 421 105 l 1
105 53 m 1
 105 105 l 1
 526 105 l 1
 526 53 l 1
 105 53 l 1
211 0 m 1
 211 53 l 1
 474 53 l 1
 474 0 l 1
 211 0 l 1
EndSplineSet
EndChar

